<svg version="1.1" xmlns="http://www.w3.org/2000/svg" xmlns:xlink="http://www.w3.org/1999/xlink" width="763" height="747"><defs/><g><g transform="translate(-214,-94) scale(1,1)"><rect fill="#ffffff" stroke="none" x="224" y="104" width="247" height="21"/></g><g transform="translate(-214,-94) scale(1,1)"><path fill="none" stroke="#000000" d="M 224 104 L 471 104 L 471 125 L 224 125 L 224 104 Z Z" stroke-miterlimit="10" stroke-width="2"/></g><g transform="translate(-214,-94) scale(1,1)"><path fill="none" stroke="#000000" d="M 224 831 L 224 104 L 471 104 L 471 831" stroke-miterlimit="10" stroke-width="2"/></g><g transform="translate(-214,-94) scale(1,1)"><g><path fill="none" stroke="none"/><text fill="#000000" stroke="none" font-family="Arial" font-size="13px" font-style="normal" font-weight="normal" text-decoration="none" x="341" y="121">UI</text></g></g><g transform="translate(-214,-94) scale(1,1)"><rect fill="#ffffff" stroke="none" x="472" y="104" width="248" height="21"/></g><g transform="translate(-214,-94) scale(1,1)"><path fill="none" stroke="#000000" d="M 472 104 L 720 104 L 720 125 L 472 125 L 472 104 Z Z" stroke-miterlimit="10" stroke-width="2"/></g><g transform="translate(-214,-94) scale(1,1)"><path fill="none" stroke="#000000" d="M 472 823 L 472 104 L 720 104 L 720 823" stroke-miterlimit="10" stroke-width="2"/></g><g transform="translate(-214,-94) scale(1,1)"><g><path fill="none" stroke="none"/><text fill="#000000" stroke="none" font-family="Arial" font-size="13px" font-style="normal" font-weight="normal" text-decoration="none" x="572.713623046875" y="121">Сървър</text></g></g><g transform="translate(-214,-94) scale(1,1)"><rect fill="#ffffff" stroke="none" x="720" y="104" width="247" height="21"/></g><g transform="translate(-214,-94) scale(1,1)"><path fill="none" stroke="#000000" d="M 720 104 L 967 104 L 967 125 L 720 125 L 720 104 Z Z" stroke-miterlimit="10" stroke-width="2"/></g><g transform="translate(-214,-94) scale(1,1)"><path fill="none" stroke="#000000" d="M 720 824 L 720 104 L 967 104 L 967 824" stroke-miterlimit="10" stroke-width="2"/></g><g transform="translate(-214,-94) scale(1,1)"><g><path fill="none" stroke="none"/><text fill="#000000" stroke="none" font-family="Arial" font-size="13px" font-style="normal" font-weight="normal" text-decoration="none" x="800.818359375" y="121">База от данни</text></g></g><g transform="translate(-214,-94) scale(1,1)"><path fill="#C0C0C0" stroke="none" d="M 343 152.5 C 343 147.2532944 347.2532944 143 352.5 143 C 357.7467056 143 362 147.2532944 362 152.5 C 362 157.7467056 357.7467056 162 352.5 162 C 347.2532944 162 343 157.7467056 343 152.5 Z" opacity="0.2"/></g><g transform="translate(-214,-94) scale(1,1)"><path fill="#000000" stroke="none" d="M 336 145.5 C 336 140.2532944 340.2532944 136 345.5 136 C 350.7467056 136 355 140.2532944 355 145.5 C 355 150.7467056 350.7467056 155 345.5 155 C 340.2532944 155 336 150.7467056 336 145.5 Z"/></g><g transform="translate(-214,-94) scale(1,1)"><path fill="#C0C0C0" stroke="none" d="M 335 811.5 C 335 804.59644 340.59644 799 347.5 799 C 354.40356 799 360 804.59644 360 811.5 C 360 818.40356 354.40356 824 347.5 824 C 340.59644 824 335 818.40356 335 811.5 Z" opacity="0.2"/></g><g transform="translate(-214,-94) scale(1,1)"><path fill="none" stroke="#000000" d="M 328 804.5 C 328 797.59644 333.59644 792 340.5 792 C 347.40356 792 353 797.59644 353 804.5 C 353 811.40356 347.40356 817 340.5 817 C 333.59644 817 328 811.40356 328 804.5 Z" stroke-miterlimit="10"/></g><g transform="translate(-214,-94) scale(1,1)"><path fill="#000000" stroke="none" d="M 333 804.5 C 333 800.357864 336.357864 797 340.5 797 C 344.642136 797 348 800.357864 348 804.5 C 348 808.642136 344.642136 812 340.5 812 C 336.357864 812 333 808.642136 333 804.5 Z"/></g><g transform="translate(-214,-94) scale(1,1)"><path fill="#C0C0C0" stroke="none" d="M 289 215 L 412 215 Q 422 215 422 225 L 422 252 Q 422 262 412 262 L 289 262 Q 279 262 279 252 L 279 225 Q 279 215 289 215 Z" opacity="0.2"/></g><g transform="translate(-214,-94) scale(1,1)"><path fill="#ffffff" stroke="none" d="M 282 208 L 405 208 Q 415 208 415 218 L 415 245 Q 415 255 405 255 L 282 255 Q 272 255 272 245 L 272 218 Q 272 208 282 208 Z"/></g><g transform="translate(-214,-94) scale(1,1)"><path fill="none" stroke="#000000" d="M 282 208 L 405 208 Q 415 208 415 218 L 415 245 Q 415 255 405 255 L 282 255 Q 272 255 272 245 L 272 218 Q 272 208 282 208 Z" stroke-miterlimit="10"/></g><g transform="translate(-214,-94) scale(1,1)"><g><path fill="none" stroke="none"/><text fill="#000000" stroke="none" font-family="Arial" font-size="13px" font-style="normal" font-weight="bold" text-decoration="none" x="290.620849609375" y="227.5">Вход в системата</text></g></g><g transform="translate(-214,-94) scale(1,1)"><path fill="none" stroke="#000000" d="M 345 155 L 345 208" stroke-miterlimit="10"/></g><g transform="translate(-214,-94) scale(1,1)"><path fill="none" stroke="#000000" d="M 340.790482243984 197.83732514237585 L 345 208 L 349.209517756016 197.83732514237585" stroke-miterlimit="10"/></g><g transform="translate(-214,-94) scale(1,1)"><path fill="#C0C0C0" stroke="none" d="M 289 295 L 413 295 Q 423 295 423 305 L 423 341 Q 423 351 413 351 L 289 351 Q 279 351 279 341 L 279 305 Q 279 295 289 295 Z" opacity="0.2"/></g><g transform="translate(-214,-94) scale(1,1)"><path fill="#ffffff" stroke="none" d="M 282 288 L 406 288 Q 416 288 416 298 L 416 334 Q 416 344 406 344 L 282 344 Q 272 344 272 334 L 272 298 Q 272 288 282 288 Z"/></g><g transform="translate(-214,-94) scale(1,1)"><path fill="none" stroke="#000000" d="M 282 288 L 406 288 Q 416 288 416 298 L 416 334 Q 416 344 406 344 L 282 344 Q 272 344 272 334 L 272 298 Q 272 288 282 288 Z" stroke-miterlimit="10"/></g><g transform="translate(-214,-94) scale(1,1)"><g><path fill="none" stroke="none"/><text fill="#000000" stroke="none" font-family="Arial" font-size="13px" font-style="normal" font-weight="bold" text-decoration="none" x="305.695068359375" y="307.5">Отваряне на</text><text fill="#000000" stroke="none" font-family="Arial" font-size="13px" font-style="normal" font-weight="bold" text-decoration="none" x="294.770751953125" y="320.5">каталога с книги</text></g></g><g transform="translate(-214,-94) scale(1,1)"><path fill="#C0C0C0" stroke="none" d="M 529 295 L 669 295 Q 679 295 679 305 L 679 351 Q 679 361 669 361 L 529 361 Q 519 361 519 351 L 519 305 Q 519 295 529 295 Z" opacity="0.2"/></g><g transform="translate(-214,-94) scale(1,1)"><path fill="#ffffff" stroke="none" d="M 522 288 L 662 288 Q 672 288 672 298 L 672 344 Q 672 354 662 354 L 522 354 Q 512 354 512 344 L 512 298 Q 512 288 522 288 Z"/></g><g transform="translate(-214,-94) scale(1,1)"><path fill="none" stroke="#000000" d="M 522 288 L 662 288 Q 672 288 672 298 L 672 344 Q 672 354 662 354 L 522 354 Q 512 354 512 344 L 512 298 Q 512 288 522 288 Z" stroke-miterlimit="10"/></g><g transform="translate(-214,-94) scale(1,1)"><g><path fill="none" stroke="none"/><text fill="#000000" stroke="none" font-family="Arial" font-size="13px" font-style="normal" font-weight="bold" text-decoration="none" x="550.7783203125" y="307.5">Поискване на</text><text fill="#000000" stroke="none" font-family="Arial" font-size="13px" font-style="normal" font-weight="bold" text-decoration="none" x="533.220703125" y="320.5">списъкът с книги от</text><text fill="#000000" stroke="none" font-family="Arial" font-size="13px" font-style="normal" font-weight="bold" text-decoration="none" x="551.88916015625" y="333.5">базата данни</text></g></g><g transform="translate(-214,-94) scale(1,1)"><path fill="#ffffff" stroke="none" d="M 770 376 L 918 376 Q 928 376 928 386 L 928 429 Q 928 439 918 439 L 770 439 Q 760 439 760 429 L 760 386 Q 760 376 770 376 Z"/></g><g transform="translate(-214,-94) scale(1,1)"><path fill="none" stroke="#000000" d="M 770 376 L 918 376 Q 928 376 928 386 L 928 429 Q 928 439 918 439 L 770 439 Q 760 439 760 429 L 760 386 Q 760 376 770 376 Z" stroke-miterlimit="10"/></g><g transform="translate(-214,-94) scale(1,1)"><g><path fill="none" stroke="none"/><text fill="#000000" stroke="none" font-family="Arial" font-size="13px" font-style="normal" font-weight="bold" text-decoration="none" x="772.350830078125" y="395.5">Връщане на списъкът с</text><text fill="#000000" stroke="none" font-family="Arial" font-size="13px" font-style="normal" font-weight="bold" text-decoration="none" x="827.93408203125" y="408.5">книги</text></g></g><g transform="translate(-214,-94) scale(1,1)"><path fill="#C0C0C0" stroke="none" d="M 529 391 L 661 391 Q 671 391 671 401 L 671 434 Q 671 444 661 444 L 529 444 Q 519 444 519 434 L 519 401 Q 519 391 529 391 Z" opacity="0.2"/></g><g transform="translate(-214,-94) scale(1,1)"><path fill="#ffffff" stroke="none" d="M 522 384 L 654 384 Q 664 384 664 394 L 664 427 Q 664 437 654 437 L 522 437 Q 512 437 512 427 L 512 394 Q 512 384 522 384 Z"/></g><g transform="translate(-214,-94) scale(1,1)"><path fill="none" stroke="#000000" d="M 522 384 L 654 384 Q 664 384 664 394 L 664 427 Q 664 437 654 437 L 522 437 Q 512 437 512 427 L 512 394 Q 512 384 522 384 Z" stroke-miterlimit="10"/></g><g transform="translate(-214,-94) scale(1,1)"><g><path fill="none" stroke="none"/><text fill="#000000" stroke="none" font-family="Arial" font-size="13px" font-style="normal" font-weight="bold" text-decoration="none" x="537.83447265625" y="403.5">Форматиране на</text><text fill="#000000" stroke="none" font-family="Arial" font-size="13px" font-style="normal" font-weight="bold" text-decoration="none" x="537.475830078125" y="416.5">списъкът с книги</text></g></g><g transform="translate(-214,-94) scale(1,1)"><path fill="#C0C0C0" stroke="none" d="M 289 391 L 413 391 Q 423 391 423 401 L 423 434 Q 423 444 413 444 L 289 444 Q 279 444 279 434 L 279 401 Q 279 391 289 391 Z" opacity="0.2"/></g><g transform="translate(-214,-94) scale(1,1)"><path fill="#ffffff" stroke="none" d="M 282 384 L 406 384 Q 416 384 416 394 L 416 427 Q 416 437 406 437 L 282 437 Q 272 437 272 427 L 272 394 Q 272 384 282 384 Z"/></g><g transform="translate(-214,-94) scale(1,1)"><path fill="none" stroke="#000000" d="M 282 384 L 406 384 Q 416 384 416 394 L 416 427 Q 416 437 406 437 L 282 437 Q 272 437 272 427 L 272 394 Q 272 384 282 384 Z" stroke-miterlimit="10"/></g><g transform="translate(-214,-94) scale(1,1)"><g><path fill="none" stroke="none"/><text fill="#000000" stroke="none" font-family="Arial" font-size="13px" font-style="normal" font-weight="bold" text-decoration="none" x="295.564208984375" y="403.5">Представяне на</text><text fill="#000000" stroke="none" font-family="Arial" font-size="13px" font-style="normal" font-weight="bold" text-decoration="none" x="294.770751953125" y="416.5">каталога с книги</text></g></g><g transform="translate(-214,-94) scale(1,1)"><path fill="none" stroke="#000000" d="M 343 255 L 343 288" stroke-miterlimit="10"/></g><g transform="translate(-214,-94) scale(1,1)"><path fill="none" stroke="#000000" d="M 338.790482243984 277.83732514237585 L 343 288 L 347.209517756016 277.83732514237585" stroke-miterlimit="10"/></g><g transform="translate(-214,-94) scale(1,1)"><path fill="none" stroke="#000000" d="M 416 319 L 512 319" stroke-miterlimit="10"/></g><g transform="translate(-214,-94) scale(1,1)"><path fill="none" stroke="#000000" d="M 501.83732514237585 323.209517756016 L 512 319 L 501.83732514237585 314.790482243984" stroke-miterlimit="10"/></g><g transform="translate(-214,-94) scale(1,1)"><path fill="none" stroke="#000000" d="M 672 320 L 840 320 L 840 376" stroke-miterlimit="10"/></g><g transform="translate(-214,-94) scale(1,1)"><path fill="none" stroke="#000000" d="M 835.790482243984 365.83732514237585 L 840 376 L 844.209517756016 365.83732514237585" stroke-miterlimit="10"/></g><g transform="translate(-214,-94) scale(1,1)"><path fill="none" stroke="#000000" d="M 760 409 L 664 409" stroke-miterlimit="10"/></g><g transform="translate(-214,-94) scale(1,1)"><path fill="none" stroke="#000000" d="M 674.1626748576241 404.790482243984 L 664 409 L 674.1626748576241 413.209517756016" stroke-miterlimit="10"/></g><g transform="translate(-214,-94) scale(1,1)"><path fill="none" stroke="#000000" d="M 512 410 L 416 410" stroke-miterlimit="10"/></g><g transform="translate(-214,-94) scale(1,1)"><path fill="none" stroke="#000000" d="M 426.16267485762415 405.790482243984 L 416 410 L 426.16267485762415 414.209517756016" stroke-miterlimit="10"/></g><g transform="translate(-214,-94) scale(1,1)"><path fill="none" stroke="#000000" d="M 344 437 L 344 504" stroke-miterlimit="10"/></g><g transform="translate(-214,-94) scale(1,1)"><path fill="none" stroke="#000000" d="M 339.790482243984 493.83732514237585 L 344 504 L 348.209517756016 493.83732514237585" stroke-miterlimit="10"/></g><g transform="translate(-214,-94) scale(1,1)"><path fill="#C0C0C0" stroke="none" d="M 289 511 L 413 511 Q 423 511 423 521 L 423 554 Q 423 564 413 564 L 289 564 Q 279 564 279 554 L 279 521 Q 279 511 289 511 Z" opacity="0.2"/></g><g transform="translate(-214,-94) scale(1,1)"><path fill="#ffffff" stroke="none" d="M 282 504 L 406 504 Q 416 504 416 514 L 416 547 Q 416 557 406 557 L 282 557 Q 272 557 272 547 L 272 514 Q 272 504 282 504 Z"/></g><g transform="translate(-214,-94) scale(1,1)"><path fill="none" stroke="#000000" d="M 282 504 L 406 504 Q 416 504 416 514 L 416 547 Q 416 557 406 557 L 282 557 Q 272 557 272 547 L 272 514 Q 272 504 282 504 Z" stroke-miterlimit="10"/></g><g transform="translate(-214,-94) scale(1,1)"><g><path fill="none" stroke="none"/><text fill="#000000" stroke="none" font-family="Arial" font-size="13px" font-style="normal" font-weight="bold" text-decoration="none" x="287.908935546875" y="523.5">Избиране на книга</text><text fill="#000000" stroke="none" font-family="Arial" font-size="13px" font-style="normal" font-weight="bold" text-decoration="none" x="306.89794921875" y="536.5">за добавяне</text></g></g><g transform="translate(-214,-94) scale(1,1)"><path fill="#C0C0C0" stroke="none" d="M 529 487 L 661 487 Q 671 487 671 497 L 671 569 Q 671 579 661 579 L 529 579 Q 519 579 519 569 L 519 497 Q 519 487 529 487 Z" opacity="0.2"/></g><g transform="translate(-214,-94) scale(1,1)"><path fill="#ffffff" stroke="none" d="M 522 480 L 654 480 Q 664 480 664 490 L 664 562 Q 664 572 654 572 L 522 572 Q 512 572 512 562 L 512 490 Q 512 480 522 480 Z"/></g><g transform="translate(-214,-94) scale(1,1)"><path fill="none" stroke="#000000" d="M 522 480 L 654 480 Q 664 480 664 490 L 664 562 Q 664 572 654 572 L 522 572 Q 512 572 512 562 L 512 490 Q 512 480 522 480 Z" stroke-miterlimit="10"/></g><g transform="translate(-214,-94) scale(1,1)"><g><path fill="none" stroke="none"/><text fill="#000000" stroke="none" font-family="Arial" font-size="13px" font-style="normal" font-weight="bold" text-decoration="none" x="522.444580078125" y="499.5">Изпращане на заявка</text><text fill="#000000" stroke="none" font-family="Arial" font-size="13px" font-style="normal" font-weight="bold" text-decoration="none" x="526.30712890625" y="512.5">към базата данни за</text><text fill="#000000" stroke="none" font-family="Arial" font-size="13px" font-style="normal" font-weight="bold" text-decoration="none" x="526.19921875" y="525.5">добавяне на книгата</text><text fill="#000000" stroke="none" font-family="Arial" font-size="13px" font-style="normal" font-weight="bold" text-decoration="none" x="524.02197265625" y="538.5">към потребителският</text><text fill="#000000" stroke="none" font-family="Arial" font-size="13px" font-style="normal" font-weight="bold" text-decoration="none" x="544.515380859375" y="551.5">списък с книги</text></g></g><g transform="translate(-214,-94) scale(1,1)"><path fill="#C0C0C0" stroke="none" d="M 769 503 L 917 503 Q 927 503 927 513 L 927 559 Q 927 569 917 569 L 769 569 Q 759 569 759 559 L 759 513 Q 759 503 769 503 Z" opacity="0.2"/></g><g transform="translate(-214,-94) scale(1,1)"><path fill="#ffffff" stroke="none" d="M 762 496 L 910 496 Q 920 496 920 506 L 920 552 Q 920 562 910 562 L 762 562 Q 752 562 752 552 L 752 506 Q 752 496 762 496 Z"/></g><g transform="translate(-214,-94) scale(1,1)"><path fill="none" stroke="#000000" d="M 762 496 L 910 496 Q 920 496 920 506 L 920 552 Q 920 562 910 562 L 762 562 Q 752 562 752 552 L 752 506 Q 752 496 762 496 Z" stroke-miterlimit="10"/></g><g transform="translate(-214,-94) scale(1,1)"><g><path fill="none" stroke="none"/><text fill="#000000" stroke="none" font-family="Arial" font-size="13px" font-style="normal" font-weight="bold" text-decoration="none" x="773.516845703125" y="515.5">Добавяне на книгата</text><text fill="#000000" stroke="none" font-family="Arial" font-size="13px" font-style="normal" font-weight="bold" text-decoration="none" x="772.294921875" y="528.5">към списъкът с книги</text><text fill="#000000" stroke="none" font-family="Arial" font-size="13px" font-style="normal" font-weight="bold" text-decoration="none" x="788.89404296875" y="541.5">на потребителя</text></g></g><g transform="translate(-214,-94) scale(1,1)"><path fill="none" stroke="#000000" d="M 416 522 L 512 522" stroke-miterlimit="10"/></g><g transform="translate(-214,-94) scale(1,1)"><path fill="none" stroke="#000000" d="M 501.83732514237585 526.209517756016 L 512 522 L 501.83732514237585 517.790482243984" stroke-miterlimit="10"/></g><g transform="translate(-214,-94) scale(1,1)"><path fill="none" stroke="#000000" d="M 664 528 L 752 528" stroke-miterlimit="10"/></g><g transform="translate(-214,-94) scale(1,1)"><path fill="none" stroke="#000000" d="M 741.8373251423759 532.209517756016 L 752 528 L 741.8373251423758 523.790482243984" stroke-miterlimit="10"/></g><g transform="translate(-214,-94) scale(1,1)"><path fill="#C0C0C0" stroke="none" d="M 289 639 L 413 639 Q 423 639 423 649 L 423 708 Q 423 718 413 718 L 289 718 Q 279 718 279 708 L 279 649 Q 279 639 289 639 Z" opacity="0.2"/></g><g transform="translate(-214,-94) scale(1,1)"><path fill="#ffffff" stroke="none" d="M 282 632 L 406 632 Q 416 632 416 642 L 416 701 Q 416 711 406 711 L 282 711 Q 272 711 272 701 L 272 642 Q 272 632 282 632 Z"/></g><g transform="translate(-214,-94) scale(1,1)"><path fill="none" stroke="#000000" d="M 282 632 L 406 632 Q 416 632 416 642 L 416 701 Q 416 711 406 711 L 282 711 Q 272 711 272 701 L 272 642 Q 272 632 282 632 Z" stroke-miterlimit="10"/></g><g transform="translate(-214,-94) scale(1,1)"><g><path fill="none" stroke="none"/><text fill="#000000" stroke="none" font-family="Arial" font-size="13px" font-style="normal" font-weight="bold" text-decoration="none" x="302.994140625" y="651.5">Показване на</text><text fill="#000000" stroke="none" font-family="Arial" font-size="13px" font-style="normal" font-weight="bold" text-decoration="none" x="290.32421875" y="664.5">информацията за</text><text fill="#000000" stroke="none" font-family="Arial" font-size="13px" font-style="normal" font-weight="bold" text-decoration="none" x="293.240966796875" y="677.5">добавената вече</text><text fill="#000000" stroke="none" font-family="Arial" font-size="13px" font-style="normal" font-weight="bold" text-decoration="none" x="328.0927734375" y="690.5">книга</text></g></g><g transform="translate(-214,-94) scale(1,1)"><path fill="#C0C0C0" stroke="none" d="M 529 639 L 661 639 Q 671 639 671 649 L 671 701 Q 671 711 661 711 L 529 711 Q 519 711 519 701 L 519 649 Q 519 639 529 639 Z" opacity="0.2"/></g><g transform="translate(-214,-94) scale(1,1)"><path fill="#ffffff" stroke="none" d="M 522 632 L 654 632 Q 664 632 664 642 L 664 694 Q 664 704 654 704 L 522 704 Q 512 704 512 694 L 512 642 Q 512 632 522 632 Z"/></g><g transform="translate(-214,-94) scale(1,1)"><path fill="none" stroke="#000000" d="M 522 632 L 654 632 Q 664 632 664 642 L 664 694 Q 664 704 654 704 L 522 704 Q 512 704 512 694 L 512 642 Q 512 632 522 632 Z" stroke-miterlimit="10"/></g><g transform="translate(-214,-94) scale(1,1)"><g><path fill="none" stroke="none"/><text fill="#000000" stroke="none" font-family="Arial" font-size="13px" font-style="normal" font-weight="bold" text-decoration="none" x="537.83447265625" y="651.5">Форматиране на</text><text fill="#000000" stroke="none" font-family="Arial" font-size="13px" font-style="normal" font-weight="bold" text-decoration="none" x="534.32421875" y="664.5">информацията за</text><text fill="#000000" stroke="none" font-family="Arial" font-size="13px" font-style="normal" font-weight="bold" text-decoration="none" x="565.716552734375" y="677.5">книгата</text></g></g><g transform="translate(-214,-94) scale(1,1)"><path fill="#C0C0C0" stroke="none" d="M 769 639 L 917 639 Q 927 639 927 649 L 927 695 Q 927 705 917 705 L 769 705 Q 759 705 759 695 L 759 649 Q 759 639 769 639 Z" opacity="0.2"/></g><g transform="translate(-214,-94) scale(1,1)"><path fill="#ffffff" stroke="none" d="M 762 632 L 910 632 Q 920 632 920 642 L 920 688 Q 920 698 910 698 L 762 698 Q 752 698 752 688 L 752 642 Q 752 632 762 632 Z"/></g><g transform="translate(-214,-94) scale(1,1)"><path fill="none" stroke="#000000" d="M 762 632 L 910 632 Q 920 632 920 642 L 920 688 Q 920 698 910 698 L 762 698 Q 752 698 752 688 L 752 642 Q 752 632 762 632 Z" stroke-miterlimit="10"/></g><g transform="translate(-214,-94) scale(1,1)"><g><path fill="none" stroke="none"/><text fill="#000000" stroke="none" font-family="Arial" font-size="13px" font-style="normal" font-weight="bold" text-decoration="none" x="792.420166015625" y="651.5">Изпращане на</text><text fill="#000000" stroke="none" font-family="Arial" font-size="13px" font-style="normal" font-weight="bold" text-decoration="none" x="782.32421875" y="664.5">информацията за</text><text fill="#000000" stroke="none" font-family="Arial" font-size="13px" font-style="normal" font-weight="bold" text-decoration="none" x="813.716552734375" y="677.5">книгата</text></g></g><g transform="translate(-214,-94) scale(1,1)"><path fill="none" stroke="#000000" d="M 836 563 L 836 631" stroke-miterlimit="10"/></g><g transform="translate(-214,-94) scale(1,1)"><path fill="none" stroke="#000000" d="M 831.790482243984 620.8373251423759 L 836 631 L 840.209517756016 620.8373251423759" stroke-miterlimit="10"/></g><g transform="translate(-214,-94) scale(1,1)"><path fill="none" stroke="#000000" d="M 752 667 L 664 667" stroke-miterlimit="10"/></g><g transform="translate(-214,-94) scale(1,1)"><path fill="none" stroke="#000000" d="M 674.1626748576241 662.790482243984 L 664 667 L 674.1626748576241 671.209517756016" stroke-miterlimit="10"/></g><g transform="translate(-214,-94) scale(1,1)"><path fill="none" stroke="#000000" d="M 512 670 L 416 670" stroke-miterlimit="10"/></g><g transform="translate(-214,-94) scale(1,1)"><path fill="none" stroke="#000000" d="M 426.16267485762415 665.790482243984 L 416 670 L 426.16267485762415 674.209517756016" stroke-miterlimit="10"/></g><g transform="translate(-214,-94) scale(1,1)"><path fill="none" stroke="#000000" d="M 343 712 L 340 791" stroke-miterlimit="10"/></g><g transform="translate(-214,-94) scale(1,1)"><path fill="none" stroke="#000000" d="M 336.1791605846995 780.6849049368178 L 340 791 L 344.5921322073762 781.0043848718561" stroke-miterlimit="10"/></g></g></svg>