<svg version="1.1" xmlns="http://www.w3.org/2000/svg" xmlns:xlink="http://www.w3.org/1999/xlink" width="764" height="900"><defs/><g><g transform="translate(-230,-118) scale(1,1)"><rect fill="#ffffff" stroke="none" x="240" y="128" width="247" height="21"/></g><g transform="translate(-230,-118) scale(1,1)"><path fill="none" stroke="#000000" d="M 240 128 L 487 128 L 487 149 L 240 149 L 240 128 Z Z" stroke-miterlimit="10" stroke-width="2"/></g><g transform="translate(-230,-118) scale(1,1)"><path fill="none" stroke="#000000" d="M 240 1008 L 240 128 L 487 128 L 487 1008" stroke-miterlimit="10" stroke-width="2"/></g><g transform="translate(-230,-118) scale(1,1)"><g><path fill="none" stroke="none"/><text fill="#000000" stroke="none" font-family="Arial" font-size="13px" font-style="normal" font-weight="normal" text-decoration="none" x="357" y="145">UI</text></g></g><g transform="translate(-230,-118) scale(1,1)"><rect fill="#ffffff" stroke="none" x="488" y="128" width="247" height="21"/></g><g transform="translate(-230,-118) scale(1,1)"><path fill="none" stroke="#000000" d="M 488 128 L 735 128 L 735 149 L 488 149 L 488 128 Z Z" stroke-miterlimit="10" stroke-width="2"/></g><g transform="translate(-230,-118) scale(1,1)"><path fill="none" stroke="#000000" d="M 488 1008 L 488 128 L 735 128 L 735 1008" stroke-miterlimit="10" stroke-width="2"/></g><g transform="translate(-230,-118) scale(1,1)"><g><path fill="none" stroke="none"/><text fill="#000000" stroke="none" font-family="Arial" font-size="13px" font-style="normal" font-weight="normal" text-decoration="none" x="588.213623046875" y="145">Сървър</text></g></g><g transform="translate(-230,-118) scale(1,1)"><rect fill="#ffffff" stroke="none" x="736" y="128" width="248" height="21"/></g><g transform="translate(-230,-118) scale(1,1)"><path fill="none" stroke="#000000" d="M 736 128 L 984 128 L 984 149 L 736 149 L 736 128 Z Z" stroke-miterlimit="10" stroke-width="2"/></g><g transform="translate(-230,-118) scale(1,1)"><path fill="none" stroke="#000000" d="M 736 1008 L 736 128 L 984 128 L 984 1008" stroke-miterlimit="10" stroke-width="2"/></g><g transform="translate(-230,-118) scale(1,1)"><g><path fill="none" stroke="none"/><text fill="#000000" stroke="none" font-family="Arial" font-size="13px" font-style="normal" font-weight="normal" text-decoration="none" x="817.318359375" y="145">База от данни</text></g></g><g transform="translate(-230,-118) scale(1,1)"><path fill="#C0C0C0" stroke="none" d="M 359 184.5 C 359 179.2532944 363.2532944 175 368.5 175 C 373.7467056 175 378 179.2532944 378 184.5 C 378 189.7467056 373.7467056 194 368.5 194 C 363.2532944 194 359 189.7467056 359 184.5 Z" opacity="0.2"/></g><g transform="translate(-230,-118) scale(1,1)"><path fill="#000000" stroke="none" d="M 352 177.5 C 352 172.2532944 356.2532944 168 361.5 168 C 366.7467056 168 371 172.2532944 371 177.5 C 371 182.7467056 366.7467056 187 361.5 187 C 356.2532944 187 352 182.7467056 352 177.5 Z"/></g><g transform="translate(-230,-118) scale(1,1)"><path fill="#C0C0C0" stroke="none" d="M 305 239 L 429 239 Q 439 239 439 249 L 439 269 Q 439 279 429 279 L 305 279 Q 295 279 295 269 L 295 249 Q 295 239 305 239 Z" opacity="0.2"/></g><g transform="translate(-230,-118) scale(1,1)"><path fill="#ffffff" stroke="none" d="M 298 232 L 422 232 Q 432 232 432 242 L 432 262 Q 432 272 422 272 L 298 272 Q 288 272 288 262 L 288 242 Q 288 232 298 232 Z"/></g><g transform="translate(-230,-118) scale(1,1)"><path fill="none" stroke="#000000" d="M 298 232 L 422 232 Q 432 232 432 242 L 432 262 Q 432 272 422 272 L 298 272 Q 288 272 288 262 L 288 242 Q 288 232 298 232 Z" stroke-miterlimit="10"/></g><g transform="translate(-230,-118) scale(1,1)"><g><path fill="none" stroke="none"/><text fill="#000000" stroke="none" font-family="Arial" font-size="13px" font-style="normal" font-weight="bold" text-decoration="none" x="307.120849609375" y="251.5">Вход в системата</text></g></g><g transform="translate(-230,-118) scale(1,1)"><path fill="#C0C0C0" stroke="none" d="M 305 295 L 428 295 Q 438 295 438 305 L 438 332 Q 438 342 428 342 L 305 342 Q 295 342 295 332 L 295 305 Q 295 295 305 295 Z" opacity="0.2"/></g><g transform="translate(-230,-118) scale(1,1)"><path fill="#ffffff" stroke="none" d="M 298 288 L 421 288 Q 431 288 431 298 L 431 325 Q 431 335 421 335 L 298 335 Q 288 335 288 325 L 288 298 Q 288 288 298 288 Z"/></g><g transform="translate(-230,-118) scale(1,1)"><path fill="none" stroke="#000000" d="M 298 288 L 421 288 Q 431 288 431 298 L 431 325 Q 431 335 421 335 L 298 335 Q 288 335 288 325 L 288 298 Q 288 288 298 288 Z" stroke-miterlimit="10"/></g><g transform="translate(-230,-118) scale(1,1)"><g><path fill="none" stroke="none"/><text fill="#000000" stroke="none" font-family="Arial" font-size="13px" font-style="normal" font-weight="bold" text-decoration="none" x="303.48193359375" y="307.5">Отваряне на книга</text></g></g><g transform="translate(-230,-118) scale(1,1)"><path fill="#C0C0C0" stroke="none" d="M 537 295 L 693 295 Q 703 295 703 305 L 703 338 Q 703 348 693 348 L 537 348 Q 527 348 527 338 L 527 305 Q 527 295 537 295 Z" opacity="0.2"/></g><g transform="translate(-230,-118) scale(1,1)"><path fill="#ffffff" stroke="none" d="M 530 288 L 686 288 Q 696 288 696 298 L 696 331 Q 696 341 686 341 L 530 341 Q 520 341 520 331 L 520 298 Q 520 288 530 288 Z"/></g><g transform="translate(-230,-118) scale(1,1)"><path fill="none" stroke="#000000" d="M 530 288 L 686 288 Q 696 288 696 298 L 696 331 Q 696 341 686 341 L 530 341 Q 520 341 520 331 L 520 298 Q 520 288 530 288 Z" stroke-miterlimit="10"/></g><g transform="translate(-230,-118) scale(1,1)"><g><path fill="none" stroke="none"/><text fill="#000000" stroke="none" font-family="Arial" font-size="13px" font-style="normal" font-weight="bold" text-decoration="none" x="532.320068359375" y="307.5">Поискване на списъкът с</text><text fill="#000000" stroke="none" font-family="Arial" font-size="13px" font-style="normal" font-weight="bold" text-decoration="none" x="541.76220703125" y="320.5">книги от базата данни</text></g></g><g transform="translate(-230,-118) scale(1,1)"><path fill="#C0C0C0" stroke="none" d="M 785 383 L 941 383 Q 951 383 951 393 L 951 428 Q 951 438 941 438 L 785 438 Q 775 438 775 428 L 775 393 Q 775 383 785 383 Z" opacity="0.2"/></g><g transform="translate(-230,-118) scale(1,1)"><path fill="#ffffff" stroke="none" d="M 778 376 L 934 376 Q 944 376 944 386 L 944 421 Q 944 431 934 431 L 778 431 Q 768 431 768 421 L 768 386 Q 768 376 778 376 Z"/></g><g transform="translate(-230,-118) scale(1,1)"><path fill="none" stroke="#000000" d="M 778 376 L 934 376 Q 944 376 944 386 L 944 421 Q 944 431 934 431 L 778 431 Q 768 431 768 421 L 768 386 Q 768 376 778 376 Z" stroke-miterlimit="10"/></g><g transform="translate(-230,-118) scale(1,1)"><g><path fill="none" stroke="none"/><text fill="#000000" stroke="none" font-family="Arial" font-size="13px" font-style="normal" font-weight="bold" text-decoration="none" x="784.350830078125" y="395.5">Връщане на списъкът с</text><text fill="#000000" stroke="none" font-family="Arial" font-size="13px" font-style="normal" font-weight="bold" text-decoration="none" x="839.93408203125" y="408.5">книги</text></g></g><g transform="translate(-230,-118) scale(1,1)"><path fill="#C0C0C0" stroke="none" d="M 351 979.5 C 351 972.59644 356.59644 967 363.5 967 C 370.40356 967 376 972.59644 376 979.5 C 376 986.40356 370.40356 992 363.5 992 C 356.59644 992 351 986.40356 351 979.5 Z" opacity="0.2"/></g><g transform="translate(-230,-118) scale(1,1)"><path fill="none" stroke="#000000" d="M 344 972.5 C 344 965.59644 349.59644 960 356.5 960 C 363.40356 960 369 965.59644 369 972.5 C 369 979.40356 363.40356 985 356.5 985 C 349.59644 985 344 979.40356 344 972.5 Z" stroke-miterlimit="10"/></g><g transform="translate(-230,-118) scale(1,1)"><path fill="#000000" stroke="none" d="M 349 972.5 C 349 968.357864 352.357864 965 356.5 965 C 360.642136 965 364 968.357864 364 972.5 C 364 976.642136 360.642136 980 356.5 980 C 352.357864 980 349 976.642136 349 972.5 Z"/></g><g transform="translate(-230,-118) scale(1,1)"><path fill="none" stroke="#000000" d="M 361 188 L 360 231" stroke-miterlimit="10"/></g><g transform="translate(-230,-118) scale(1,1)"><path fill="none" stroke="#000000" d="M 356.0278974963755 220.7422028826507 L 360 231 L 364.44465728583253 220.9379414824055" stroke-miterlimit="10"/></g><g transform="translate(-230,-118) scale(1,1)"><path fill="none" stroke="#000000" d="M 360 273 L 359 287" stroke-miterlimit="10"/></g><g transform="translate(-230,-118) scale(1,1)"><path fill="none" stroke="#000000" d="M 355.5252404957619 276.5632358277239 L 359 287 L 363.9228807114221 277.16306727169956" stroke-miterlimit="10"/></g><g transform="translate(-230,-118) scale(1,1)"><path fill="none" stroke="#000000" d="M 432 312 L 519 313" stroke-miterlimit="10"/></g><g transform="translate(-230,-118) scale(1,1)"><path fill="none" stroke="#000000" d="M 508.78961434563166 317.0924350683999 L 519 313 L 508.88637847683515 308.6739556536975" stroke-miterlimit="10"/></g><g transform="translate(-230,-118) scale(1,1)"><path fill="none" stroke="#000000" d="M 696 320 L 856 320 L 856 376" stroke-miterlimit="10"/></g><g transform="translate(-230,-118) scale(1,1)"><path fill="none" stroke="#000000" d="M 851.790482243984 365.83732514237585 L 856 376 L 860.209517756016 365.83732514237585" stroke-miterlimit="10"/></g><g transform="translate(-230,-118) scale(1,1)"><path fill="#C0C0C0" stroke="none" d="M 537 383 L 693 383 Q 703 383 703 393 L 703 428 Q 703 438 693 438 L 537 438 Q 527 438 527 428 L 527 393 Q 527 383 537 383 Z" opacity="0.2"/></g><g transform="translate(-230,-118) scale(1,1)"><path fill="#ffffff" stroke="none" d="M 530 376 L 686 376 Q 696 376 696 386 L 696 421 Q 696 431 686 431 L 530 431 Q 520 431 520 421 L 520 386 Q 520 376 530 376 Z"/></g><g transform="translate(-230,-118) scale(1,1)"><path fill="none" stroke="#000000" d="M 530 376 L 686 376 Q 696 376 696 386 L 696 421 Q 696 431 686 431 L 530 431 Q 520 431 520 421 L 520 386 Q 520 376 530 376 Z" stroke-miterlimit="10"/></g><g transform="translate(-230,-118) scale(1,1)"><g><path fill="none" stroke="none"/><text fill="#000000" stroke="none" font-family="Arial" font-size="13px" font-style="normal" font-weight="bold" text-decoration="none" x="557.83447265625" y="395.5">Форматиране на</text><text fill="#000000" stroke="none" font-family="Arial" font-size="13px" font-style="normal" font-weight="bold" text-decoration="none" x="550.956787109375" y="408.5">списъкът с книгите</text></g></g><g transform="translate(-230,-118) scale(1,1)"><path fill="#C0C0C0" stroke="none" d="M 305 383 L 429 383 Q 439 383 439 393 L 439 426 Q 439 436 429 436 L 305 436 Q 295 436 295 426 L 295 393 Q 295 383 305 383 Z" opacity="0.2"/></g><g transform="translate(-230,-118) scale(1,1)"><path fill="#ffffff" stroke="none" d="M 298 376 L 422 376 Q 432 376 432 386 L 432 419 Q 432 429 422 429 L 298 429 Q 288 429 288 419 L 288 386 Q 288 376 298 376 Z"/></g><g transform="translate(-230,-118) scale(1,1)"><path fill="none" stroke="#000000" d="M 298 376 L 422 376 Q 432 376 432 386 L 432 419 Q 432 429 422 429 L 298 429 Q 288 429 288 419 L 288 386 Q 288 376 298 376 Z" stroke-miterlimit="10"/></g><g transform="translate(-230,-118) scale(1,1)"><g><path fill="none" stroke="none"/><text fill="#000000" stroke="none" font-family="Arial" font-size="13px" font-style="normal" font-weight="bold" text-decoration="none" x="311.564208984375" y="395.5">Представяне на</text><text fill="#000000" stroke="none" font-family="Arial" font-size="13px" font-style="normal" font-weight="bold" text-decoration="none" x="310.770751953125" y="408.5">каталога с книги</text></g></g><g transform="translate(-230,-118) scale(1,1)"><path fill="#C0C0C0" stroke="none" d="M 305 479 L 429 479 Q 439 479 439 489 L 439 535 Q 439 545 429 545 L 305 545 Q 295 545 295 535 L 295 489 Q 295 479 305 479 Z" opacity="0.2"/></g><g transform="translate(-230,-118) scale(1,1)"><path fill="#ffffff" stroke="none" d="M 298 472 L 422 472 Q 432 472 432 482 L 432 528 Q 432 538 422 538 L 298 538 Q 288 538 288 528 L 288 482 Q 288 472 298 472 Z"/></g><g transform="translate(-230,-118) scale(1,1)"><path fill="none" stroke="#000000" d="M 298 472 L 422 472 Q 432 472 432 482 L 432 528 Q 432 538 422 538 L 298 538 Q 288 538 288 528 L 288 482 Q 288 472 298 472 Z" stroke-miterlimit="10"/></g><g transform="translate(-230,-118) scale(1,1)"><g><path fill="none" stroke="none"/><text fill="#000000" stroke="none" font-family="Arial" font-size="13px" font-style="normal" font-weight="bold" text-decoration="none" x="303.908935546875" y="491.5">Избиране на книга</text><text fill="#000000" stroke="none" font-family="Arial" font-size="13px" font-style="normal" font-weight="bold" text-decoration="none" x="312.364013671875" y="504.5">към която да се</text><text fill="#000000" stroke="none" font-family="Arial" font-size="13px" font-style="normal" font-weight="bold" text-decoration="none" x="314.579345703125" y="517.5">добави ревюто</text></g></g><g transform="translate(-230,-118) scale(1,1)"><path fill="none" stroke="#000000" d="M 768 403 L 696 403" stroke-miterlimit="10"/></g><g transform="translate(-230,-118) scale(1,1)"><path fill="none" stroke="#000000" d="M 706.1626748576241 398.790482243984 L 696 403 L 706.1626748576241 407.209517756016" stroke-miterlimit="10"/></g><g transform="translate(-230,-118) scale(1,1)"><path fill="none" stroke="#000000" d="M 520 403 L 432 403" stroke-miterlimit="10"/></g><g transform="translate(-230,-118) scale(1,1)"><path fill="none" stroke="#000000" d="M 442.16267485762415 398.790482243984 L 432 403 L 442.16267485762415 407.209517756016" stroke-miterlimit="10"/></g><g transform="translate(-230,-118) scale(1,1)"><path fill="none" stroke="#000000" d="M 360 429 L 360 472" stroke-miterlimit="10"/></g><g transform="translate(-230,-118) scale(1,1)"><path fill="none" stroke="#000000" d="M 355.790482243984 461.83732514237585 L 360 472 L 364.209517756016 461.83732514237585" stroke-miterlimit="10"/></g><g transform="translate(-230,-118) scale(1,1)"><path fill="#C0C0C0" stroke="none" d="M 537 767 L 693 767 Q 703 767 703 777 L 703 836 Q 703 846 693 846 L 537 846 Q 527 846 527 836 L 527 777 Q 527 767 537 767 Z" opacity="0.2"/></g><g transform="translate(-230,-118) scale(1,1)"><path fill="#ffffff" stroke="none" d="M 530 760 L 686 760 Q 696 760 696 770 L 696 829 Q 696 839 686 839 L 530 839 Q 520 839 520 829 L 520 770 Q 520 760 530 760 Z"/></g><g transform="translate(-230,-118) scale(1,1)"><path fill="none" stroke="#000000" d="M 530 760 L 686 760 Q 696 760 696 770 L 696 829 Q 696 839 686 839 L 530 839 Q 520 839 520 829 L 520 770 Q 520 760 530 760 Z" stroke-miterlimit="10"/></g><g transform="translate(-230,-118) scale(1,1)"><g><path fill="none" stroke="none"/><text fill="#000000" stroke="none" font-family="Arial" font-size="13px" font-style="normal" font-weight="bold" text-decoration="none" x="542.444580078125" y="779.5">Изпращане на заявка</text><text fill="#000000" stroke="none" font-family="Arial" font-size="13px" font-style="normal" font-weight="bold" text-decoration="none" x="546.30712890625" y="792.5">към базата данни за</text><text fill="#000000" stroke="none" font-family="Arial" font-size="13px" font-style="normal" font-weight="bold" text-decoration="none" x="539.74365234375" y="805.5">добавяне на ревю към</text><text fill="#000000" stroke="none" font-family="Arial" font-size="13px" font-style="normal" font-weight="bold" text-decoration="none" x="585.716552734375" y="818.5">книгата</text></g></g><g transform="translate(-230,-118) scale(1,1)"><path fill="#C0C0C0" stroke="none" d="M 305 575 L 429 575 Q 439 575 439 585 L 439 628 Q 439 638 429 638 L 305 638 Q 295 638 295 628 L 295 585 Q 295 575 305 575 Z" opacity="0.2"/></g><g transform="translate(-230,-118) scale(1,1)"><path fill="#ffffff" stroke="none" d="M 298 568 L 422 568 Q 432 568 432 578 L 432 621 Q 432 631 422 631 L 298 631 Q 288 631 288 621 L 288 578 Q 288 568 298 568 Z"/></g><g transform="translate(-230,-118) scale(1,1)"><path fill="none" stroke="#000000" d="M 298 568 L 422 568 Q 432 568 432 578 L 432 621 Q 432 631 422 631 L 298 631 Q 288 631 288 621 L 288 578 Q 288 568 298 568 Z" stroke-miterlimit="10"/></g><g transform="translate(-230,-118) scale(1,1)"><g><path fill="none" stroke="none"/><text fill="#000000" stroke="none" font-family="Arial" font-size="13px" font-style="normal" font-weight="bold" text-decoration="none" x="304.876953125" y="587.5">Писане на ревюто</text><text fill="#000000" stroke="none" font-family="Arial" font-size="13px" font-style="normal" font-weight="bold" text-decoration="none" x="324.53564453125" y="600.5">към книгата</text></g></g><g transform="translate(-230,-118) scale(1,1)"><path fill="none" stroke="#000000" d="M 360 539 L 360 567" stroke-miterlimit="10"/></g><g transform="translate(-230,-118) scale(1,1)"><path fill="none" stroke="#000000" d="M 355.790482243984 556.8373251423759 L 360 567 L 364.209517756016 556.8373251423759" stroke-miterlimit="10"/></g><g transform="translate(-230,-118) scale(1,1)"><path fill="#C0C0C0" stroke="none" d="M 785 783 L 941 783 Q 951 783 951 793 L 951 826 Q 951 836 941 836 L 785 836 Q 775 836 775 826 L 775 793 Q 775 783 785 783 Z" opacity="0.2"/></g><g transform="translate(-230,-118) scale(1,1)"><path fill="#ffffff" stroke="none" d="M 778 776 L 934 776 Q 944 776 944 786 L 944 819 Q 944 829 934 829 L 778 829 Q 768 829 768 819 L 768 786 Q 768 776 778 776 Z"/></g><g transform="translate(-230,-118) scale(1,1)"><path fill="none" stroke="#000000" d="M 778 776 L 934 776 Q 944 776 944 786 L 944 819 Q 944 829 934 829 L 778 829 Q 768 829 768 819 L 768 786 Q 768 776 778 776 Z" stroke-miterlimit="10"/></g><g transform="translate(-230,-118) scale(1,1)"><g><path fill="none" stroke="none"/><text fill="#000000" stroke="none" font-family="Arial" font-size="13px" font-style="normal" font-weight="bold" text-decoration="none" x="782.4560546875" y="795.5">Запазване на ревюто на</text><text fill="#000000" stroke="none" font-family="Arial" font-size="13px" font-style="normal" font-weight="bold" text-decoration="none" x="786.540771484375" y="808.5">книгата в базата данни</text></g></g><g transform="translate(-230,-118) scale(1,1)"><path fill="#C0C0C0" stroke="none" d="M 583 699.5 L 611.5 671 L 639 699.5 L 611.5 727 L 583 699.5" opacity="0.2"/></g><g transform="translate(-230,-118) scale(1,1)"><path fill="#ffffff" stroke="none" d="M 576 692 L 604 664 L 632 692 L 604 720 L 576 692"/></g><g transform="translate(-230,-118) scale(1,1)"><path fill="none" stroke="#000000" d="M 576 692 L 604 664 L 632 692 L 604 720 L 576 692 L 576 692" stroke-miterlimit="10"/></g><g transform="translate(-230,-118) scale(1,1)"><path fill="none" stroke="#000000" d="M 605 720 L 605 760" stroke-miterlimit="10"/></g><g transform="translate(-230,-118) scale(1,1)"><path fill="none" stroke="#000000" d="M 600.790482243984 749.8373251423759 L 605 760 L 609.209517756016 749.8373251423759" stroke-miterlimit="10"/></g><g transform="translate(-230,-118) scale(1,1)"><g><path fill="none" stroke="none"/><text fill="#000000" stroke="none" font-family="Arial" font-size="13px" font-style="normal" font-weight="normal" text-decoration="none" x="620.5" y="747.5">Валидно</text></g></g><g transform="translate(-230,-118) scale(1,1)"><path fill="#C0C0C0" stroke="none" d="M 545 575 L 684 575 Q 694 575 694 585 L 694 618 Q 694 628 684 628 L 545 628 Q 535 628 535 618 L 535 585 Q 535 575 545 575 Z" opacity="0.2"/></g><g transform="translate(-230,-118) scale(1,1)"><path fill="#ffffff" stroke="none" d="M 538 568 L 677 568 Q 687 568 687 578 L 687 611 Q 687 621 677 621 L 538 621 Q 528 621 528 611 L 528 578 Q 528 568 538 568 Z"/></g><g transform="translate(-230,-118) scale(1,1)"><path fill="none" stroke="#000000" d="M 538 568 L 677 568 Q 687 568 687 578 L 687 611 Q 687 621 677 621 L 538 621 Q 528 621 528 611 L 528 578 Q 528 568 538 568 Z" stroke-miterlimit="10"/></g><g transform="translate(-230,-118) scale(1,1)"><g><path fill="none" stroke="none"/><text fill="#000000" stroke="none" font-family="Arial" font-size="13px" font-style="normal" font-weight="bold" text-decoration="none" x="561.25732421875" y="587.5">Валидиране на</text><text fill="#000000" stroke="none" font-family="Arial" font-size="13px" font-style="normal" font-weight="bold" text-decoration="none" x="585.565673828125" y="600.5">ревюто</text></g></g><g transform="translate(-230,-118) scale(1,1)"><path fill="none" stroke="#000000" d="M 606 622 L 605 663" stroke-miterlimit="10"/></g><g transform="translate(-230,-118) scale(1,1)"><path fill="none" stroke="#000000" d="M 601.0395301973742 652.7377059610197 L 605 663 L 609.456062651372 652.9429872403856" stroke-miterlimit="10"/></g><g transform="translate(-230,-118) scale(1,1)"><path fill="none" stroke="#000000" d="M 576 681 L 360 681 L 360 631" stroke-miterlimit="10"/></g><g transform="translate(-230,-118) scale(1,1)"><path fill="none" stroke="#000000" d="M 364.209517756016 641.1626748576241 L 360 631 L 355.790482243984 641.1626748576241" stroke-miterlimit="10"/></g><g transform="translate(-230,-118) scale(1,1)"><g><path fill="none" stroke="none"/><text fill="#000000" stroke="none" font-family="Arial" font-size="13px" font-style="normal" font-weight="normal" text-decoration="none" x="311.5" y="708.5">Невалидно</text></g></g><g transform="translate(-230,-118) scale(1,1)"><path fill="none" stroke="#000000" d="M 432 598 L 528 598" stroke-miterlimit="10"/></g><g transform="translate(-230,-118) scale(1,1)"><path fill="none" stroke="#000000" d="M 517.8373251423759 602.209517756016 L 528 598 L 517.8373251423758 593.790482243984" stroke-miterlimit="10"/></g><g transform="translate(-230,-118) scale(1,1)"><path fill="none" stroke="#000000" d="M 696 801 L 768 801" stroke-miterlimit="10"/></g><g transform="translate(-230,-118) scale(1,1)"><path fill="none" stroke="#000000" d="M 757.8373251423759 805.209517756016 L 768 801 L 757.8373251423758 796.790482243984" stroke-miterlimit="10"/></g><g transform="translate(-230,-118) scale(1,1)"><path fill="#C0C0C0" stroke="none" d="M 793 863 L 940 863 Q 950 863 950 873 L 950 908 Q 950 918 940 918 L 793 918 Q 783 918 783 908 L 783 873 Q 783 863 793 863 Z" opacity="0.2"/></g><g transform="translate(-230,-118) scale(1,1)"><path fill="#ffffff" stroke="none" d="M 786 856 L 933 856 Q 943 856 943 866 L 943 901 Q 943 911 933 911 L 786 911 Q 776 911 776 901 L 776 866 Q 776 856 786 856 Z"/></g><g transform="translate(-230,-118) scale(1,1)"><path fill="none" stroke="#000000" d="M 786 856 L 933 856 Q 943 856 943 866 L 943 901 Q 943 911 933 911 L 786 911 Q 776 911 776 901 L 776 866 Q 776 856 786 856 Z" stroke-miterlimit="10"/></g><g transform="translate(-230,-118) scale(1,1)"><g><path fill="none" stroke="none"/><text fill="#000000" stroke="none" font-family="Arial" font-size="13px" font-style="normal" font-weight="bold" text-decoration="none" x="797.600830078125" y="875.5">Връщане на отговор</text></g></g><g transform="translate(-230,-118) scale(1,1)"><path fill="#C0C0C0" stroke="none" d="M 305 863 L 437 863 Q 447 863 447 873 L 447 908 Q 447 918 437 918 L 305 918 Q 295 918 295 908 L 295 873 Q 295 863 305 863 Z" opacity="0.2"/></g><g transform="translate(-230,-118) scale(1,1)"><path fill="#ffffff" stroke="none" d="M 298 856 L 430 856 Q 440 856 440 866 L 440 901 Q 440 911 430 911 L 298 911 Q 288 911 288 901 L 288 866 Q 288 856 298 856 Z"/></g><g transform="translate(-230,-118) scale(1,1)"><path fill="none" stroke="#000000" d="M 298 856 L 430 856 Q 440 856 440 866 L 440 901 Q 440 911 430 911 L 298 911 Q 288 911 288 901 L 288 866 Q 288 856 298 856 Z" stroke-miterlimit="10"/></g><g transform="translate(-230,-118) scale(1,1)"><g><path fill="none" stroke="none"/><text fill="#000000" stroke="none" font-family="Arial" font-size="13px" font-style="normal" font-weight="bold" text-decoration="none" x="322.994140625" y="875.5">Показване на</text><text fill="#000000" stroke="none" font-family="Arial" font-size="13px" font-style="normal" font-weight="bold" text-decoration="none" x="321.04541015625" y="888.5">готовото ревю</text></g></g><g transform="translate(-230,-118) scale(1,1)"><path fill="none" stroke="#000000" d="M 857 829 L 857 856" stroke-miterlimit="10"/></g><g transform="translate(-230,-118) scale(1,1)"><path fill="none" stroke="#000000" d="M 852.790482243984 845.8373251423759 L 857 856 L 861.209517756016 845.8373251423759" stroke-miterlimit="10"/></g><g transform="translate(-230,-118) scale(1,1)"><path fill="none" stroke="#000000" d="M 776 883 L 440 883" stroke-miterlimit="10"/></g><g transform="translate(-230,-118) scale(1,1)"><path fill="none" stroke="#000000" d="M 450.16267485762415 878.790482243984 L 440 883 L 450.16267485762415 887.209517756016" stroke-miterlimit="10"/></g><g transform="translate(-230,-118) scale(1,1)"><path fill="none" stroke="#000000" d="M 361 912 L 357 959" stroke-miterlimit="10"/></g><g transform="translate(-230,-118) scale(1,1)"><path fill="none" stroke="#000000" d="M 353.6674380009495 948.5169646322029 L 357 959 L 362.05614820773457 949.230897415759" stroke-miterlimit="10"/></g></g></svg>