<svg version="1.1" xmlns="http://www.w3.org/2000/svg" xmlns:xlink="http://www.w3.org/1999/xlink" width="755" height="884"><defs/><g><g transform="translate(-166,-54) scale(1,1)"><rect fill="#ffffff" stroke="none" x="424" y="64" width="247" height="21"/></g><g transform="translate(-166,-54) scale(1,1)"><path fill="none" stroke="#000000" d="M 424 64 L 671 64 L 671 85 L 424 85 L 424 64 Z Z" stroke-miterlimit="10" stroke-width="2"/></g><g transform="translate(-166,-54) scale(1,1)"><path fill="none" stroke="#000000" d="M 424 928 L 424 64 L 671 64 L 671 928" stroke-miterlimit="10" stroke-width="2"/></g><g transform="translate(-166,-54) scale(1,1)"><g><path fill="none" stroke="none"/><text fill="#000000" stroke="none" font-family="Arial" font-size="13px" font-style="normal" font-weight="normal" text-decoration="none" x="524.213623046875" y="81">Сървър</text></g></g><g transform="translate(-166,-54) scale(1,1)"><rect fill="#ffffff" stroke="none" x="672" y="64" width="239" height="21"/></g><g transform="translate(-166,-54) scale(1,1)"><path fill="none" stroke="#000000" d="M 672 64 L 911 64 L 911 85 L 672 85 L 672 64 Z Z" stroke-miterlimit="10" stroke-width="2"/></g><g transform="translate(-166,-54) scale(1,1)"><path fill="none" stroke="#000000" d="M 672 928 L 672 64 L 911 64 L 911 928" stroke-miterlimit="10" stroke-width="2"/></g><g transform="translate(-166,-54) scale(1,1)"><g><path fill="none" stroke="none"/><text fill="#000000" stroke="none" font-family="Arial" font-size="13px" font-style="normal" font-weight="normal" text-decoration="none" x="748.818359375" y="81">База от данни</text></g></g><g transform="translate(-166,-54) scale(1,1)"><rect fill="#ffffff" stroke="none" x="176" y="64" width="247" height="21"/></g><g transform="translate(-166,-54) scale(1,1)"><path fill="none" stroke="#000000" d="M 176 64 L 423 64 L 423 85 L 176 85 L 176 64 Z Z" stroke-miterlimit="10" stroke-width="2"/></g><g transform="translate(-166,-54) scale(1,1)"><path fill="none" stroke="#000000" d="M 176 928 L 176 64 L 423 64 L 423 928" stroke-miterlimit="10" stroke-width="2"/></g><g transform="translate(-166,-54) scale(1,1)"><g><path fill="none" stroke="none"/><text fill="#000000" stroke="none" font-family="Arial" font-size="13px" font-style="normal" font-weight="normal" text-decoration="none" x="293" y="81">UI</text></g></g><g transform="translate(-166,-54) scale(1,1)"><path fill="#C0C0C0" stroke="none" d="M 295 112.5 C 295 107.2532944 299.2532944 103 304.5 103 C 309.7467056 103 314 107.2532944 314 112.5 C 314 117.7467056 309.7467056 122 304.5 122 C 299.2532944 122 295 117.7467056 295 112.5 Z" opacity="0.2"/></g><g transform="translate(-166,-54) scale(1,1)"><path fill="#000000" stroke="none" d="M 288 105.5 C 288 100.2532944 292.2532944 96 297.5 96 C 302.7467056 96 307 100.2532944 307 105.5 C 307 110.7467056 302.7467056 115 297.5 115 C 292.2532944 115 288 110.7467056 288 105.5 Z"/></g><g transform="translate(-166,-54) scale(1,1)"><path fill="#C0C0C0" stroke="none" d="M 257 183 L 359.5087890625 183 Q 369.5087890625 183 369.5087890625 193 L 369.5087890625 213 Q 369.5087890625 223 359.5087890625 223 L 257 223 Q 247 223 247 213 L 247 193 Q 247 183 257 183 Z" opacity="0.2"/></g><g transform="translate(-166,-54) scale(1,1)"><path fill="#ffffff" stroke="none" d="M 250 176 L 352.5087890625 176 Q 362.5087890625 176 362.5087890625 186 L 362.5087890625 206 Q 362.5087890625 216 352.5087890625 216 L 250 216 Q 240 216 240 206 L 240 186 Q 240 176 250 176 Z"/></g><g transform="translate(-166,-54) scale(1,1)"><path fill="none" stroke="#000000" d="M 250 176 L 352.5087890625 176 Q 362.5087890625 176 362.5087890625 186 L 362.5087890625 206 Q 362.5087890625 216 352.5087890625 216 L 250 216 Q 240 216 240 206 L 240 186 Q 240 176 250 176 Z" stroke-miterlimit="10"/></g><g transform="translate(-166,-54) scale(1,1)"><g><path fill="none" stroke="none"/><text fill="#000000" stroke="none" font-family="Arial" font-size="13px" font-style="normal" font-weight="bold" text-decoration="none" x="248.375244140625" y="195.5">Вход в системата</text></g></g><g transform="translate(-166,-54) scale(1,1)"><path fill="none" stroke="#000000" d="M 297 115 L 297 176" stroke-miterlimit="10"/></g><g transform="translate(-166,-54) scale(1,1)"><path fill="none" stroke="#000000" d="M 292.790482243984 165.83732514237585 L 297 176 L 301.209517756016 165.83732514237585" stroke-miterlimit="10"/></g><g transform="translate(-166,-54) scale(1,1)"><path fill="#C0C0C0" stroke="none" d="M 295 907.5 C 295 900.59644 300.59644 895 307.5 895 C 314.40356 895 320 900.59644 320 907.5 C 320 914.40356 314.40356 920 307.5 920 C 300.59644 920 295 914.40356 295 907.5 Z" opacity="0.2"/></g><g transform="translate(-166,-54) scale(1,1)"><path fill="none" stroke="#000000" d="M 288 900.5 C 288 893.59644 293.59644 888 300.5 888 C 307.40356 888 313 893.59644 313 900.5 C 313 907.40356 307.40356 913 300.5 913 C 293.59644 913 288 907.40356 288 900.5 Z" stroke-miterlimit="10"/></g><g transform="translate(-166,-54) scale(1,1)"><path fill="#000000" stroke="none" d="M 293 900.5 C 293 896.357864 296.357864 893 300.5 893 C 304.642136 893 308 896.357864 308 900.5 C 308 904.642136 304.642136 908 300.5 908 C 296.357864 908 293 904.642136 293 900.5 Z"/></g><g transform="translate(-166,-54) scale(1,1)"><path fill="none" stroke="#000000" d="M 304 318 L 304 343" stroke-miterlimit="10"/></g><g transform="translate(-166,-54) scale(1,1)"><path fill="none" stroke="#000000" d="M 299.790482243984 332.83732514237585 L 304 343 L 308.209517756016 332.83732514237585" stroke-miterlimit="10"/></g><g transform="translate(-166,-54) scale(1,1)"><path fill="#C0C0C0" stroke="none" d="M 519 475.5 L 555.5 447 L 591 475.5 L 555.5 503 L 519 475.5" opacity="0.2"/></g><g transform="translate(-166,-54) scale(1,1)"><path fill="#ffffff" stroke="none" d="M 512 468 L 548 440 L 584 468 L 548 496 L 512 468"/></g><g transform="translate(-166,-54) scale(1,1)"><path fill="none" stroke="#000000" d="M 512 468 L 548 440 L 584 468 L 548 496 L 512 468 L 512 468" stroke-miterlimit="10"/></g><g transform="translate(-166,-54) scale(1,1)"><path fill="none" stroke="#000000" d="M 548 406 L 548 439" stroke-miterlimit="10"/></g><g transform="translate(-166,-54) scale(1,1)"><path fill="none" stroke="#000000" d="M 543.790482243984 428.83732514237585 L 548 439 L 552.209517756016 428.83732514237585" stroke-miterlimit="10"/></g><g transform="translate(-166,-54) scale(1,1)"><path fill="#C0C0C0" stroke="none" d="M 473 543 L 637 543 Q 647 543 647 553 L 647 586 Q 647 596 637 596 L 473 596 Q 463 596 463 586 L 463 553 Q 463 543 473 543 Z" opacity="0.2"/></g><g transform="translate(-166,-54) scale(1,1)"><path fill="#ffffff" stroke="none" d="M 466 536 L 630 536 Q 640 536 640 546 L 640 579 Q 640 589 630 589 L 466 589 Q 456 589 456 579 L 456 546 Q 456 536 466 536 Z"/></g><g transform="translate(-166,-54) scale(1,1)"><path fill="none" stroke="#000000" d="M 466 536 L 630 536 Q 640 536 640 546 L 640 579 Q 640 589 630 589 L 466 589 Q 456 589 456 579 L 456 546 Q 456 536 466 536 Z" stroke-miterlimit="10"/></g><g transform="translate(-166,-54) scale(1,1)"><g><path fill="none" stroke="none"/><text fill="#000000" stroke="none" font-family="Arial" font-size="13px" font-style="normal" font-weight="bold" text-decoration="none" x="469.263671875" y="555.5">Изпращане на заявка към</text><text fill="#000000" stroke="none" font-family="Arial" font-size="13px" font-style="normal" font-weight="bold" text-decoration="none" x="507.88916015625" y="568.5">базата данни</text></g></g><g transform="translate(-166,-54) scale(1,1)"><path fill="none" stroke="#000000" d="M 548 497 L 548 535" stroke-miterlimit="10"/></g><g transform="translate(-166,-54) scale(1,1)"><path fill="none" stroke="#000000" d="M 543.790482243984 524.8373251423759 L 548 535 L 552.209517756016 524.8373251423759" stroke-miterlimit="10"/></g><g transform="translate(-166,-54) scale(1,1)"><g><path fill="none" stroke="none"/><text fill="#000000" stroke="none" font-family="Arial" font-size="13px" font-style="normal" font-weight="normal" text-decoration="none" x="550.5" y="521.5">Валидни</text></g></g><g transform="translate(-166,-54) scale(1,1)"><path fill="none" stroke="#000000" d="M 512 454 L 304 454 L 304 410" stroke-miterlimit="10"/></g><g transform="translate(-166,-54) scale(1,1)"><path fill="none" stroke="#000000" d="M 308.209517756016 420.16267485762415 L 304 410 L 299.790482243984 420.16267485762415" stroke-miterlimit="10"/></g><g transform="translate(-166,-54) scale(1,1)"><g><path fill="none" stroke="none"/><text fill="#000000" stroke="none" font-family="Arial" font-size="13px" font-style="normal" font-weight="normal" text-decoration="none" x="248.5" y="484.5">Невалидни</text></g></g><g transform="translate(-166,-54) scale(1,1)"><path fill="#C0C0C0" stroke="none" d="M 241 351 L 381 351 Q 391 351 391 361 L 391 407 Q 391 417 381 417 L 241 417 Q 231 417 231 407 L 231 361 Q 231 351 241 351 Z" opacity="0.2"/></g><g transform="translate(-166,-54) scale(1,1)"><path fill="#ffffff" stroke="none" d="M 234 344 L 374 344 Q 384 344 384 354 L 384 400 Q 384 410 374 410 L 234 410 Q 224 410 224 400 L 224 354 Q 224 344 234 344 Z"/></g><g transform="translate(-166,-54) scale(1,1)"><path fill="none" stroke="#000000" d="M 234 344 L 374 344 Q 384 344 384 354 L 384 400 Q 384 410 374 410 L 234 410 Q 224 410 224 400 L 224 354 Q 224 344 234 344 Z" stroke-miterlimit="10"/></g><g transform="translate(-166,-54) scale(1,1)"><g><path fill="none" stroke="none"/><text fill="#000000" stroke="none" font-family="Arial" font-size="13px" font-style="normal" font-weight="bold" text-decoration="none" x="260.708984375" y="363.5">Въвеждане на</text><text fill="#000000" stroke="none" font-family="Arial" font-size="13px" font-style="normal" font-weight="bold" text-decoration="none" x="241.58349609375" y="376.5">критерии за търсене</text><text fill="#000000" stroke="none" font-family="Arial" font-size="13px" font-style="normal" font-weight="bold" text-decoration="none" x="279.082275390625" y="389.5">на книга</text></g></g><g transform="translate(-166,-54) scale(1,1)"><path fill="#C0C0C0" stroke="none" d="M 225 271 L 397 271 Q 407 271 407 281 L 407 314 Q 407 324 397 324 L 225 324 Q 215 324 215 314 L 215 281 Q 215 271 225 271 Z" opacity="0.2"/></g><g transform="translate(-166,-54) scale(1,1)"><path fill="#ffffff" stroke="none" d="M 218 264 L 390 264 Q 400 264 400 274 L 400 307 Q 400 317 390 317 L 218 317 Q 208 317 208 307 L 208 274 Q 208 264 218 264 Z"/></g><g transform="translate(-166,-54) scale(1,1)"><path fill="none" stroke="#000000" d="M 218 264 L 390 264 Q 400 264 400 274 L 400 307 Q 400 317 390 317 L 218 317 Q 208 317 208 307 L 208 274 Q 208 264 218 264 Z" stroke-miterlimit="10"/></g><g transform="translate(-166,-54) scale(1,1)"><g><path fill="none" stroke="none"/><text fill="#000000" stroke="none" font-family="Arial" font-size="13px" font-style="normal" font-weight="bold" text-decoration="none" x="220.296630859375" y="283.5">Отваряне на прозорецът за</text><text fill="#000000" stroke="none" font-family="Arial" font-size="13px" font-style="normal" font-weight="bold" text-decoration="none" x="252.55224609375" y="296.5">търсене на книга</text></g></g><g transform="translate(-166,-54) scale(1,1)"><path fill="none" stroke="#000000" d="M 302 217 L 303 263" stroke-miterlimit="10"/></g><g transform="translate(-166,-54) scale(1,1)"><path fill="none" stroke="#000000" d="M 298.57060105042297 252.9312153193404 L 303 263 L 306.9876478921751 252.74823604017186" stroke-miterlimit="10"/></g><g transform="translate(-166,-54) scale(1,1)"><path fill="#C0C0C0" stroke="none" d="M 473 359 L 637 359 Q 647 359 647 369 L 647 402 Q 647 412 637 412 L 473 412 Q 463 412 463 402 L 463 369 Q 463 359 473 359 Z" opacity="0.2"/></g><g transform="translate(-166,-54) scale(1,1)"><path fill="#ffffff" stroke="none" d="M 466 352 L 630 352 Q 640 352 640 362 L 640 395 Q 640 405 630 405 L 466 405 Q 456 405 456 395 L 456 362 Q 456 352 466 352 Z"/></g><g transform="translate(-166,-54) scale(1,1)"><path fill="none" stroke="#000000" d="M 466 352 L 630 352 Q 640 352 640 362 L 640 395 Q 640 405 630 405 L 466 405 Q 456 405 456 395 L 456 362 Q 456 352 466 352 Z" stroke-miterlimit="10"/></g><g transform="translate(-166,-54) scale(1,1)"><g><path fill="none" stroke="none"/><text fill="#000000" stroke="none" font-family="Arial" font-size="13px" font-style="normal" font-weight="bold" text-decoration="none" x="502.249267578125" y="371.5">Проверка дали</text><text fill="#000000" stroke="none" font-family="Arial" font-size="13px" font-style="normal" font-weight="bold" text-decoration="none" x="478.356689453125" y="384.5">критериите за валидни</text></g></g><g transform="translate(-166,-54) scale(1,1)"><path fill="none" stroke="#000000" d="M 385 377 L 455 378" stroke-miterlimit="10"/></g><g transform="translate(-166,-54) scale(1,1)"><path fill="none" stroke="#000000" d="M 444.7782321587568 382.06392202185606 L 455 378 L 444.8984918238746 373.6457454636101" stroke-miterlimit="10"/></g><g transform="translate(-166,-54) scale(1,1)"><path fill="#C0C0C0" stroke="none" d="M 705 543 L 877 543 Q 887 543 887 553 L 887 599 Q 887 609 877 609 L 705 609 Q 695 609 695 599 L 695 553 Q 695 543 705 543 Z" opacity="0.2"/></g><g transform="translate(-166,-54) scale(1,1)"><path fill="#ffffff" stroke="none" d="M 698 536 L 870 536 Q 880 536 880 546 L 880 592 Q 880 602 870 602 L 698 602 Q 688 602 688 592 L 688 546 Q 688 536 698 536 Z"/></g><g transform="translate(-166,-54) scale(1,1)"><path fill="none" stroke="#000000" d="M 698 536 L 870 536 Q 880 536 880 546 L 880 592 Q 880 602 870 602 L 698 602 Q 688 602 688 592 L 688 546 Q 688 536 698 536 Z" stroke-miterlimit="10"/></g><g transform="translate(-166,-54) scale(1,1)"><g><path fill="none" stroke="none"/><text fill="#000000" stroke="none" font-family="Arial" font-size="13px" font-style="normal" font-weight="bold" text-decoration="none" x="702.740478515625" y="555.5">Търсене дали съответната</text><text fill="#000000" stroke="none" font-family="Arial" font-size="13px" font-style="normal" font-weight="bold" text-decoration="none" x="703.14990234375" y="568.5">книга съществува в базата</text><text fill="#000000" stroke="none" font-family="Arial" font-size="13px" font-style="normal" font-weight="bold" text-decoration="none" x="757.527099609375" y="581.5">от данни</text></g></g><g transform="translate(-166,-54) scale(1,1)"><path fill="none" stroke="#000000" d="M 641 565 L 687 566" stroke-miterlimit="10"/></g><g transform="translate(-166,-54) scale(1,1)"><path fill="none" stroke="#000000" d="M 676.7482360401718 569.9876478921751 L 687 566 L 676.9312153193404 561.570601050423" stroke-miterlimit="10"/></g><g transform="translate(-166,-54) scale(1,1)"><path fill="#C0C0C0" stroke="none" d="M 751 707.5 L 787.5 671 L 823 707.5 L 787.5 743 L 751 707.5" opacity="0.2"/></g><g transform="translate(-166,-54) scale(1,1)"><path fill="#ffffff" stroke="none" d="M 744 700 L 780 664 L 816 700 L 780 736 L 744 700"/></g><g transform="translate(-166,-54) scale(1,1)"><path fill="none" stroke="#000000" d="M 744 700 L 780 664 L 816 700 L 780 736 L 744 700 L 744 700" stroke-miterlimit="10"/></g><g transform="translate(-166,-54) scale(1,1)"><path fill="none" stroke="#000000" d="M 783 603 L 781 663" stroke-miterlimit="10"/></g><g transform="translate(-166,-54) scale(1,1)"><path fill="none" stroke="#000000" d="M 777.1313867055028 652.7027270028594 L 781 663 L 785.5457488696798 652.9832057416654" stroke-miterlimit="10"/></g><g transform="translate(-166,-54) scale(1,1)"><path fill="#C0C0C0" stroke="none" d="M 473 807 L 628 807 Q 638 807 638 817 L 638 844 Q 638 854 628 854 L 473 854 Q 463 854 463 844 L 463 817 Q 463 807 473 807 Z" opacity="0.2"/></g><g transform="translate(-166,-54) scale(1,1)"><path fill="#ffffff" stroke="none" d="M 466 800 L 621 800 Q 631 800 631 810 L 631 837 Q 631 847 621 847 L 466 847 Q 456 847 456 837 L 456 810 Q 456 800 466 800 Z"/></g><g transform="translate(-166,-54) scale(1,1)"><path fill="none" stroke="#000000" d="M 466 800 L 621 800 Q 631 800 631 810 L 631 837 Q 631 847 621 847 L 466 847 Q 456 847 456 837 L 456 810 Q 456 800 466 800 Z" stroke-miterlimit="10"/></g><g transform="translate(-166,-54) scale(1,1)"><g><path fill="none" stroke="none"/><text fill="#000000" stroke="none" font-family="Arial" font-size="13px" font-style="normal" font-weight="bold" text-decoration="none" x="471.90478515625" y="819.5">Връща търсената книга</text></g></g><g transform="translate(-166,-54) scale(1,1)"><path fill="#C0C0C0" stroke="none" d="M 473 687 L 628 687 Q 638 687 638 697 L 638 724 Q 638 734 628 734 L 473 734 Q 463 734 463 724 L 463 697 Q 463 687 473 687 Z" opacity="0.2"/></g><g transform="translate(-166,-54) scale(1,1)"><path fill="#ffffff" stroke="none" d="M 466 680 L 621 680 Q 631 680 631 690 L 631 717 Q 631 727 621 727 L 466 727 Q 456 727 456 717 L 456 690 Q 456 680 466 680 Z"/></g><g transform="translate(-166,-54) scale(1,1)"><path fill="none" stroke="#000000" d="M 466 680 L 621 680 Q 631 680 631 690 L 631 717 Q 631 727 621 727 L 466 727 Q 456 727 456 717 L 456 690 Q 456 680 466 680 Z" stroke-miterlimit="10"/></g><g transform="translate(-166,-54) scale(1,1)"><g><path fill="none" stroke="none"/><text fill="#000000" stroke="none" font-family="Arial" font-size="13px" font-style="normal" font-weight="bold" text-decoration="none" x="471.876220703125" y="699.5">Връща празен резултат</text></g></g><g transform="translate(-166,-54) scale(1,1)"><path fill="none" stroke="#000000" d="M 743 700 L 632 702" stroke-miterlimit="10"/></g><g transform="translate(-166,-54) scale(1,1)"><path fill="none" stroke="#000000" d="M 642.0851907502848 697.6080838429713 L 632 702 L 642.236860466124 706.0257530720485" stroke-miterlimit="10"/></g><g transform="translate(-166,-54) scale(1,1)"><g><path fill="none" stroke="none"/><text fill="#000000" stroke="none" font-family="Arial" font-size="13px" font-style="normal" font-weight="normal" text-decoration="none" x="641.5" y="721.5">Не е намерена</text></g></g><g transform="translate(-166,-54) scale(1,1)"><path fill="none" stroke="#000000" d="M 780 736 L 780 823 L 631 823" stroke-miterlimit="10"/></g><g transform="translate(-166,-54) scale(1,1)"><path fill="none" stroke="#000000" d="M 641.1626748576241 818.790482243984 L 631 823 L 641.1626748576241 827.209517756016" stroke-miterlimit="10"/></g><g transform="translate(-166,-54) scale(1,1)"><g><path fill="none" stroke="none"/><text fill="#000000" stroke="none" font-family="Arial" font-size="13px" font-style="normal" font-weight="normal" text-decoration="none" x="742.5" y="844.5">Намерена е</text></g></g><g transform="translate(-166,-54) scale(1,1)"><path fill="#C0C0C0" stroke="none" d="M 217 743 L 397 743 Q 407 743 407 753 L 407 786 Q 407 796 397 796 L 217 796 Q 207 796 207 786 L 207 753 Q 207 743 217 743 Z" opacity="0.2"/></g><g transform="translate(-166,-54) scale(1,1)"><path fill="#ffffff" stroke="none" d="M 210 736 L 390 736 Q 400 736 400 746 L 400 779 Q 400 789 390 789 L 210 789 Q 200 789 200 779 L 200 746 Q 200 736 210 736 Z"/></g><g transform="translate(-166,-54) scale(1,1)"><path fill="none" stroke="#000000" d="M 210 736 L 390 736 Q 400 736 400 746 L 400 779 Q 400 789 390 789 L 210 789 Q 200 789 200 779 L 200 746 Q 200 736 210 736 Z" stroke-miterlimit="10"/></g><g transform="translate(-166,-54) scale(1,1)"><g><path fill="none" stroke="none"/><text fill="#000000" stroke="none" font-family="Arial" font-size="13px" font-style="normal" font-weight="bold" text-decoration="none" x="222.685546875" y="755.5">Показване на резултат от</text><text fill="#000000" stroke="none" font-family="Arial" font-size="13px" font-style="normal" font-weight="bold" text-decoration="none" x="268.97265625" y="768.5">търсенето</text></g></g><g transform="translate(-166,-54) scale(1,1)"><path fill="none" stroke="#000000" d="M 298 789 L 298 888" stroke-miterlimit="10"/></g><g transform="translate(-166,-54) scale(1,1)"><path fill="none" stroke="#000000" d="M 293.790482243984 877.8373251423759 L 298 888 L 302.209517756016 877.8373251423759" stroke-miterlimit="10"/></g><g transform="translate(-166,-54) scale(1,1)"><path fill="#C0C0C0" stroke="none" d="M 450 735 L 449 735 Q 452 735 452 738 L 452 801 Q 452 804 449 804 L 450 804 Q 447 804 447 801 L 447 738 Q 447 735 450 735 Z" opacity="0.2"/></g><g transform="translate(-166,-54) scale(1,1)"><path fill="#000000" stroke="none" d="M 443 728 L 443 728 Q 446 728 446 731 L 446 794 Q 446 797 443 797 L 443 797 Q 440 797 440 794 L 440 731 Q 440 728 443 728 Z"/></g><g transform="translate(-166,-54) scale(1,1)"><path fill="none" stroke="#000000" d="M 439 762 L 401 762" stroke-miterlimit="10"/></g><g transform="translate(-166,-54) scale(1,1)"><path fill="none" stroke="#000000" d="M 411.16267485762415 757.790482243984 L 401 762 L 411.16267485762415 766.209517756016" stroke-miterlimit="10"/></g><g transform="translate(-166,-54) scale(1,1)"><path fill="none" stroke="#000000" d="M 500 727 L 500 744 L 445 744" stroke-miterlimit="10"/></g><g transform="translate(-166,-54) scale(1,1)"><path fill="none" stroke="#000000" d="M 455.16267485762415 739.790482243984 L 445 744 L 455.16267485762415 748.209517756016" stroke-miterlimit="10"/></g><g transform="translate(-166,-54) scale(1,1)"><path fill="none" stroke="#000000" d="M 496 800 L 496 776 L 445 776" stroke-miterlimit="10"/></g><g transform="translate(-166,-54) scale(1,1)"><path fill="none" stroke="#000000" d="M 455.16267485762415 771.790482243984 L 445 776 L 455.16267485762415 780.209517756016" stroke-miterlimit="10"/></g></g></svg>