<svg version="1.1" xmlns="http://www.w3.org/2000/svg" xmlns:xlink="http://www.w3.org/1999/xlink" width="876" height="220"><defs/><g><g transform="translate(-206,-198) scale(1,1)"><rect fill="#C0C0C0" stroke="none" x="223" y="215" width="342.4" height="15" opacity="0.2"/></g><g transform="translate(-206,-198) scale(1,1)"><rect fill="#C0C0C0" stroke="none" x="223" y="229" width="856" height="186" opacity="0.2"/></g><g transform="translate(-206,-198) scale(1,1)"><rect fill="#ffffff" stroke="none" x="216" y="223" width="856" height="185"/></g><g transform="translate(-206,-198) scale(1,1)"><path fill="none" stroke="#000000" d="M 216 223 L 1072 223 L 1072 408 L 216 408 L 216 223 Z Z" stroke-miterlimit="10"/></g><g transform="translate(-206,-198) scale(1,1)"><rect fill="#ffffff" stroke="none" x="216" y="208" width="342.4" height="15"/></g><g transform="translate(-206,-198) scale(1,1)"><path fill="none" stroke="#000000" d="M 216 208 L 558.4 208 L 558.4 223 L 216 223 L 216 208 Z Z" stroke-miterlimit="10"/></g><g transform="translate(-206,-198) scale(1,1)"><rect fill="#ffffff" stroke="none" x="216" y="222" width="856" height="186"/></g><g transform="translate(-206,-198) scale(1,1)"><path fill="none" stroke="#000000" d="M 216 222 L 1072 222 L 1072 408 L 216 408 L 216 222 Z Z" stroke-miterlimit="10"/></g><g transform="translate(-206,-198) scale(1,1)"><g><path fill="none" stroke="none"/><text fill="#000000" stroke="none" font-family="Arial" font-size="13px" font-style="normal" font-weight="bold" text-decoration="none" x="625.9345703125" y="242.5">Booky</text></g></g><g transform="translate(-206,-198) scale(1,1)"><rect fill="#C0C0C0" stroke="none" x="255" y="281" width="48" height="15" opacity="0.2"/></g><g transform="translate(-206,-198) scale(1,1)"><rect fill="#C0C0C0" stroke="none" x="255" y="295" width="120" height="58" opacity="0.2"/></g><g transform="translate(-206,-198) scale(1,1)"><rect fill="#ffffff" stroke="none" x="248" y="289" width="120" height="57"/></g><g transform="translate(-206,-198) scale(1,1)"><path fill="none" stroke="#000000" d="M 248 289 L 368 289 L 368 346 L 248 346 L 248 289 Z Z" stroke-miterlimit="10"/></g><g transform="translate(-206,-198) scale(1,1)"><rect fill="#ffffff" stroke="none" x="248" y="274" width="48" height="15"/></g><g transform="translate(-206,-198) scale(1,1)"><path fill="none" stroke="#000000" d="M 248 274 L 296 274 L 296 289 L 248 289 L 248 274 Z Z" stroke-miterlimit="10"/></g><g transform="translate(-206,-198) scale(1,1)"><rect fill="#ffffff" stroke="none" x="248" y="288" width="120" height="58"/></g><g transform="translate(-206,-198) scale(1,1)"><path fill="none" stroke="#000000" d="M 248 288 L 368 288 L 368 346 L 248 346 L 248 288 Z Z" stroke-miterlimit="10"/></g><g transform="translate(-206,-198) scale(1,1)"><g><path fill="none" stroke="none"/><text fill="#000000" stroke="none" font-family="Arial" font-size="13px" font-style="normal" font-weight="bold" text-decoration="none" x="296.444091796875" y="308.5">GUI</text></g></g><g transform="translate(-206,-198) scale(1,1)"><rect fill="#C0C0C0" stroke="none" x="423" y="279" width="48" height="15" opacity="0.2"/></g><g transform="translate(-206,-198) scale(1,1)"><rect fill="#C0C0C0" stroke="none" x="423" y="293" width="120" height="58" opacity="0.2"/></g><g transform="translate(-206,-198) scale(1,1)"><rect fill="#ffffff" stroke="none" x="416" y="287" width="120" height="57"/></g><g transform="translate(-206,-198) scale(1,1)"><path fill="none" stroke="#000000" d="M 416 287 L 536 287 L 536 344 L 416 344 L 416 287 Z Z" stroke-miterlimit="10"/></g><g transform="translate(-206,-198) scale(1,1)"><rect fill="#ffffff" stroke="none" x="416" y="272" width="48" height="15"/></g><g transform="translate(-206,-198) scale(1,1)"><path fill="none" stroke="#000000" d="M 416 272 L 464 272 L 464 287 L 416 287 L 416 272 Z Z" stroke-miterlimit="10"/></g><g transform="translate(-206,-198) scale(1,1)"><rect fill="#ffffff" stroke="none" x="416" y="286" width="120" height="58"/></g><g transform="translate(-206,-198) scale(1,1)"><path fill="none" stroke="#000000" d="M 416 286 L 536 286 L 536 344 L 416 344 L 416 286 Z Z" stroke-miterlimit="10"/></g><g transform="translate(-206,-198) scale(1,1)"><g><path fill="none" stroke="none"/><text fill="#000000" stroke="none" font-family="Arial" font-size="13px" font-style="normal" font-weight="bold" text-decoration="none" x="431.20458984375" y="306.5">JSON Manager</text></g></g><g transform="translate(-206,-198) scale(1,1)"><rect fill="#C0C0C0" stroke="none" x="591" y="281" width="48" height="15" opacity="0.2"/></g><g transform="translate(-206,-198) scale(1,1)"><rect fill="#C0C0C0" stroke="none" x="591" y="295" width="120" height="58" opacity="0.2"/></g><g transform="translate(-206,-198) scale(1,1)"><rect fill="#ffffff" stroke="none" x="584" y="289" width="120" height="57"/></g><g transform="translate(-206,-198) scale(1,1)"><path fill="none" stroke="#000000" d="M 584 289 L 704 289 L 704 346 L 584 346 L 584 289 Z Z" stroke-miterlimit="10"/></g><g transform="translate(-206,-198) scale(1,1)"><rect fill="#ffffff" stroke="none" x="584" y="274" width="48" height="15"/></g><g transform="translate(-206,-198) scale(1,1)"><path fill="none" stroke="#000000" d="M 584 274 L 632 274 L 632 289 L 584 289 L 584 274 Z Z" stroke-miterlimit="10"/></g><g transform="translate(-206,-198) scale(1,1)"><rect fill="#ffffff" stroke="none" x="584" y="288" width="120" height="58"/></g><g transform="translate(-206,-198) scale(1,1)"><path fill="none" stroke="#000000" d="M 584 288 L 704 288 L 704 346 L 584 346 L 584 288 Z Z" stroke-miterlimit="10"/></g><g transform="translate(-206,-198) scale(1,1)"><g><path fill="none" stroke="none"/><text fill="#000000" stroke="none" font-family="Arial" font-size="13px" font-style="normal" font-weight="bold" text-decoration="none" x="599.569580078125" y="308.5">HTTP Manager</text></g></g><g transform="translate(-206,-198) scale(1,1)"><rect fill="#C0C0C0" stroke="none" x="759" y="281" width="48" height="15" opacity="0.2"/></g><g transform="translate(-206,-198) scale(1,1)"><rect fill="#C0C0C0" stroke="none" x="759" y="295" width="120" height="58" opacity="0.2"/></g><g transform="translate(-206,-198) scale(1,1)"><rect fill="#ffffff" stroke="none" x="752" y="289" width="120" height="57"/></g><g transform="translate(-206,-198) scale(1,1)"><path fill="none" stroke="#000000" d="M 752 289 L 872 289 L 872 346 L 752 346 L 752 289 Z Z" stroke-miterlimit="10"/></g><g transform="translate(-206,-198) scale(1,1)"><rect fill="#ffffff" stroke="none" x="752" y="274" width="48" height="15"/></g><g transform="translate(-206,-198) scale(1,1)"><path fill="none" stroke="#000000" d="M 752 274 L 800 274 L 800 289 L 752 289 L 752 274 Z Z" stroke-miterlimit="10"/></g><g transform="translate(-206,-198) scale(1,1)"><rect fill="#ffffff" stroke="none" x="752" y="288" width="120" height="58"/></g><g transform="translate(-206,-198) scale(1,1)"><path fill="none" stroke="#000000" d="M 752 288 L 872 288 L 872 346 L 752 346 L 752 288 Z Z" stroke-miterlimit="10"/></g><g transform="translate(-206,-198) scale(1,1)"><g><path fill="none" stroke="none"/><text fill="#000000" stroke="none" font-family="Arial" font-size="13px" font-style="normal" font-weight="bold" text-decoration="none" x="780.57275390625" y="308.5">Server API</text></g></g><g transform="translate(-206,-198) scale(1,1)"><rect fill="#C0C0C0" stroke="none" x="927" y="281" width="48" height="15" opacity="0.2"/></g><g transform="translate(-206,-198) scale(1,1)"><rect fill="#C0C0C0" stroke="none" x="927" y="295" width="120" height="58" opacity="0.2"/></g><g transform="translate(-206,-198) scale(1,1)"><rect fill="#ffffff" stroke="none" x="920" y="289" width="120" height="57"/></g><g transform="translate(-206,-198) scale(1,1)"><path fill="none" stroke="#000000" d="M 920 289 L 1040 289 L 1040 346 L 920 346 L 920 289 Z Z" stroke-miterlimit="10"/></g><g transform="translate(-206,-198) scale(1,1)"><rect fill="#ffffff" stroke="none" x="920" y="274" width="48" height="15"/></g><g transform="translate(-206,-198) scale(1,1)"><path fill="none" stroke="#000000" d="M 920 274 L 968 274 L 968 289 L 920 289 L 920 274 Z Z" stroke-miterlimit="10"/></g><g transform="translate(-206,-198) scale(1,1)"><rect fill="#ffffff" stroke="none" x="920" y="288" width="120" height="58"/></g><g transform="translate(-206,-198) scale(1,1)"><path fill="none" stroke="#000000" d="M 920 288 L 1040 288 L 1040 346 L 920 346 L 920 288 Z Z" stroke-miterlimit="10"/></g><g transform="translate(-206,-198) scale(1,1)"><g><path fill="none" stroke="none"/><text fill="#000000" stroke="none" font-family="Arial" font-size="13px" font-style="normal" font-weight="bold" text-decoration="none" x="952.175048828125" y="308.5">Database</text></g></g><g transform="translate(-206,-198) scale(1,1)"><path fill="none" stroke="#000000" d="M 369 309 L 415 309" stroke-miterlimit="10" stroke-dasharray="3"/></g><g transform="translate(-206,-198) scale(1,1)"><path fill="none" stroke="#000000" d="M 404.83732514237585 313.209517756016 L 415 309 L 404.83732514237585 304.790482243984" stroke-miterlimit="10"/></g><g transform="translate(-206,-198) scale(1,1)"><path fill="none" stroke="#000000" d="M 415 309 L 369 309" stroke-miterlimit="10" stroke-dasharray="3"/></g><g transform="translate(-206,-198) scale(1,1)"><path fill="none" stroke="#000000" d="M 379.16267485762415 304.790482243984 L 369 309 L 379.16267485762415 313.209517756016" stroke-miterlimit="10"/></g><g transform="translate(-206,-198) scale(1,1)"><path fill="none" stroke="#000000" d="M 537 309 L 583 309" stroke-miterlimit="10" stroke-dasharray="3"/></g><g transform="translate(-206,-198) scale(1,1)"><path fill="none" stroke="#000000" d="M 572.8373251423759 313.209517756016 L 583 309 L 572.8373251423758 304.790482243984" stroke-miterlimit="10"/></g><g transform="translate(-206,-198) scale(1,1)"><path fill="none" stroke="#000000" d="M 583 309 L 537 309" stroke-miterlimit="10" stroke-dasharray="3"/></g><g transform="translate(-206,-198) scale(1,1)"><path fill="none" stroke="#000000" d="M 547.1626748576241 304.790482243984 L 537 309 L 547.1626748576241 313.209517756016" stroke-miterlimit="10"/></g><g transform="translate(-206,-198) scale(1,1)"><path fill="none" stroke="#000000" d="M 705 310 L 751 310" stroke-miterlimit="10" stroke-dasharray="3"/></g><g transform="translate(-206,-198) scale(1,1)"><path fill="none" stroke="#000000" d="M 740.8373251423759 314.209517756016 L 751 310 L 740.8373251423758 305.790482243984" stroke-miterlimit="10"/></g><g transform="translate(-206,-198) scale(1,1)"><path fill="none" stroke="#000000" d="M 751 310 L 705 310" stroke-miterlimit="10" stroke-dasharray="3"/></g><g transform="translate(-206,-198) scale(1,1)"><path fill="none" stroke="#000000" d="M 715.1626748576241 305.790482243984 L 705 310 L 715.1626748576241 314.209517756016" stroke-miterlimit="10"/></g><g transform="translate(-206,-198) scale(1,1)"><path fill="none" stroke="#000000" d="M 873 310 L 919 310" stroke-miterlimit="10" stroke-dasharray="3"/></g><g transform="translate(-206,-198) scale(1,1)"><path fill="none" stroke="#000000" d="M 908.8373251423759 314.209517756016 L 919 310 L 908.8373251423758 305.790482243984" stroke-miterlimit="10"/></g><g transform="translate(-206,-198) scale(1,1)"><path fill="none" stroke="#000000" d="M 919 310 L 873 310" stroke-miterlimit="10" stroke-dasharray="3"/></g><g transform="translate(-206,-198) scale(1,1)"><path fill="none" stroke="#000000" d="M 883.1626748576241 305.790482243984 L 873 310 L 883.1626748576241 314.209517756016" stroke-miterlimit="10"/></g></g></svg>