<svg version="1.1" xmlns="http://www.w3.org/2000/svg" xmlns:xlink="http://www.w3.org/1999/xlink" width="1092" height="717"><defs/><g><g transform="translate(10,10) scale(1,1)"><path fill="none" stroke="#000000" d="M 0 0 L 1072 0 L 1072 696 L 0 696 L 0 0" stroke-miterlimit="10"/></g><g transform="translate(10,10) scale(1,1)"><path fill="#ffffff" stroke="none" d="M 0 0 L 0 23 L 213.8525390625 23 L 225.3525390625 11.5 L 225.3525390625 0 L 0 0"/></g><g transform="translate(10,10) scale(1,1)"><path fill="none" stroke="#000000" d="M 0 0 L 0 23 L 213.8525390625 23 L 225.3525390625 11.5 L 225.3525390625 0 L 0 0 L 0 0" stroke-miterlimit="10"/></g><g transform="translate(10,10) scale(1,1)"><g><path fill="none" stroke="none"/><text fill="#000000" stroke="none" font-family="Roboto" font-size="14px" font-style="normal" font-weight="normal" text-decoration="none" x="77.19921875" y="18.5">Request Suggestions</text></g></g><g transform="translate(10,10) scale(1,1)"><g><path fill="none" stroke="none"/><text fill="#000000" stroke="none" font-family="Roboto" font-size="14px" font-style="normal" font-weight="bold" text-decoration="none" x="5" y="18.5">interaction</text></g></g><g transform="translate(10,10) scale(1,1)"><path fill="#ffffff" stroke="none" d="M 75.3638778409091 47.3 C 75.3638778409091 43.82060576 78.24227956309092 41 81.79296875 41 C 85.34365793690908 41 88.2220596590909 43.82060576 88.2220596590909 47.3 C 88.2220596590909 50.779394239999995 85.34365793690908 53.6 81.79296875 53.6 C 78.24227956309092 53.6 75.3638778409091 50.779394239999995 75.3638778409091 47.3 Z"/></g><g transform="translate(10,10) scale(1,1)"><path fill="none" stroke="#000000" d="M 75.3638778409091 47.3 C 75.3638778409091 43.82060576 78.24227956309092 41 81.79296875 41 C 85.34365793690908 41 88.2220596590909 43.82060576 88.2220596590909 47.3 C 88.2220596590909 50.779394239999995 85.34365793690908 53.6 81.79296875 53.6 C 78.24227956309092 53.6 75.3638778409091 50.779394239999995 75.3638778409091 47.3 Z" stroke-miterlimit="10"/></g><g transform="translate(10,10) scale(1,1)"><path fill="none" stroke="#000000" d="M 81.79296875 53.6 L 81.79296875 66.4" stroke-miterlimit="10"/></g><g transform="translate(10,10) scale(1,1)"><path fill="none" stroke="#000000" d="M 74.98569602272727 58.4 L 88.60024147727273 58.4" stroke-miterlimit="10"/></g><g transform="translate(10,10) scale(1,1)"><path fill="none" stroke="#000000" d="M 81.79296875 66.4 L 72.33842329545455 79" stroke-miterlimit="10"/></g><g transform="translate(10,10) scale(1,1)"><path fill="none" stroke="#000000" d="M 81.79296875 66.4 L 91.24751420454545 79" stroke-miterlimit="10"/></g><g transform="translate(10,10) scale(1,1)"><g><path fill="none" stroke="none"/><text fill="#000000" stroke="none" font-family="Roboto" font-size="14px" font-style="normal" font-weight="bold" text-decoration="none" x="42.2265625" y="100.5">User: Person</text></g></g><g transform="translate(10,10) scale(1,1)"><path fill="none" stroke="#000000" d="M 82.5 106 L 82.5 696" stroke-miterlimit="10" stroke-dasharray="3"/></g><g transform="translate(10,10) scale(1,1)"><rect fill="#C0C0C0" stroke="none" x="223" y="47" width="73.578125" height="39" opacity="0.2"/></g><g transform="translate(10,10) scale(1,1)"><rect fill="#ffffff" stroke="none" x="216" y="40" width="73.578125" height="39"/></g><g transform="translate(10,10) scale(1,1)"><path fill="none" stroke="#000000" d="M 216 40 L 289.578125 40 L 289.578125 79 L 216 79 L 216 40 Z Z" stroke-miterlimit="10"/></g><g transform="translate(10,10) scale(1,1)"><g><path fill="none" stroke="none"/><text fill="#000000" stroke="none" font-family="Roboto" font-size="14px" font-style="normal" font-weight="bold" text-decoration="none" x="241.578125" y="60.5">GUI</text></g></g><g transform="translate(10,10) scale(1,1)"><path fill="none" stroke="#000000" d="M 253.5 80 L 253.5 696" stroke-miterlimit="10" stroke-dasharray="3"/></g><g transform="translate(10,10) scale(1,1)"><rect fill="#C0C0C0" stroke="none" x="383" y="47" width="114.2451171875" height="39" opacity="0.2"/></g><g transform="translate(10,10) scale(1,1)"><rect fill="#ffffff" stroke="none" x="376" y="40" width="114.2451171875" height="39"/></g><g transform="translate(10,10) scale(1,1)"><path fill="none" stroke="#000000" d="M 376 40 L 490.2451171875 40 L 490.2451171875 79 L 376 79 L 376 40 Z Z" stroke-miterlimit="10"/></g><g transform="translate(10,10) scale(1,1)"><g><path fill="none" stroke="none"/><text fill="#000000" stroke="none" font-family="Roboto" font-size="14px" font-style="normal" font-weight="bold" text-decoration="none" x="385.978515625" y="60.5">JSON Manager</text></g></g><g transform="translate(10,10) scale(1,1)"><path fill="none" stroke="#000000" d="M 434.5 80 L 434.5 696" stroke-miterlimit="10" stroke-dasharray="3"/></g><g transform="translate(10,10) scale(1,1)"><rect fill="#C0C0C0" stroke="none" x="567" y="47" width="115.044921875" height="39" opacity="0.2"/></g><g transform="translate(10,10) scale(1,1)"><rect fill="#ffffff" stroke="none" x="560" y="40" width="115.044921875" height="39"/></g><g transform="translate(10,10) scale(1,1)"><path fill="none" stroke="#000000" d="M 560 40 L 675.044921875 40 L 675.044921875 79 L 560 79 L 560 40 Z Z" stroke-miterlimit="10"/></g><g transform="translate(10,10) scale(1,1)"><g><path fill="none" stroke="none"/><text fill="#000000" stroke="none" font-family="Roboto" font-size="14px" font-style="normal" font-weight="bold" text-decoration="none" x="570.48095703125" y="60.5">HTTP Manager</text></g></g><g transform="translate(10,10) scale(1,1)"><path fill="none" stroke="#000000" d="M 618.5 80 L 618.5 697" stroke-miterlimit="10" stroke-dasharray="3"/></g><g transform="translate(10,10) scale(1,1)"><rect fill="#C0C0C0" stroke="none" x="759" y="47" width="86.251953125" height="39" opacity="0.2"/></g><g transform="translate(10,10) scale(1,1)"><rect fill="#ffffff" stroke="none" x="752" y="40" width="86.251953125" height="39"/></g><g transform="translate(10,10) scale(1,1)"><path fill="none" stroke="#000000" d="M 752 40 L 838.251953125 40 L 838.251953125 79 L 752 79 L 752 40 Z Z" stroke-miterlimit="10"/></g><g transform="translate(10,10) scale(1,1)"><g><path fill="none" stroke="none"/><text fill="#000000" stroke="none" font-family="Roboto" font-size="14px" font-style="normal" font-weight="bold" text-decoration="none" x="762.7919921875" y="60.5">Server API</text></g></g><g transform="translate(10,10) scale(1,1)"><path fill="none" stroke="#000000" d="M 796.5 80 L 796.5 696" stroke-miterlimit="10" stroke-dasharray="3"/></g><g transform="translate(10,10) scale(1,1)"><rect fill="#C0C0C0" stroke="none" x="951" y="47" width="77.994140625" height="39" opacity="0.2"/></g><g transform="translate(10,10) scale(1,1)"><rect fill="#ffffff" stroke="none" x="944" y="40" width="77.994140625" height="39"/></g><g transform="translate(10,10) scale(1,1)"><path fill="none" stroke="#000000" d="M 944 40 L 1021.994140625 40 L 1021.994140625 79 L 944 79 L 944 40 Z Z" stroke-miterlimit="10"/></g><g transform="translate(10,10) scale(1,1)"><g><path fill="none" stroke="none"/><text fill="#000000" stroke="none" font-family="Roboto" font-size="14px" font-style="normal" font-weight="bold" text-decoration="none" x="953.4521484375" y="60.5">Database</text></g></g><g transform="translate(10,10) scale(1,1)"><path fill="none" stroke="#000000" d="M 983.5 80 L 983.5 696" stroke-miterlimit="10" stroke-dasharray="3"/></g><g transform="translate(10,10) scale(1,1)"><path fill="none" stroke="#000000" d="M 618 104 L 648 104 L 648 124 L 624 124" stroke-miterlimit="10"/></g><g transform="translate(10,10) scale(1,1)"><path fill="#000000" stroke="none" d="M 634.1626748576241 119.79048224398402 L 624 124 L 634.1626748576241 128.209517756016"/></g><g transform="translate(10,10) scale(1,1)"><path fill="none" stroke="#000000" d="M 634.1626748576241 119.79048224398402 L 624 124 L 634.1626748576241 128.209517756016 L 634.1626748576241 119.79048224398402" stroke-miterlimit="10"/></g><g transform="translate(10,10) scale(1,1)"><g><path fill="none" stroke="none"/><text fill="#000000" stroke="none" font-family="Roboto" font-size="14px" font-style="normal" font-weight="normal" text-decoration="none" x="654.59423828125" y="116.5">Създаване на</text><text fill="#000000" stroke="none" font-family="Roboto" font-size="14px" font-style="normal" font-weight="normal" text-decoration="none" x="657.34912109375" y="130.5">HTTP връзка</text></g></g><g transform="translate(10,10) scale(1,1)"><rect fill="#ffffff" stroke="none" x="611" y="124" width="13" height="559"/></g><g transform="translate(10,10) scale(1,1)"><path fill="none" stroke="#000000" d="M 611 124 L 624 124 L 624 683 L 611 683 L 611 124 Z Z" stroke-miterlimit="10"/></g><g transform="translate(10,10) scale(1,1)"><path fill="none" stroke="#000000" d="M 82 152 L 246 152" stroke-miterlimit="10"/></g><g transform="translate(10,10) scale(1,1)"><path fill="#000000" stroke="none" d="M 235.83732514237585 156.209517756016 L 246 152 L 235.83732514237585 147.790482243984"/></g><g transform="translate(10,10) scale(1,1)"><path fill="none" stroke="#000000" d="M 235.83732514237585 156.209517756016 L 246 152 L 235.83732514237585 147.790482243984 L 235.83732514237585 156.209517756016" stroke-miterlimit="10"/></g><g transform="translate(10,10) scale(1,1)"><g><path fill="none" stroke="none"/><text fill="#000000" stroke="none" font-family="Roboto" font-size="14px" font-style="normal" font-weight="normal" text-decoration="none" x="118.40087890625" y="124.5">Поискване на</text><text fill="#000000" stroke="none" font-family="Roboto" font-size="14px" font-style="normal" font-weight="normal" text-decoration="none" x="110.119140625" y="138.5">предложения за</text><text fill="#000000" stroke="none" font-family="Roboto" font-size="14px" font-style="normal" font-weight="normal" text-decoration="none" x="145.1669921875" y="152.5">книги</text></g></g><g transform="translate(10,10) scale(1,1)"><rect fill="#ffffff" stroke="none" x="246" y="152" width="13" height="512"/></g><g transform="translate(10,10) scale(1,1)"><path fill="none" stroke="#000000" d="M 246 152 L 259 152 L 259 664 L 246 664 L 246 152 Z Z" stroke-miterlimit="10"/></g><g transform="translate(10,10) scale(1,1)"><path fill="none" stroke="#000000" d="M 259 171 L 427 171" stroke-miterlimit="10"/></g><g transform="translate(10,10) scale(1,1)"><path fill="#000000" stroke="none" d="M 416.83732514237585 175.209517756016 L 427 171 L 416.83732514237585 166.790482243984"/></g><g transform="translate(10,10) scale(1,1)"><path fill="none" stroke="#000000" d="M 416.83732514237585 175.209517756016 L 427 171 L 416.83732514237585 166.790482243984 L 416.83732514237585 175.209517756016" stroke-miterlimit="10"/></g><g transform="translate(10,10) scale(1,1)"><g><path fill="none" stroke="none"/><text fill="#000000" stroke="none" font-family="Roboto" font-size="14px" font-style="normal" font-weight="normal" text-decoration="none" x="269.35986328125" y="147.5">Създаване на заявка</text><text fill="#000000" stroke="none" font-family="Roboto" font-size="14px" font-style="normal" font-weight="normal" text-decoration="none" x="285.619140625" y="161.5">за предложения</text></g></g><g transform="translate(10,10) scale(1,1)"><rect fill="#ffffff" stroke="none" x="427" y="171" width="13" height="477"/></g><g transform="translate(10,10) scale(1,1)"><path fill="none" stroke="#000000" d="M 427 171 L 440 171 L 440 648 L 427 648 L 427 171 Z Z" stroke-miterlimit="10"/></g><g transform="translate(10,10) scale(1,1)"><path fill="none" stroke="#000000" d="M 440 192 L 618 192" stroke-miterlimit="10"/></g><g transform="translate(10,10) scale(1,1)"><path fill="#000000" stroke="none" d="M 607.8373251423759 196.209517756016 L 618 192 L 607.8373251423758 187.790482243984"/></g><g transform="translate(10,10) scale(1,1)"><path fill="none" stroke="#000000" d="M 607.8373251423759 196.209517756016 L 618 192 L 607.8373251423758 187.790482243984 L 607.8373251423759 196.209517756016" stroke-miterlimit="10"/></g><g transform="translate(10,10) scale(1,1)"><g><path fill="none" stroke="none"/><text fill="#000000" stroke="none" font-family="Roboto" font-size="14px" font-style="normal" font-weight="normal" text-decoration="none" x="455.5" y="188.5">Кодиране на заявката</text></g></g><g transform="translate(10,10) scale(1,1)"><rect fill="#ffffff" stroke="none" x="618" y="192" width="13" height="56"/></g><g transform="translate(10,10) scale(1,1)"><path fill="none" stroke="#000000" d="M 618 192 L 631 192 L 631 248 L 618 248 L 618 192 Z Z" stroke-miterlimit="10"/></g><g transform="translate(10,10) scale(1,1)"><path fill="none" stroke="#000000" d="M 259 200 L 289 200 L 289 220 L 266 220" stroke-miterlimit="10"/></g><g transform="translate(10,10) scale(1,1)"><path fill="#000000" stroke="none" d="M 276.16267485762415 215.790482243984 L 266 220 L 276.16267485762415 224.209517756016"/></g><g transform="translate(10,10) scale(1,1)"><path fill="none" stroke="#000000" d="M 276.16267485762415 215.790482243984 L 266 220 L 276.16267485762415 224.209517756016 L 276.16267485762415 215.790482243984" stroke-miterlimit="10"/></g><g transform="translate(10,10) scale(1,1)"><g><path fill="none" stroke="none"/><text fill="#000000" stroke="none" font-family="Roboto" font-size="14px" font-style="normal" font-weight="normal" text-decoration="none" x="168.5" y="215.5">Показване на съобщение за изчакване</text></g></g><g transform="translate(10,10) scale(1,1)"><rect fill="#ffffff" stroke="none" x="253" y="220" width="13" height="380"/></g><g transform="translate(10,10) scale(1,1)"><path fill="none" stroke="#000000" d="M 253 220 L 266 220 L 266 600 L 253 600 L 253 220 Z Z" stroke-miterlimit="10"/></g><g transform="translate(10,10) scale(1,1)"><path fill="none" stroke="#000000" d="M 631 211 L 789 211" stroke-miterlimit="10"/></g><g transform="translate(10,10) scale(1,1)"><path fill="#000000" stroke="none" d="M 778.8373251423759 215.209517756016 L 789 211 L 778.8373251423758 206.790482243984"/></g><g transform="translate(10,10) scale(1,1)"><path fill="none" stroke="#000000" d="M 778.8373251423759 215.209517756016 L 789 211 L 778.8373251423758 206.790482243984 L 778.8373251423759 215.209517756016" stroke-miterlimit="10"/></g><g transform="translate(10,10) scale(1,1)"><g><path fill="none" stroke="none"/><text fill="#000000" stroke="none" font-family="Roboto" font-size="14px" font-style="normal" font-weight="normal" text-decoration="none" x="662.88134765625" y="180.5">Изпращане на</text><text fill="#000000" stroke="none" font-family="Roboto" font-size="14px" font-style="normal" font-weight="normal" text-decoration="none" x="665.21923828125" y="194.5">заявката към</text><text fill="#000000" stroke="none" font-family="Roboto" font-size="14px" font-style="normal" font-weight="normal" text-decoration="none" x="682.107421875" y="208.5">сървъра</text></g></g><g transform="translate(10,10) scale(1,1)"><rect fill="#ffffff" stroke="none" x="789" y="211" width="13" height="397"/></g><g transform="translate(10,10) scale(1,1)"><path fill="none" stroke="#000000" d="M 789 211 L 802 211 L 802 608 L 789 608 L 789 211 Z Z" stroke-miterlimit="10"/></g><g transform="translate(10,10) scale(1,1)"><path fill="none" stroke="#000000" d="M 802 216 L 832 216 L 832 236 L 809 236" stroke-miterlimit="10"/></g><g transform="translate(10,10) scale(1,1)"><path fill="#000000" stroke="none" d="M 819.1626748576241 231.790482243984 L 809 236 L 819.1626748576241 240.209517756016"/></g><g transform="translate(10,10) scale(1,1)"><path fill="none" stroke="#000000" d="M 819.1626748576241 231.790482243984 L 809 236 L 819.1626748576241 240.209517756016 L 819.1626748576241 231.790482243984" stroke-miterlimit="10"/></g><g transform="translate(10,10) scale(1,1)"><g><path fill="none" stroke="none"/><text fill="#000000" stroke="none" font-family="Roboto" font-size="14px" font-style="normal" font-weight="normal" text-decoration="none" x="842.58544921875" y="220.5">Декодиране на</text><text fill="#000000" stroke="none" font-family="Roboto" font-size="14px" font-style="normal" font-weight="normal" text-decoration="none" x="862.4814453125" y="234.5">заявката</text></g></g><g transform="translate(10,10) scale(1,1)"><rect fill="#ffffff" stroke="none" x="796" y="236" width="13" height="28"/></g><g transform="translate(10,10) scale(1,1)"><path fill="none" stroke="#000000" d="M 796 236 L 809 236 L 809 264 L 796 264 L 796 236 Z Z" stroke-miterlimit="10"/></g><g transform="translate(10,10) scale(1,1)"><path fill="none" stroke="#000000" d="M 802 304 L 976 304" stroke-miterlimit="10"/></g><g transform="translate(10,10) scale(1,1)"><path fill="#000000" stroke="none" d="M 965.8373251423759 308.209517756016 L 976 304 L 965.8373251423758 299.790482243984"/></g><g transform="translate(10,10) scale(1,1)"><path fill="none" stroke="#000000" d="M 965.8373251423759 308.209517756016 L 976 304 L 965.8373251423758 299.790482243984 L 965.8373251423759 308.209517756016" stroke-miterlimit="10"/></g><g transform="translate(10,10) scale(1,1)"><g><path fill="none" stroke="none"/><text fill="#000000" stroke="none" font-family="Roboto" font-size="14px" font-style="normal" font-weight="normal" text-decoration="none" x="859.46484375" y="276.5">Заявка за</text><text fill="#000000" stroke="none" font-family="Roboto" font-size="14px" font-style="normal" font-weight="normal" text-decoration="none" x="824.4443359375" y="290.5">предпочитанията на</text><text fill="#000000" stroke="none" font-family="Roboto" font-size="14px" font-style="normal" font-weight="normal" text-decoration="none" x="850.455078125" y="304.5">потребителя</text></g></g><g transform="translate(10,10) scale(1,1)"><rect fill="#ffffff" stroke="none" x="976" y="304" width="13" height="48"/></g><g transform="translate(10,10) scale(1,1)"><path fill="none" stroke="#000000" d="M 976 304 L 989 304 L 989 352 L 976 352 L 976 304 Z Z" stroke-miterlimit="10"/></g><g transform="translate(10,10) scale(1,1)"><path fill="none" stroke="#000000" d="M 976 345 L 802 345" stroke-miterlimit="10" stroke-dasharray="3"/></g><g transform="translate(10,10) scale(1,1)"><path fill="none" stroke="#000000" d="M 812.1626748576241 340.790482243984 L 802 345 L 812.1626748576241 349.209517756016" stroke-miterlimit="10"/></g><g transform="translate(10,10) scale(1,1)"><g><path fill="none" stroke="none"/><text fill="#000000" stroke="none" font-family="Roboto" font-size="14px" font-style="normal" font-weight="normal" text-decoration="none" x="822.5" y="340.5">Отговор на заявката</text></g></g><g transform="translate(10,10) scale(1,1)"><path fill="none" stroke="#000000" d="M 802 368 L 832 368 L 832 388 L 809 388" stroke-miterlimit="10"/></g><g transform="translate(10,10) scale(1,1)"><path fill="#000000" stroke="none" d="M 819.1626748576241 383.790482243984 L 809 388 L 819.1626748576241 392.209517756016"/></g><g transform="translate(10,10) scale(1,1)"><path fill="none" stroke="#000000" d="M 819.1626748576241 383.790482243984 L 809 388 L 819.1626748576241 392.209517756016 L 819.1626748576241 383.790482243984" stroke-miterlimit="10"/></g><g transform="translate(10,10) scale(1,1)"><g><path fill="none" stroke="none"/><text fill="#000000" stroke="none" font-family="Roboto" font-size="14px" font-style="normal" font-weight="normal" text-decoration="none" x="845.1796875" y="380.5">Генериране на</text><text fill="#000000" stroke="none" font-family="Roboto" font-size="14px" font-style="normal" font-weight="normal" text-decoration="none" x="839.02734375" y="394.5">предложения за</text><text fill="#000000" stroke="none" font-family="Roboto" font-size="14px" font-style="normal" font-weight="normal" text-decoration="none" x="874.0751953125" y="408.5">книги</text></g></g><g transform="translate(10,10) scale(1,1)"><rect fill="#ffffff" stroke="none" x="796" y="388" width="13" height="28"/></g><g transform="translate(10,10) scale(1,1)"><path fill="none" stroke="#000000" d="M 796 388 L 809 388 L 809 416 L 796 416 L 796 388 Z Z" stroke-miterlimit="10"/></g><g transform="translate(10,10) scale(1,1)"><path fill="none" stroke="#000000" d="M 802 472 L 976 472" stroke-miterlimit="10"/></g><g transform="translate(10,10) scale(1,1)"><path fill="#000000" stroke="none" d="M 965.8373251423759 476.209517756016 L 976 472 L 965.8373251423758 467.790482243984"/></g><g transform="translate(10,10) scale(1,1)"><path fill="none" stroke="#000000" d="M 965.8373251423759 476.209517756016 L 976 472 L 965.8373251423758 467.790482243984 L 965.8373251423759 476.209517756016" stroke-miterlimit="10"/></g><g transform="translate(10,10) scale(1,1)"><g><path fill="none" stroke="none"/><text fill="#000000" stroke="none" font-family="Roboto" font-size="14px" font-style="normal" font-weight="normal" text-decoration="none" x="853.62451171875" y="436.5">Търсене на</text><text fill="#000000" stroke="none" font-family="Roboto" font-size="14px" font-style="normal" font-weight="normal" text-decoration="none" x="839.5732421875" y="450.5">информация за</text><text fill="#000000" stroke="none" font-family="Roboto" font-size="14px" font-style="normal" font-weight="normal" text-decoration="none" x="825.30322265625" y="464.5">генерираните книги</text></g></g><g transform="translate(10,10) scale(1,1)"><rect fill="#ffffff" stroke="none" x="976" y="472" width="13" height="64"/></g><g transform="translate(10,10) scale(1,1)"><path fill="none" stroke="#000000" d="M 976 472 L 989 472 L 989 536 L 976 536 L 976 472 Z Z" stroke-miterlimit="10"/></g><g transform="translate(10,10) scale(1,1)"><path fill="none" stroke="#000000" d="M 976 528 L 802 528" stroke-miterlimit="10" stroke-dasharray="3"/></g><g transform="translate(10,10) scale(1,1)"><path fill="none" stroke="#000000" d="M 812.1626748576241 523.790482243984 L 802 528 L 812.1626748576241 532.209517756016" stroke-miterlimit="10"/></g><g transform="translate(10,10) scale(1,1)"><g><path fill="none" stroke="none"/><text fill="#000000" stroke="none" font-family="Roboto" font-size="14px" font-style="normal" font-weight="normal" text-decoration="none" x="848.6083984375" y="499.5">Връщане на</text><text fill="#000000" stroke="none" font-family="Roboto" font-size="14px" font-style="normal" font-weight="normal" text-decoration="none" x="836.96337890625" y="513.5">информация за</text><text fill="#000000" stroke="none" font-family="Roboto" font-size="14px" font-style="normal" font-weight="normal" text-decoration="none" x="833.70947265625" y="527.5">търсените книги</text></g></g><g transform="translate(10,10) scale(1,1)"><path fill="none" stroke="#000000" d="M 802 544 L 832 544 L 832 564 L 809 564" stroke-miterlimit="10"/></g><g transform="translate(10,10) scale(1,1)"><path fill="#000000" stroke="none" d="M 819.1626748576241 559.790482243984 L 809 564 L 819.1626748576241 568.209517756016"/></g><g transform="translate(10,10) scale(1,1)"><path fill="none" stroke="#000000" d="M 819.1626748576241 559.790482243984 L 809 564 L 819.1626748576241 568.209517756016 L 819.1626748576241 559.790482243984" stroke-miterlimit="10"/></g><g transform="translate(10,10) scale(1,1)"><g><path fill="none" stroke="none"/><text fill="#000000" stroke="none" font-family="Roboto" font-size="14px" font-style="normal" font-weight="normal" text-decoration="none" x="834.79150390625" y="556.5">Кодиране на</text><text fill="#000000" stroke="none" font-family="Roboto" font-size="14px" font-style="normal" font-weight="normal" text-decoration="none" x="850.20654296875" y="570.5">отговор</text></g></g><g transform="translate(10,10) scale(1,1)"><rect fill="#ffffff" stroke="none" x="796" y="564" width="13" height="28"/></g><g transform="translate(10,10) scale(1,1)"><path fill="none" stroke="#000000" d="M 796 564 L 809 564 L 809 592 L 796 592 L 796 564 Z Z" stroke-miterlimit="10"/></g><g transform="translate(10,10) scale(1,1)"><path fill="none" stroke="#000000" d="M 789 601 L 624 601" stroke-miterlimit="10" stroke-dasharray="3"/></g><g transform="translate(10,10) scale(1,1)"><path fill="none" stroke="#000000" d="M 634.1626748576241 596.790482243984 L 624 601 L 634.1626748576241 605.209517756016" stroke-miterlimit="10"/></g><g transform="translate(10,10) scale(1,1)"><g><path fill="none" stroke="none"/><text fill="#000000" stroke="none" font-family="Roboto" font-size="14px" font-style="normal" font-weight="normal" text-decoration="none" x="639.5" y="595.5">Отговор от сървъра</text></g></g><g transform="translate(10,10) scale(1,1)"><path fill="none" stroke="#000000" d="M 611 616 L 440 616" stroke-miterlimit="10" stroke-dasharray="3"/></g><g transform="translate(10,10) scale(1,1)"><path fill="none" stroke="#000000" d="M 450.16267485762415 611.790482243984 L 440 616 L 450.16267485762415 620.209517756016" stroke-miterlimit="10"/></g><g transform="translate(10,10) scale(1,1)"><g><path fill="none" stroke="none"/><text fill="#000000" stroke="none" font-family="Roboto" font-size="14px" font-style="normal" font-weight="normal" text-decoration="none" x="472.09912109375" y="595.5">Декодиране на</text><text fill="#000000" stroke="none" font-family="Roboto" font-size="14px" font-style="normal" font-weight="normal" text-decoration="none" x="491.9814453125" y="609.5">отговора</text></g></g><g transform="translate(10,10) scale(1,1)"><path fill="none" stroke="#000000" d="M 427 632 L 259 632" stroke-miterlimit="10" stroke-dasharray="3"/></g><g transform="translate(10,10) scale(1,1)"><path fill="none" stroke="#000000" d="M 269.16267485762415 627.790482243984 L 259 632 L 269.16267485762415 636.209517756016" stroke-miterlimit="10"/></g><g transform="translate(10,10) scale(1,1)"><g><path fill="none" stroke="none"/><text fill="#000000" stroke="none" font-family="Roboto" font-size="14px" font-style="normal" font-weight="normal" text-decoration="none" x="292.78466796875" y="611.5">Обновяване на</text><text fill="#000000" stroke="none" font-family="Roboto" font-size="14px" font-style="normal" font-weight="normal" text-decoration="none" x="312.85498046875" y="625.5">обектите</text></g></g><g transform="translate(10,10) scale(1,1)"><path fill="none" stroke="#000000" d="M 624 632 L 654 632 L 654 652 L 631 652" stroke-miterlimit="10"/></g><g transform="translate(10,10) scale(1,1)"><path fill="#000000" stroke="none" d="M 641.1626748576241 647.790482243984 L 631 652 L 641.1626748576241 656.209517756016"/></g><g transform="translate(10,10) scale(1,1)"><path fill="none" stroke="#000000" d="M 641.1626748576241 647.790482243984 L 631 652 L 641.1626748576241 656.209517756016 L 641.1626748576241 647.790482243984" stroke-miterlimit="10"/></g><g transform="translate(10,10) scale(1,1)"><g><path fill="none" stroke="none"/><text fill="#000000" stroke="none" font-family="Roboto" font-size="14px" font-style="normal" font-weight="normal" text-decoration="none" x="655.15576171875" y="644.5">Унищожаване на</text><text fill="#000000" stroke="none" font-family="Roboto" font-size="14px" font-style="normal" font-weight="normal" text-decoration="none" x="661.3662109375" y="658.5">HTTP връзката</text></g></g><g transform="translate(10,10) scale(1,1)"><rect fill="#ffffff" stroke="none" x="618" y="652" width="13" height="28"/></g><g transform="translate(10,10) scale(1,1)"><path fill="none" stroke="#000000" d="M 618 652 L 631 652 L 631 680 L 618 680 L 618 652 Z Z" stroke-miterlimit="10"/></g><g transform="translate(10,10) scale(1,1)"><path fill="none" stroke="#000000" d="M 246 656 L 82 656" stroke-miterlimit="10" stroke-dasharray="3"/></g><g transform="translate(10,10) scale(1,1)"><path fill="none" stroke="#000000" d="M 92.16267485762415 651.790482243984 L 82 656 L 92.16267485762415 660.209517756016" stroke-miterlimit="10"/></g><g transform="translate(10,10) scale(1,1)"><g><path fill="none" stroke="none"/><text fill="#000000" stroke="none" font-family="Roboto" font-size="14px" font-style="normal" font-weight="normal" text-decoration="none" x="111.3310546875" y="635.5">Обновяване на</text><text fill="#000000" stroke="none" font-family="Roboto" font-size="14px" font-style="normal" font-weight="normal" text-decoration="none" x="121.85498046875" y="649.5">интерфейса</text></g></g></g></svg>