<svg version="1.1" xmlns="http://www.w3.org/2000/svg" xmlns:xlink="http://www.w3.org/1999/xlink" width="1092" height="716"><defs/><g><g transform="translate(10,10) scale(1,1)"><path fill="none" stroke="#000000" d="M 0 0 L 1072 0 L 1072 696 L 0 696 L 0 0" stroke-miterlimit="10"/></g><g transform="translate(10,10) scale(1,1)"><path fill="#ffffff" stroke="none" d="M 0 0 L 0 23 L 156.84765625 23 L 168.34765625 11.5 L 168.34765625 0 L 0 0"/></g><g transform="translate(10,10) scale(1,1)"><path fill="none" stroke="#000000" d="M 0 0 L 0 23 L 156.84765625 23 L 168.34765625 11.5 L 168.34765625 0 L 0 0 L 0 0" stroke-miterlimit="10"/></g><g transform="translate(10,10) scale(1,1)"><g><path fill="none" stroke="none"/><text fill="#000000" stroke="none" font-family="Roboto" font-size="14px" font-style="normal" font-weight="normal" text-decoration="none" x="77.19921875" y="18.5">Delete Book</text></g></g><g transform="translate(10,10) scale(1,1)"><g><path fill="none" stroke="none"/><text fill="#000000" stroke="none" font-family="Roboto" font-size="14px" font-style="normal" font-weight="bold" text-decoration="none" x="5" y="18.5">interaction</text></g></g><g transform="translate(10,10) scale(1,1)"><path fill="#ffffff" stroke="none" d="M 75.3638778409091 47.3 C 75.3638778409091 43.82060576 78.24227956309092 41 81.79296875 41 C 85.34365793690908 41 88.2220596590909 43.82060576 88.2220596590909 47.3 C 88.2220596590909 50.779394239999995 85.34365793690908 53.6 81.79296875 53.6 C 78.24227956309092 53.6 75.3638778409091 50.779394239999995 75.3638778409091 47.3 Z"/></g><g transform="translate(10,10) scale(1,1)"><path fill="none" stroke="#000000" d="M 75.3638778409091 47.3 C 75.3638778409091 43.82060576 78.24227956309092 41 81.79296875 41 C 85.34365793690908 41 88.2220596590909 43.82060576 88.2220596590909 47.3 C 88.2220596590909 50.779394239999995 85.34365793690908 53.6 81.79296875 53.6 C 78.24227956309092 53.6 75.3638778409091 50.779394239999995 75.3638778409091 47.3 Z" stroke-miterlimit="10"/></g><g transform="translate(10,10) scale(1,1)"><path fill="none" stroke="#000000" d="M 81.79296875 53.6 L 81.79296875 66.4" stroke-miterlimit="10"/></g><g transform="translate(10,10) scale(1,1)"><path fill="none" stroke="#000000" d="M 74.98569602272727 58.4 L 88.60024147727273 58.4" stroke-miterlimit="10"/></g><g transform="translate(10,10) scale(1,1)"><path fill="none" stroke="#000000" d="M 81.79296875 66.4 L 72.33842329545455 79" stroke-miterlimit="10"/></g><g transform="translate(10,10) scale(1,1)"><path fill="none" stroke="#000000" d="M 81.79296875 66.4 L 91.24751420454545 79" stroke-miterlimit="10"/></g><g transform="translate(10,10) scale(1,1)"><g><path fill="none" stroke="none"/><text fill="#000000" stroke="none" font-family="Roboto" font-size="14px" font-style="normal" font-weight="bold" text-decoration="none" x="42.2265625" y="100.5">User: Person</text></g></g><g transform="translate(10,10) scale(1,1)"><path fill="none" stroke="#000000" d="M 82.5 106 L 82.5 696" stroke-miterlimit="10" stroke-dasharray="3"/></g><g transform="translate(10,10) scale(1,1)"><rect fill="#C0C0C0" stroke="none" x="223" y="47" width="73.578125" height="39" opacity="0.2"/></g><g transform="translate(10,10) scale(1,1)"><rect fill="#ffffff" stroke="none" x="216" y="40" width="73.578125" height="39"/></g><g transform="translate(10,10) scale(1,1)"><path fill="none" stroke="#000000" d="M 216 40 L 289.578125 40 L 289.578125 79 L 216 79 L 216 40 Z Z" stroke-miterlimit="10"/></g><g transform="translate(10,10) scale(1,1)"><g><path fill="none" stroke="none"/><text fill="#000000" stroke="none" font-family="Roboto" font-size="14px" font-style="normal" font-weight="bold" text-decoration="none" x="241.578125" y="60.5">GUI</text></g></g><g transform="translate(10,10) scale(1,1)"><path fill="none" stroke="#000000" d="M 253.5 80 L 253.5 696" stroke-miterlimit="10" stroke-dasharray="3"/></g><g transform="translate(10,10) scale(1,1)"><rect fill="#C0C0C0" stroke="none" x="383" y="47" width="114.2451171875" height="39" opacity="0.2"/></g><g transform="translate(10,10) scale(1,1)"><rect fill="#ffffff" stroke="none" x="376" y="40" width="114.2451171875" height="39"/></g><g transform="translate(10,10) scale(1,1)"><path fill="none" stroke="#000000" d="M 376 40 L 490.2451171875 40 L 490.2451171875 79 L 376 79 L 376 40 Z Z" stroke-miterlimit="10"/></g><g transform="translate(10,10) scale(1,1)"><g><path fill="none" stroke="none"/><text fill="#000000" stroke="none" font-family="Roboto" font-size="14px" font-style="normal" font-weight="bold" text-decoration="none" x="385.978515625" y="60.5">JSON Manager</text></g></g><g transform="translate(10,10) scale(1,1)"><path fill="none" stroke="#000000" d="M 434.5 80 L 434.5 696" stroke-miterlimit="10" stroke-dasharray="3"/></g><g transform="translate(10,10) scale(1,1)"><rect fill="#C0C0C0" stroke="none" x="567" y="47" width="115.044921875" height="39" opacity="0.2"/></g><g transform="translate(10,10) scale(1,1)"><rect fill="#ffffff" stroke="none" x="560" y="40" width="115.044921875" height="39"/></g><g transform="translate(10,10) scale(1,1)"><path fill="none" stroke="#000000" d="M 560 40 L 675.044921875 40 L 675.044921875 79 L 560 79 L 560 40 Z Z" stroke-miterlimit="10"/></g><g transform="translate(10,10) scale(1,1)"><g><path fill="none" stroke="none"/><text fill="#000000" stroke="none" font-family="Roboto" font-size="14px" font-style="normal" font-weight="bold" text-decoration="none" x="570.48095703125" y="60.5">HTTP Manager</text></g></g><g transform="translate(10,10) scale(1,1)"><path fill="none" stroke="#000000" d="M 618.5 80 L 618.5 696" stroke-miterlimit="10" stroke-dasharray="3"/></g><g transform="translate(10,10) scale(1,1)"><rect fill="#C0C0C0" stroke="none" x="759" y="47" width="86.251953125" height="39" opacity="0.2"/></g><g transform="translate(10,10) scale(1,1)"><rect fill="#ffffff" stroke="none" x="752" y="40" width="86.251953125" height="39"/></g><g transform="translate(10,10) scale(1,1)"><path fill="none" stroke="#000000" d="M 752 40 L 838.251953125 40 L 838.251953125 79 L 752 79 L 752 40 Z Z" stroke-miterlimit="10"/></g><g transform="translate(10,10) scale(1,1)"><g><path fill="none" stroke="none"/><text fill="#000000" stroke="none" font-family="Roboto" font-size="14px" font-style="normal" font-weight="bold" text-decoration="none" x="762.7919921875" y="60.5">Server API</text></g></g><g transform="translate(10,10) scale(1,1)"><path fill="none" stroke="#000000" d="M 796.5 80 L 796.5 696" stroke-miterlimit="10" stroke-dasharray="3"/></g><g transform="translate(10,10) scale(1,1)"><rect fill="#C0C0C0" stroke="none" x="951" y="47" width="77.994140625" height="39" opacity="0.2"/></g><g transform="translate(10,10) scale(1,1)"><rect fill="#ffffff" stroke="none" x="944" y="40" width="77.994140625" height="39"/></g><g transform="translate(10,10) scale(1,1)"><path fill="none" stroke="#000000" d="M 944 40 L 1021.994140625 40 L 1021.994140625 79 L 944 79 L 944 40 Z Z" stroke-miterlimit="10"/></g><g transform="translate(10,10) scale(1,1)"><g><path fill="none" stroke="none"/><text fill="#000000" stroke="none" font-family="Roboto" font-size="14px" font-style="normal" font-weight="bold" text-decoration="none" x="953.4521484375" y="60.5">Database</text></g></g><g transform="translate(10,10) scale(1,1)"><path fill="none" stroke="#000000" d="M 983.5 80 L 983.5 696" stroke-miterlimit="10" stroke-dasharray="3"/></g><g transform="translate(10,10) scale(1,1)"><path fill="none" stroke="#000000" d="M 618 112 L 648 112 L 648 132 L 624 132" stroke-miterlimit="10"/></g><g transform="translate(10,10) scale(1,1)"><path fill="#000000" stroke="none" d="M 634.1626748576241 127.79048224398402 L 624 132 L 634.1626748576241 136.209517756016"/></g><g transform="translate(10,10) scale(1,1)"><path fill="none" stroke="#000000" d="M 634.1626748576241 127.79048224398402 L 624 132 L 634.1626748576241 136.209517756016 L 634.1626748576241 127.79048224398402" stroke-miterlimit="10"/></g><g transform="translate(10,10) scale(1,1)"><g><path fill="none" stroke="none"/><text fill="#000000" stroke="none" font-family="Roboto" font-size="14px" font-style="normal" font-weight="normal" text-decoration="none" x="655.59423828125" y="118.5">Създаване на</text><text fill="#000000" stroke="none" font-family="Roboto" font-size="14px" font-style="normal" font-weight="normal" text-decoration="none" x="658.34912109375" y="132.5">HTTP връзка</text></g></g><g transform="translate(10,10) scale(1,1)"><rect fill="#ffffff" stroke="none" x="611" y="132" width="13" height="548"/></g><g transform="translate(10,10) scale(1,1)"><path fill="none" stroke="#000000" d="M 611 132 L 624 132 L 624 680 L 611 680 L 611 132 Z Z" stroke-miterlimit="10"/></g><g transform="translate(10,10) scale(1,1)"><path fill="none" stroke="#000000" d="M 82 152 L 246 152" stroke-miterlimit="10"/></g><g transform="translate(10,10) scale(1,1)"><path fill="#000000" stroke="none" d="M 235.83732514237585 156.209517756016 L 246 152 L 235.83732514237585 147.790482243984"/></g><g transform="translate(10,10) scale(1,1)"><path fill="none" stroke="#000000" d="M 235.83732514237585 156.209517756016 L 246 152 L 235.83732514237585 147.790482243984 L 235.83732514237585 156.209517756016" stroke-miterlimit="10"/></g><g transform="translate(10,10) scale(1,1)"><g><path fill="none" stroke="none"/><text fill="#000000" stroke="none" font-family="Roboto" font-size="14px" font-style="normal" font-weight="normal" text-decoration="none" x="98.591796875" y="148.5">Изтриване на книга</text></g></g><g transform="translate(10,10) scale(1,1)"><rect fill="#ffffff" stroke="none" x="246" y="152" width="13" height="504"/></g><g transform="translate(10,10) scale(1,1)"><path fill="none" stroke="#000000" d="M 246 152 L 259 152 L 259 656 L 246 656 L 246 152 Z Z" stroke-miterlimit="10"/></g><g transform="translate(10,10) scale(1,1)"><path fill="none" stroke="#000000" d="M 259 168 L 427 168" stroke-miterlimit="10"/></g><g transform="translate(10,10) scale(1,1)"><path fill="#000000" stroke="none" d="M 416.83732514237585 172.209517756016 L 427 168 L 416.83732514237585 163.790482243984"/></g><g transform="translate(10,10) scale(1,1)"><path fill="none" stroke="#000000" d="M 416.83732514237585 172.209517756016 L 427 168 L 416.83732514237585 163.790482243984 L 416.83732514237585 172.209517756016" stroke-miterlimit="10"/></g><g transform="translate(10,10) scale(1,1)"><g><path fill="none" stroke="none"/><text fill="#000000" stroke="none" font-family="Roboto" font-size="14px" font-style="normal" font-weight="normal" text-decoration="none" x="276.35986328125" y="148.5">Създаване на заявка</text><text fill="#000000" stroke="none" font-family="Roboto" font-size="14px" font-style="normal" font-weight="normal" text-decoration="none" x="302.927734375" y="162.5">за изтриване</text></g></g><g transform="translate(10,10) scale(1,1)"><rect fill="#ffffff" stroke="none" x="427" y="168" width="13" height="464"/></g><g transform="translate(10,10) scale(1,1)"><path fill="none" stroke="#000000" d="M 427 168 L 440 168 L 440 632 L 427 632 L 427 168 Z Z" stroke-miterlimit="10"/></g><g transform="translate(10,10) scale(1,1)"><path fill="none" stroke="#000000" d="M 259 192 L 289 192 L 289 212 L 266 212" stroke-miterlimit="10"/></g><g transform="translate(10,10) scale(1,1)"><path fill="#000000" stroke="none" d="M 276.16267485762415 207.790482243984 L 266 212 L 276.16267485762415 216.209517756016"/></g><g transform="translate(10,10) scale(1,1)"><path fill="none" stroke="#000000" d="M 276.16267485762415 207.790482243984 L 266 212 L 276.16267485762415 216.209517756016 L 276.16267485762415 207.790482243984" stroke-miterlimit="10"/></g><g transform="translate(10,10) scale(1,1)"><g><path fill="none" stroke="none"/><text fill="#000000" stroke="none" font-family="Roboto" font-size="14px" font-style="normal" font-weight="normal" text-decoration="none" x="298.74267578125" y="204.5">Показване на</text><text fill="#000000" stroke="none" font-family="Roboto" font-size="14px" font-style="normal" font-weight="normal" text-decoration="none" x="297.7685546875" y="218.5">съобщение за</text><text fill="#000000" stroke="none" font-family="Roboto" font-size="14px" font-style="normal" font-weight="normal" text-decoration="none" x="309.46142578125" y="232.5">изчакване</text></g></g><g transform="translate(10,10) scale(1,1)"><rect fill="#ffffff" stroke="none" x="253" y="212" width="13" height="372"/></g><g transform="translate(10,10) scale(1,1)"><path fill="none" stroke="#000000" d="M 253 212 L 266 212 L 266 584 L 253 584 L 253 212 Z Z" stroke-miterlimit="10"/></g><g transform="translate(10,10) scale(1,1)"><path fill="none" stroke="#000000" d="M 440 197 L 618 197" stroke-miterlimit="10"/></g><g transform="translate(10,10) scale(1,1)"><path fill="#000000" stroke="none" d="M 607.8373251423759 201.209517756016 L 618 197 L 607.8373251423758 192.790482243984"/></g><g transform="translate(10,10) scale(1,1)"><path fill="none" stroke="#000000" d="M 607.8373251423759 201.209517756016 L 618 197 L 607.8373251423758 192.790482243984 L 607.8373251423759 201.209517756016" stroke-miterlimit="10"/></g><g transform="translate(10,10) scale(1,1)"><g><path fill="none" stroke="none"/><text fill="#000000" stroke="none" font-family="Roboto" font-size="14px" font-style="normal" font-weight="normal" text-decoration="none" x="455.5" y="193.5">Кодиране на заявката</text></g></g><g transform="translate(10,10) scale(1,1)"><rect fill="#ffffff" stroke="none" x="618" y="197" width="13" height="51"/></g><g transform="translate(10,10) scale(1,1)"><path fill="none" stroke="#000000" d="M 618 197 L 631 197 L 631 248 L 618 248 L 618 197 Z Z" stroke-miterlimit="10"/></g><g transform="translate(10,10) scale(1,1)"><path fill="none" stroke="#000000" d="M 631 224 L 789 224" stroke-miterlimit="10"/></g><g transform="translate(10,10) scale(1,1)"><path fill="#000000" stroke="none" d="M 778.8373251423759 228.209517756016 L 789 224 L 778.8373251423758 219.790482243984"/></g><g transform="translate(10,10) scale(1,1)"><path fill="none" stroke="#000000" d="M 778.8373251423759 228.209517756016 L 789 224 L 778.8373251423758 219.790482243984 L 778.8373251423759 228.209517756016" stroke-miterlimit="10"/></g><g transform="translate(10,10) scale(1,1)"><g><path fill="none" stroke="none"/><text fill="#000000" stroke="none" font-family="Roboto" font-size="14px" font-style="normal" font-weight="normal" text-decoration="none" x="662.31982421875" y="204.5">Изпращане на</text><text fill="#000000" stroke="none" font-family="Roboto" font-size="14px" font-style="normal" font-weight="normal" text-decoration="none" x="634.9111328125" y="218.5">заявката към сървъра</text></g></g><g transform="translate(10,10) scale(1,1)"><rect fill="#ffffff" stroke="none" x="789" y="224" width="13" height="344"/></g><g transform="translate(10,10) scale(1,1)"><path fill="none" stroke="#000000" d="M 789 224 L 802 224 L 802 568 L 789 568 L 789 224 Z Z" stroke-miterlimit="10"/></g><g transform="translate(10,10) scale(1,1)"><path fill="none" stroke="#000000" d="M 802 240 L 832 240 L 832 260 L 809 260" stroke-miterlimit="10"/></g><g transform="translate(10,10) scale(1,1)"><path fill="#000000" stroke="none" d="M 819.1626748576241 255.790482243984 L 809 260 L 819.1626748576241 264.209517756016"/></g><g transform="translate(10,10) scale(1,1)"><path fill="none" stroke="#000000" d="M 819.1626748576241 255.790482243984 L 809 260 L 819.1626748576241 264.209517756016 L 819.1626748576241 255.790482243984" stroke-miterlimit="10"/></g><g transform="translate(10,10) scale(1,1)"><g><path fill="none" stroke="none"/><text fill="#000000" stroke="none" font-family="Roboto" font-size="14px" font-style="normal" font-weight="normal" text-decoration="none" x="845.58544921875" y="252.5">Декодиране на</text><text fill="#000000" stroke="none" font-family="Roboto" font-size="14px" font-style="normal" font-weight="normal" text-decoration="none" x="865.4814453125" y="266.5">заявката</text></g></g><g transform="translate(10,10) scale(1,1)"><rect fill="#ffffff" stroke="none" x="796" y="260" width="13" height="28"/></g><g transform="translate(10,10) scale(1,1)"><path fill="none" stroke="#000000" d="M 796 260 L 809 260 L 809 288 L 796 288 L 796 260 Z Z" stroke-miterlimit="10"/></g><g transform="translate(10,10) scale(1,1)"><path fill="none" stroke="#000000" d="M 802 304 L 832 304 L 832 324 L 809 324" stroke-miterlimit="10"/></g><g transform="translate(10,10) scale(1,1)"><path fill="#000000" stroke="none" d="M 819.1626748576241 319.790482243984 L 809 324 L 819.1626748576241 328.209517756016"/></g><g transform="translate(10,10) scale(1,1)"><path fill="none" stroke="#000000" d="M 819.1626748576241 319.790482243984 L 809 324 L 819.1626748576241 328.209517756016 L 819.1626748576241 319.790482243984" stroke-miterlimit="10"/></g><g transform="translate(10,10) scale(1,1)"><g><path fill="none" stroke="none"/><text fill="#000000" stroke="none" font-family="Roboto" font-size="14px" font-style="normal" font-weight="normal" text-decoration="none" x="836.68017578125" y="308.5">Проверяване на</text><text fill="#000000" stroke="none" font-family="Roboto" font-size="14px" font-style="normal" font-weight="normal" text-decoration="none" x="853.978515625" y="322.5">правата на</text><text fill="#000000" stroke="none" font-family="Roboto" font-size="14px" font-style="normal" font-weight="normal" text-decoration="none" x="848.70458984375" y="336.5">потребителя</text></g></g><g transform="translate(10,10) scale(1,1)"><rect fill="#ffffff" stroke="none" x="796" y="324" width="13" height="28"/></g><g transform="translate(10,10) scale(1,1)"><path fill="none" stroke="#000000" d="M 796 324 L 809 324 L 809 352 L 796 352 L 796 324 Z Z" stroke-miterlimit="10"/></g><g transform="translate(10,10) scale(1,1)"><path fill="none" stroke="#000000" d="M 802 400 L 976 400" stroke-miterlimit="10"/></g><g transform="translate(10,10) scale(1,1)"><path fill="#000000" stroke="none" d="M 965.8373251423759 404.209517756016 L 976 400 L 965.8373251423758 395.790482243984"/></g><g transform="translate(10,10) scale(1,1)"><path fill="none" stroke="#000000" d="M 965.8373251423759 404.209517756016 L 976 400 L 965.8373251423758 395.790482243984 L 965.8373251423759 404.209517756016" stroke-miterlimit="10"/></g><g transform="translate(10,10) scale(1,1)"><g><path fill="none" stroke="none"/><text fill="#000000" stroke="none" font-family="Roboto" font-size="14px" font-style="normal" font-weight="normal" text-decoration="none" x="823.72509765625" y="380.5">Изтриване на книга</text><text fill="#000000" stroke="none" font-family="Roboto" font-size="14px" font-style="normal" font-weight="normal" text-decoration="none" x="836.07080078125" y="394.5">от базата данни</text></g></g><g transform="translate(10,10) scale(1,1)"><rect fill="#ffffff" stroke="none" x="976" y="400" width="13" height="64"/></g><g transform="translate(10,10) scale(1,1)"><path fill="none" stroke="#000000" d="M 976 400 L 989 400 L 989 464 L 976 464 L 976 400 Z Z" stroke-miterlimit="10"/></g><g transform="translate(10,10) scale(1,1)"><path fill="none" stroke="#000000" d="M 976 456 L 802 456" stroke-miterlimit="10" stroke-dasharray="3"/></g><g transform="translate(10,10) scale(1,1)"><path fill="none" stroke="#000000" d="M 812.1626748576241 451.790482243984 L 802 456 L 812.1626748576241 460.209517756016" stroke-miterlimit="10"/></g><g transform="translate(10,10) scale(1,1)"><g><path fill="none" stroke="none"/><text fill="#000000" stroke="none" font-family="Roboto" font-size="14px" font-style="normal" font-weight="normal" text-decoration="none" x="848.3466796875" y="435.5">Връщане на</text><text fill="#000000" stroke="none" font-family="Roboto" font-size="14px" font-style="normal" font-weight="normal" text-decoration="none" x="821.7822265625" y="449.5">съобщение за успех</text></g></g><g transform="translate(10,10) scale(1,1)"><path fill="none" stroke="#000000" d="M 802 488 L 832 488 L 832 508 L 809 508" stroke-miterlimit="10"/></g><g transform="translate(10,10) scale(1,1)"><path fill="#000000" stroke="none" d="M 819.1626748576241 503.790482243984 L 809 508 L 819.1626748576241 512.209517756016"/></g><g transform="translate(10,10) scale(1,1)"><path fill="none" stroke="#000000" d="M 819.1626748576241 503.790482243984 L 809 508 L 819.1626748576241 512.209517756016 L 819.1626748576241 503.790482243984" stroke-miterlimit="10"/></g><g transform="translate(10,10) scale(1,1)"><g><path fill="none" stroke="none"/><text fill="#000000" stroke="none" font-family="Roboto" font-size="14px" font-style="normal" font-weight="normal" text-decoration="none" x="840.09912109375" y="499.5">Кодиране на</text><text fill="#000000" stroke="none" font-family="Roboto" font-size="14px" font-style="normal" font-weight="normal" text-decoration="none" x="855.51416015625" y="513.5">отговор</text></g></g><g transform="translate(10,10) scale(1,1)"><rect fill="#ffffff" stroke="none" x="796" y="508" width="13" height="28"/></g><g transform="translate(10,10) scale(1,1)"><path fill="none" stroke="#000000" d="M 796 508 L 809 508 L 809 536 L 796 536 L 796 508 Z Z" stroke-miterlimit="10"/></g><g transform="translate(10,10) scale(1,1)"><path fill="none" stroke="#000000" d="M 789 560 L 624 560" stroke-miterlimit="10" stroke-dasharray="3"/></g><g transform="translate(10,10) scale(1,1)"><path fill="none" stroke="#000000" d="M 634.1626748576241 555.790482243984 L 624 560 L 634.1626748576241 564.209517756016" stroke-miterlimit="10"/></g><g transform="translate(10,10) scale(1,1)"><g><path fill="none" stroke="none"/><text fill="#000000" stroke="none" font-family="Roboto" font-size="14px" font-style="normal" font-weight="normal" text-decoration="none" x="639.5" y="549.5">Отговор от сървъра</text></g></g><g transform="translate(10,10) scale(1,1)"><path fill="none" stroke="#000000" d="M 611 584 L 440 584" stroke-miterlimit="10" stroke-dasharray="3"/></g><g transform="translate(10,10) scale(1,1)"><path fill="none" stroke="#000000" d="M 450.16267485762415 579.790482243984 L 440 584 L 450.16267485762415 588.209517756016" stroke-miterlimit="10"/></g><g transform="translate(10,10) scale(1,1)"><g><path fill="none" stroke="none"/><text fill="#000000" stroke="none" font-family="Roboto" font-size="14px" font-style="normal" font-weight="normal" text-decoration="none" x="473.09912109375" y="566.5">Декодиране на</text><text fill="#000000" stroke="none" font-family="Roboto" font-size="14px" font-style="normal" font-weight="normal" text-decoration="none" x="492.9814453125" y="580.5">отговора</text></g></g><g transform="translate(10,10) scale(1,1)"><path fill="none" stroke="#000000" d="M 427 608 L 259 608" stroke-miterlimit="10" stroke-dasharray="3"/></g><g transform="translate(10,10) scale(1,1)"><path fill="none" stroke="#000000" d="M 269.16267485762415 603.790482243984 L 259 608 L 269.16267485762415 612.209517756016" stroke-miterlimit="10"/></g><g transform="translate(10,10) scale(1,1)"><g><path fill="none" stroke="none"/><text fill="#000000" stroke="none" font-family="Roboto" font-size="14px" font-style="normal" font-weight="normal" text-decoration="none" x="294.49560546875" y="579.5">Изтриване на</text><text fill="#000000" stroke="none" font-family="Roboto" font-size="14px" font-style="normal" font-weight="normal" text-decoration="none" x="278.56103515625" y="593.5">книга от локалния</text><text fill="#000000" stroke="none" font-family="Roboto" font-size="14px" font-style="normal" font-weight="normal" text-decoration="none" x="313.87548828125" y="607.5">каталог</text></g></g><g transform="translate(10,10) scale(1,1)"><path fill="none" stroke="#000000" d="M 624 608 L 654 608 L 654 628 L 631 628" stroke-miterlimit="10"/></g><g transform="translate(10,10) scale(1,1)"><path fill="#000000" stroke="none" d="M 641.1626748576241 623.790482243984 L 631 628 L 641.1626748576241 632.209517756016"/></g><g transform="translate(10,10) scale(1,1)"><path fill="none" stroke="#000000" d="M 641.1626748576241 623.790482243984 L 631 628 L 641.1626748576241 632.209517756016 L 641.1626748576241 623.790482243984" stroke-miterlimit="10"/></g><g transform="translate(10,10) scale(1,1)"><g><path fill="none" stroke="none"/><text fill="#000000" stroke="none" font-family="Roboto" font-size="14px" font-style="normal" font-weight="normal" text-decoration="none" x="663.15576171875" y="620.5">Унищожаване на</text><text fill="#000000" stroke="none" font-family="Roboto" font-size="14px" font-style="normal" font-weight="normal" text-decoration="none" x="669.3662109375" y="634.5">HTTP връзката</text></g></g><g transform="translate(10,10) scale(1,1)"><rect fill="#ffffff" stroke="none" x="618" y="628" width="13" height="44"/></g><g transform="translate(10,10) scale(1,1)"><path fill="none" stroke="#000000" d="M 618 628 L 631 628 L 631 672 L 618 672 L 618 628 Z Z" stroke-miterlimit="10"/></g><g transform="translate(10,10) scale(1,1)"><path fill="none" stroke="#000000" d="M 246 640 L 82 640" stroke-miterlimit="10" stroke-dasharray="3"/></g><g transform="translate(10,10) scale(1,1)"><path fill="none" stroke="#000000" d="M 92.16267485762415 635.790482243984 L 82 640 L 92.16267485762415 644.209517756016" stroke-miterlimit="10"/></g><g transform="translate(10,10) scale(1,1)"><g><path fill="none" stroke="none"/><text fill="#000000" stroke="none" font-family="Roboto" font-size="14px" font-style="normal" font-weight="normal" text-decoration="none" x="112.3310546875" y="619.5">Обновяване на</text><text fill="#000000" stroke="none" font-family="Roboto" font-size="14px" font-style="normal" font-weight="normal" text-decoration="none" x="122.85498046875" y="633.5">интерфейса</text></g></g></g></svg>