<svg version="1.1" xmlns="http://www.w3.org/2000/svg" xmlns:xlink="http://www.w3.org/1999/xlink" width="1319" height="839"><defs/><g><g transform="translate(10,10) scale(1,1)"><path fill="none" stroke="#000000" d="M 0 0 L 1299 0 L 1299 819 L 0 819 L 0 0" stroke-miterlimit="10"/></g><g transform="translate(10,10) scale(1,1)"><path fill="#ffffff" stroke="none" d="M 0 0 L 0 23 L 171.6611328125 23 L 183.1611328125 11.5 L 183.1611328125 0 L 0 0"/></g><g transform="translate(10,10) scale(1,1)"><path fill="none" stroke="#000000" d="M 0 0 L 0 23 L 171.6611328125 23 L 183.1611328125 11.5 L 183.1611328125 0 L 0 0 L 0 0" stroke-miterlimit="10"/></g><g transform="translate(10,10) scale(1,1)"><g><path fill="none" stroke="none"/><text fill="#000000" stroke="none" font-family="Roboto" font-size="14px" font-style="normal" font-weight="normal" text-decoration="none" x="77.19921875" y="18.5">Generic Select</text></g></g><g transform="translate(10,10) scale(1,1)"><g><path fill="none" stroke="none"/><text fill="#000000" stroke="none" font-family="Roboto" font-size="14px" font-style="normal" font-weight="bold" text-decoration="none" x="5" y="18.5">interaction</text></g></g><g transform="translate(10,10) scale(1,1)"><path fill="#ffffff" stroke="none" d="M 91.3638778409091 47.3 C 91.3638778409091 43.82060576 94.24227956309092 41 97.79296875 41 C 101.34365793690908 41 104.2220596590909 43.82060576 104.2220596590909 47.3 C 104.2220596590909 50.779394239999995 101.34365793690908 53.6 97.79296875 53.6 C 94.24227956309092 53.6 91.3638778409091 50.779394239999995 91.3638778409091 47.3 Z"/></g><g transform="translate(10,10) scale(1,1)"><path fill="none" stroke="#000000" d="M 91.3638778409091 47.3 C 91.3638778409091 43.82060576 94.24227956309092 41 97.79296875 41 C 101.34365793690908 41 104.2220596590909 43.82060576 104.2220596590909 47.3 C 104.2220596590909 50.779394239999995 101.34365793690908 53.6 97.79296875 53.6 C 94.24227956309092 53.6 91.3638778409091 50.779394239999995 91.3638778409091 47.3 Z" stroke-miterlimit="10"/></g><g transform="translate(10,10) scale(1,1)"><path fill="none" stroke="#000000" d="M 97.79296875 53.6 L 97.79296875 66.4" stroke-miterlimit="10"/></g><g transform="translate(10,10) scale(1,1)"><path fill="none" stroke="#000000" d="M 90.98569602272727 58.4 L 104.60024147727273 58.4" stroke-miterlimit="10"/></g><g transform="translate(10,10) scale(1,1)"><path fill="none" stroke="#000000" d="M 97.79296875 66.4 L 88.33842329545455 79" stroke-miterlimit="10"/></g><g transform="translate(10,10) scale(1,1)"><path fill="none" stroke="#000000" d="M 97.79296875 66.4 L 107.24751420454545 79" stroke-miterlimit="10"/></g><g transform="translate(10,10) scale(1,1)"><g><path fill="none" stroke="none"/><text fill="#000000" stroke="none" font-family="Roboto" font-size="14px" font-style="normal" font-weight="bold" text-decoration="none" x="58.2265625" y="100.5">User: Person</text></g></g><g transform="translate(10,10) scale(1,1)"><path fill="none" stroke="#000000" d="M 98.5 106 L 98.5 693" stroke-miterlimit="10" stroke-dasharray="3"/></g><g transform="translate(10,10) scale(1,1)"><rect fill="#C0C0C0" stroke="none" x="247" y="47" width="74.466796875" height="39" opacity="0.2"/></g><g transform="translate(10,10) scale(1,1)"><rect fill="#ffffff" stroke="none" x="240" y="40" width="74.466796875" height="39"/></g><g transform="translate(10,10) scale(1,1)"><path fill="none" stroke="#000000" d="M 240 40 L 314.466796875 40 L 314.466796875 79 L 240 79 L 240 40 Z Z" stroke-miterlimit="10"/></g><g transform="translate(10,10) scale(1,1)"><g><path fill="none" stroke="none"/><text fill="#000000" stroke="none" font-family="Roboto" font-size="14px" font-style="normal" font-weight="bold" text-decoration="none" x="266.0224609375" y="60.5">GUI</text></g></g><g transform="translate(10,10) scale(1,1)"><path fill="none" stroke="#000000" d="M 278.5 80 L 278.5 664" stroke-miterlimit="10" stroke-dasharray="3"/></g><g transform="translate(10,10) scale(1,1)"><rect fill="#C0C0C0" stroke="none" x="415" y="47" width="114.2451171875" height="39" opacity="0.2"/></g><g transform="translate(10,10) scale(1,1)"><rect fill="#ffffff" stroke="none" x="408" y="40" width="114.2451171875" height="39"/></g><g transform="translate(10,10) scale(1,1)"><path fill="none" stroke="#000000" d="M 408 40 L 522.2451171875 40 L 522.2451171875 79 L 408 79 L 408 40 Z Z" stroke-miterlimit="10"/></g><g transform="translate(10,10) scale(1,1)"><g><path fill="none" stroke="none"/><text fill="#000000" stroke="none" font-family="Roboto" font-size="14px" font-style="normal" font-weight="bold" text-decoration="none" x="417.978515625" y="60.5">JSON Manager</text></g></g><g transform="translate(10,10) scale(1,1)"><path fill="none" stroke="#000000" d="M 466.5 80 L 466.5 656" stroke-miterlimit="10" stroke-dasharray="3"/></g><g transform="translate(10,10) scale(1,1)"><rect fill="#C0C0C0" stroke="none" x="607" y="47" width="138.4228515625" height="39" opacity="0.2"/></g><g transform="translate(10,10) scale(1,1)"><rect fill="#ffffff" stroke="none" x="600" y="40" width="138.4228515625" height="39"/></g><g transform="translate(10,10) scale(1,1)"><path fill="none" stroke="#000000" d="M 600 40 L 738.4228515625 40 L 738.4228515625 79 L 600 79 L 600 40 Z Z" stroke-miterlimit="10"/></g><g transform="translate(10,10) scale(1,1)"><g><path fill="none" stroke="none"/><text fill="#000000" stroke="none" font-family="Roboto" font-size="14px" font-style="normal" font-weight="bold" text-decoration="none" x="622.169921875" y="60.5">HTTP Manager</text></g></g><g transform="translate(10,10) scale(1,1)"><path fill="none" stroke="#000000" d="M 670.5 80 L 670.5 664" stroke-miterlimit="10" stroke-dasharray="3"/></g><g transform="translate(10,10) scale(1,1)"><rect fill="#C0C0C0" stroke="none" x="831" y="47" width="86.251953125" height="39" opacity="0.2"/></g><g transform="translate(10,10) scale(1,1)"><rect fill="#ffffff" stroke="none" x="824" y="40" width="86.251953125" height="39"/></g><g transform="translate(10,10) scale(1,1)"><path fill="none" stroke="#000000" d="M 824 40 L 910.251953125 40 L 910.251953125 79 L 824 79 L 824 40 Z Z" stroke-miterlimit="10"/></g><g transform="translate(10,10) scale(1,1)"><g><path fill="none" stroke="none"/><text fill="#000000" stroke="none" font-family="Roboto" font-size="14px" font-style="normal" font-weight="bold" text-decoration="none" x="834.7919921875" y="60.5">Server API</text></g></g><g transform="translate(10,10) scale(1,1)"><path fill="none" stroke="#000000" d="M 868.5 80 L 868.5 596" stroke-miterlimit="10" stroke-dasharray="3"/></g><g transform="translate(10,10) scale(1,1)"><rect fill="#C0C0C0" stroke="none" x="1023" y="47" width="77.994140625" height="39" opacity="0.2"/></g><g transform="translate(10,10) scale(1,1)"><rect fill="#ffffff" stroke="none" x="1016" y="40" width="77.994140625" height="39"/></g><g transform="translate(10,10) scale(1,1)"><path fill="none" stroke="#000000" d="M 1016 40 L 1093.994140625 40 L 1093.994140625 79 L 1016 79 L 1016 40 Z Z" stroke-miterlimit="10"/></g><g transform="translate(10,10) scale(1,1)"><g><path fill="none" stroke="none"/><text fill="#000000" stroke="none" font-family="Roboto" font-size="14px" font-style="normal" font-weight="bold" text-decoration="none" x="1025.4521484375" y="60.5">Database</text></g></g><g transform="translate(10,10) scale(1,1)"><path fill="none" stroke="#000000" d="M 1055.5 80 L 1055.5 544" stroke-miterlimit="10" stroke-dasharray="3"/></g><g transform="translate(10,10) scale(1,1)"><path fill="none" stroke="#000000" d="M 98 144 L 271 144" stroke-miterlimit="10"/></g><g transform="translate(10,10) scale(1,1)"><path fill="#000000" stroke="none" d="M 260.83732514237585 148.209517756016 L 271 144 L 260.83732514237585 139.790482243984"/></g><g transform="translate(10,10) scale(1,1)"><path fill="none" stroke="#000000" d="M 260.83732514237585 148.209517756016 L 271 144 L 260.83732514237585 139.790482243984 L 260.83732514237585 148.209517756016" stroke-miterlimit="10"/></g><g transform="translate(10,10) scale(1,1)"><g><path fill="none" stroke="none"/><text fill="#000000" stroke="none" font-family="Roboto" font-size="14px" font-style="normal" font-weight="normal" text-decoration="none" x="139.23486328125" y="124.5">Интеракция с</text><text fill="#000000" stroke="none" font-family="Roboto" font-size="14px" font-style="normal" font-weight="normal" text-decoration="none" x="136.06640625" y="138.5">приложението</text></g></g><g transform="translate(10,10) scale(1,1)"><rect fill="#ffffff" stroke="none" x="271" y="144" width="13" height="408"/></g><g transform="translate(10,10) scale(1,1)"><path fill="none" stroke="#000000" d="M 271 144 L 284 144 L 284 552 L 271 552 L 271 144 Z Z" stroke-miterlimit="10"/></g><g transform="translate(10,10) scale(1,1)"><path fill="none" stroke="#000000" d="M 284 160 L 459 160" stroke-miterlimit="10"/></g><g transform="translate(10,10) scale(1,1)"><path fill="#000000" stroke="none" d="M 448.83732514237585 164.209517756016 L 459 160 L 448.83732514237585 155.790482243984"/></g><g transform="translate(10,10) scale(1,1)"><path fill="none" stroke="#000000" d="M 448.83732514237585 164.209517756016 L 459 160 L 448.83732514237585 155.790482243984 L 448.83732514237585 164.209517756016" stroke-miterlimit="10"/></g><g transform="translate(10,10) scale(1,1)"><g><path fill="none" stroke="none"/><text fill="#000000" stroke="none" font-family="Roboto" font-size="14px" font-style="normal" font-weight="normal" text-decoration="none" x="300.5" y="156.5">Създаване на заявка</text></g></g><g transform="translate(10,10) scale(1,1)"><rect fill="#ffffff" stroke="none" x="459" y="160" width="13" height="360"/></g><g transform="translate(10,10) scale(1,1)"><path fill="none" stroke="#000000" d="M 459 160 L 472 160 L 472 520 L 459 520 L 459 160 Z Z" stroke-miterlimit="10"/></g><g transform="translate(10,10) scale(1,1)"><path fill="none" stroke="#000000" d="M 284 200 L 314 200 L 314 220 L 291 220" stroke-miterlimit="10"/></g><g transform="translate(10,10) scale(1,1)"><path fill="#000000" stroke="none" d="M 301.16267485762415 215.790482243984 L 291 220 L 301.16267485762415 224.209517756016"/></g><g transform="translate(10,10) scale(1,1)"><path fill="none" stroke="#000000" d="M 301.16267485762415 215.790482243984 L 291 220 L 301.16267485762415 224.209517756016 L 301.16267485762415 215.790482243984" stroke-miterlimit="10"/></g><g transform="translate(10,10) scale(1,1)"><g><path fill="none" stroke="none"/><text fill="#000000" stroke="none" font-family="Roboto" font-size="14px" font-style="normal" font-weight="normal" text-decoration="none" x="317.24267578125" y="236.5">Показване на</text><text fill="#000000" stroke="none" font-family="Roboto" font-size="14px" font-style="normal" font-weight="normal" text-decoration="none" x="316.2685546875" y="250.5">съобщение за</text><text fill="#000000" stroke="none" font-family="Roboto" font-size="14px" font-style="normal" font-weight="normal" text-decoration="none" x="327.96142578125" y="264.5">изчакване</text></g></g><g transform="translate(10,10) scale(1,1)"><rect fill="#ffffff" stroke="none" x="278" y="220" width="13" height="268"/></g><g transform="translate(10,10) scale(1,1)"><path fill="none" stroke="#000000" d="M 278 220 L 291 220 L 291 488 L 278 488 L 278 220 Z Z" stroke-miterlimit="10"/></g><g transform="translate(10,10) scale(1,1)"><path fill="none" stroke="#000000" d="M 676 184 L 861 184" stroke-miterlimit="10"/></g><g transform="translate(10,10) scale(1,1)"><path fill="#000000" stroke="none" d="M 850.8373251423759 188.209517756016 L 861 184 L 850.8373251423758 179.790482243984"/></g><g transform="translate(10,10) scale(1,1)"><path fill="none" stroke="#000000" d="M 850.8373251423759 188.209517756016 L 861 184 L 850.8373251423758 179.790482243984 L 850.8373251423759 188.209517756016" stroke-miterlimit="10"/></g><g transform="translate(10,10) scale(1,1)"><g><path fill="none" stroke="none"/><text fill="#000000" stroke="none" font-family="Roboto" font-size="14px" font-style="normal" font-weight="normal" text-decoration="none" x="720.76025390625" y="148.5">Изпращане на</text><text fill="#000000" stroke="none" font-family="Roboto" font-size="14px" font-style="normal" font-weight="normal" text-decoration="none" x="693.90869140625" y="162.5">кодираната завка към</text><text fill="#000000" stroke="none" font-family="Roboto" font-size="14px" font-style="normal" font-weight="normal" text-decoration="none" x="739.986328125" y="176.5">сървъра</text></g></g><g transform="translate(10,10) scale(1,1)"><rect fill="#ffffff" stroke="none" x="861" y="184" width="13" height="288"/></g><g transform="translate(10,10) scale(1,1)"><path fill="none" stroke="#000000" d="M 861 184 L 874 184 L 874 472 L 861 472 L 861 184 Z Z" stroke-miterlimit="10"/></g><g transform="translate(10,10) scale(1,1)"><path fill="none" stroke="#000000" d="M 472 176 L 663 176" stroke-miterlimit="10"/></g><g transform="translate(10,10) scale(1,1)"><path fill="#000000" stroke="none" d="M 652.8373251423759 180.209517756016 L 663 176 L 652.8373251423758 171.790482243984"/></g><g transform="translate(10,10) scale(1,1)"><path fill="none" stroke="#000000" d="M 652.8373251423759 180.209517756016 L 663 176 L 652.8373251423758 171.790482243984 L 652.8373251423759 180.209517756016" stroke-miterlimit="10"/></g><g transform="translate(10,10) scale(1,1)"><g><path fill="none" stroke="none"/><text fill="#000000" stroke="none" font-family="Roboto" font-size="14px" font-style="normal" font-weight="normal" text-decoration="none" x="493.5" y="172.5">Кодиране на заявката</text></g></g><g transform="translate(10,10) scale(1,1)"><rect fill="#ffffff" stroke="none" x="663" y="176" width="13" height="314"/></g><g transform="translate(10,10) scale(1,1)"><path fill="none" stroke="#000000" d="M 663 176 L 676 176 L 676 490 L 663 490 L 663 176 Z Z" stroke-miterlimit="10"/></g><g transform="translate(10,10) scale(1,1)"><path fill="none" stroke="#000000" d="M 874 200 L 904 200 L 904 220 L 881 220" stroke-miterlimit="10"/></g><g transform="translate(10,10) scale(1,1)"><path fill="#000000" stroke="none" d="M 891.1626748576241 215.790482243984 L 881 220 L 891.1626748576241 224.209517756016"/></g><g transform="translate(10,10) scale(1,1)"><path fill="none" stroke="#000000" d="M 891.1626748576241 215.790482243984 L 881 220 L 891.1626748576241 224.209517756016 L 891.1626748576241 215.790482243984" stroke-miterlimit="10"/></g><g transform="translate(10,10) scale(1,1)"><g><path fill="none" stroke="none"/><text fill="#000000" stroke="none" font-family="Roboto" font-size="14px" font-style="normal" font-weight="normal" text-decoration="none" x="885.5" y="196.5">Декодиране на заявката</text></g></g><g transform="translate(10,10) scale(1,1)"><rect fill="#ffffff" stroke="none" x="868" y="220" width="13" height="28"/></g><g transform="translate(10,10) scale(1,1)"><path fill="none" stroke="#000000" d="M 868 220 L 881 220 L 881 248 L 868 248 L 868 220 Z Z" stroke-miterlimit="10"/></g><g transform="translate(10,10) scale(1,1)"><path fill="none" stroke="#000000" d="M 874 280 L 1048 280" stroke-miterlimit="10"/></g><g transform="translate(10,10) scale(1,1)"><path fill="#000000" stroke="none" d="M 1037.837325142376 284.209517756016 L 1048 280 L 1037.837325142376 275.790482243984"/></g><g transform="translate(10,10) scale(1,1)"><path fill="none" stroke="#000000" d="M 1037.837325142376 284.209517756016 L 1048 280 L 1037.837325142376 275.790482243984 L 1037.837325142376 284.209517756016" stroke-miterlimit="10"/></g><g transform="translate(10,10) scale(1,1)"><g><path fill="none" stroke="none"/><text fill="#000000" stroke="none" font-family="Roboto" font-size="14px" font-style="normal" font-weight="normal" text-decoration="none" x="876.5" y="276.5">Заявка към базата данни</text></g></g><g transform="translate(10,10) scale(1,1)"><rect fill="#ffffff" stroke="none" x="1048" y="280" width="13" height="80"/></g><g transform="translate(10,10) scale(1,1)"><path fill="none" stroke="#000000" d="M 1048 280 L 1061 280 L 1061 360 L 1048 360 L 1048 280 Z Z" stroke-miterlimit="10"/></g><g transform="translate(10,10) scale(1,1)"><path fill="none" stroke="#000000" d="M 1048 352 L 874 352" stroke-miterlimit="10" stroke-dasharray="3"/></g><g transform="translate(10,10) scale(1,1)"><path fill="none" stroke="#000000" d="M 884.1626748576241 347.790482243984 L 874 352 L 884.1626748576241 356.209517756016" stroke-miterlimit="10"/></g><g transform="translate(10,10) scale(1,1)"><g><path fill="none" stroke="none"/><text fill="#000000" stroke="none" font-family="Roboto" font-size="14px" font-style="normal" font-weight="normal" text-decoration="none" x="917.33203125" y="331.5">Връщане на</text><text fill="#000000" stroke="none" font-family="Roboto" font-size="14px" font-style="normal" font-weight="normal" text-decoration="none" x="914.7822265625" y="345.5">информация</text></g></g><g transform="translate(10,10) scale(1,1)"><path fill="none" stroke="#000000" d="M 874 384 L 904 384 L 904 404 L 881 404" stroke-miterlimit="10"/></g><g transform="translate(10,10) scale(1,1)"><path fill="#000000" stroke="none" d="M 891.1626748576241 399.790482243984 L 881 404 L 891.1626748576241 408.209517756016"/></g><g transform="translate(10,10) scale(1,1)"><path fill="none" stroke="#000000" d="M 891.1626748576241 399.790482243984 L 881 404 L 891.1626748576241 408.209517756016 L 891.1626748576241 399.790482243984" stroke-miterlimit="10"/></g><g transform="translate(10,10) scale(1,1)"><g><path fill="none" stroke="none"/><text fill="#000000" stroke="none" font-family="Roboto" font-size="14px" font-style="normal" font-weight="normal" text-decoration="none" x="898.5" y="428.5">Кодиране на отговора</text></g></g><g transform="translate(10,10) scale(1,1)"><rect fill="#ffffff" stroke="none" x="868" y="404" width="13" height="28"/></g><g transform="translate(10,10) scale(1,1)"><path fill="none" stroke="#000000" d="M 868 404 L 881 404 L 881 432 L 868 432 L 868 404 Z Z" stroke-miterlimit="10"/></g><g transform="translate(10,10) scale(1,1)"><path fill="none" stroke="#000000" d="M 861 456 L 676 456" stroke-miterlimit="10" stroke-dasharray="3"/></g><g transform="translate(10,10) scale(1,1)"><path fill="none" stroke="#000000" d="M 686.1626748576241 451.790482243984 L 676 456 L 686.1626748576241 460.209517756016" stroke-miterlimit="10"/></g><g transform="translate(10,10) scale(1,1)"><g><path fill="none" stroke="none"/><text fill="#000000" stroke="none" font-family="Roboto" font-size="14px" font-style="normal" font-weight="normal" text-decoration="none" x="698.5" y="451.5">Връщане на отговор</text></g></g><g transform="translate(10,10) scale(1,1)"><path fill="none" stroke="#000000" d="M 663 480 L 472 480" stroke-miterlimit="10" stroke-dasharray="3"/></g><g transform="translate(10,10) scale(1,1)"><path fill="none" stroke="#000000" d="M 482.16267485762415 475.790482243984 L 472 480 L 482.16267485762415 484.209517756016" stroke-miterlimit="10"/></g><g transform="translate(10,10) scale(1,1)"><g><path fill="none" stroke="none"/><text fill="#000000" stroke="none" font-family="Roboto" font-size="14px" font-style="normal" font-weight="normal" text-decoration="none" x="486.5" y="476.5">Декодиране на отговора</text></g></g><g transform="translate(10,10) scale(1,1)"><path fill="none" stroke="#000000" d="M 271 538 L 98 538" stroke-miterlimit="10" stroke-dasharray="3"/></g><g transform="translate(10,10) scale(1,1)"><path fill="none" stroke="#000000" d="M 108.16267485762415 533.790482243984 L 98 538 L 108.16267485762415 542.209517756016" stroke-miterlimit="10"/></g><g transform="translate(10,10) scale(1,1)"><g><path fill="none" stroke="none"/><text fill="#000000" stroke="none" font-family="Roboto" font-size="14px" font-style="normal" font-weight="normal" text-decoration="none" x="139.24267578125" y="516.5">Показване на</text><text fill="#000000" stroke="none" font-family="Roboto" font-size="14px" font-style="normal" font-weight="normal" text-decoration="none" x="112.0185546875" y="530.5">обновения интерфейс</text></g></g><g transform="translate(10,10) scale(1,1)"><path fill="none" stroke="#000000" d="M 459 512 L 284 512" stroke-miterlimit="10" stroke-dasharray="3"/></g><g transform="translate(10,10) scale(1,1)"><path fill="none" stroke="#000000" d="M 294.16267485762415 507.790482243984 L 284 512 L 294.16267485762415 516.209517756016" stroke-miterlimit="10"/></g><g transform="translate(10,10) scale(1,1)"><g><path fill="none" stroke="none"/><text fill="#000000" stroke="none" font-family="Roboto" font-size="14px" font-style="normal" font-weight="normal" text-decoration="none" x="325.3310546875" y="492.5">Обновяване на</text><text fill="#000000" stroke="none" font-family="Roboto" font-size="14px" font-style="normal" font-weight="normal" text-decoration="none" x="335.85498046875" y="506.5">интерфейса</text></g></g></g></svg>