<svg version="1.1" xmlns="http://www.w3.org/2000/svg" xmlns:xlink="http://www.w3.org/1999/xlink" width="941" height="707"><defs/><g><g transform="translate(-103,-118) scale(1,1)"><path fill="#ffffff" stroke="none" d="M 148.12541477272728 329.68 C 148.12541477272728 324.886167936 152.01125709767274 321 156.8046875 321 C 161.59811790232726 321 165.48396022727272 324.886167936 165.48396022727272 329.68 C 165.48396022727272 334.473832064 161.59811790232726 338.36 156.8046875 338.36 C 152.01125709767274 338.36 148.12541477272728 334.473832064 148.12541477272728 329.68 Z"/></g><g transform="translate(-103,-118) scale(1,1)"><path fill="none" stroke="#000000" d="M 148.12541477272728 329.68 C 148.12541477272728 324.886167936 152.01125709767274 321 156.8046875 321 C 161.59811790232726 321 165.48396022727272 324.886167936 165.48396022727272 329.68 C 165.48396022727272 334.473832064 161.59811790232726 338.36 156.8046875 338.36 C 152.01125709767274 338.36 148.12541477272728 334.473832064 148.12541477272728 329.68 Z" stroke-miterlimit="10"/></g><g transform="translate(-103,-118) scale(1,1)"><path fill="none" stroke="#000000" d="M 156.8046875 338.36 L 156.8046875 355.64" stroke-miterlimit="10"/></g><g transform="translate(-103,-118) scale(1,1)"><path fill="none" stroke="#000000" d="M 147.61486931818183 344.84 L 165.99450568181817 344.84" stroke-miterlimit="10"/></g><g transform="translate(-103,-118) scale(1,1)"><path fill="none" stroke="#000000" d="M 156.8046875 355.64 L 144.04105113636365 373" stroke-miterlimit="10"/></g><g transform="translate(-103,-118) scale(1,1)"><path fill="none" stroke="#000000" d="M 156.8046875 355.64 L 169.56832386363635 373" stroke-miterlimit="10"/></g><g transform="translate(-103,-118) scale(1,1)"><g><path fill="none" stroke="none"/><text fill="#000000" stroke="none" font-family="Arial" font-size="13px" font-style="normal" font-weight="bold" text-decoration="none" x="119.959716796875" y="393.5">Book Wizard</text></g></g><g transform="translate(-103,-118) scale(1,1)"><path fill="#ffffff" stroke="none" d="M 148.60026828835228 486.68 C 148.60026828835228 481.886167936 152.48611061329774 478 157.279541015625 478 C 162.07297141795226 478 165.95881374289772 481.886167936 165.95881374289772 486.68 C 165.95881374289772 491.473832064 162.07297141795226 495.36 157.279541015625 495.36 C 152.48611061329774 495.36 148.60026828835228 491.473832064 148.60026828835228 486.68 Z"/></g><g transform="translate(-103,-118) scale(1,1)"><path fill="none" stroke="#000000" d="M 148.60026828835228 486.68 C 148.60026828835228 481.886167936 152.48611061329774 478 157.279541015625 478 C 162.07297141795226 478 165.95881374289772 481.886167936 165.95881374289772 486.68 C 165.95881374289772 491.473832064 162.07297141795226 495.36 157.279541015625 495.36 C 152.48611061329774 495.36 148.60026828835228 491.473832064 148.60026828835228 486.68 Z" stroke-miterlimit="10"/></g><g transform="translate(-103,-118) scale(1,1)"><path fill="none" stroke="#000000" d="M 157.279541015625 495.36 L 157.279541015625 512.64" stroke-miterlimit="10"/></g><g transform="translate(-103,-118) scale(1,1)"><path fill="none" stroke="#000000" d="M 148.08972283380683 501.84 L 166.46935919744317 501.84" stroke-miterlimit="10"/></g><g transform="translate(-103,-118) scale(1,1)"><path fill="none" stroke="#000000" d="M 157.279541015625 512.64 L 144.51590465198865 530" stroke-miterlimit="10"/></g><g transform="translate(-103,-118) scale(1,1)"><path fill="none" stroke="#000000" d="M 157.279541015625 512.64 L 170.04317737926135 530" stroke-miterlimit="10"/></g><g transform="translate(-103,-118) scale(1,1)"><g><path fill="none" stroke="none"/><text fill="#000000" stroke="none" font-family="Arial" font-size="13px" font-style="normal" font-weight="bold" text-decoration="none" x="127.655029296875" y="550.5">Moderator</text></g></g><g transform="translate(-103,-118) scale(1,1)"><path fill="#ffffff" stroke="none" d="M 152.40935031960228 745.6800000000001 C 152.40935031960228 740.8861679360001 156.29519264454774 737 161.088623046875 737 C 165.88205344920226 737 169.76789577414772 740.8861679360001 169.76789577414772 745.6800000000001 C 169.76789577414772 750.473832064 165.88205344920226 754.36 161.088623046875 754.36 C 156.29519264454774 754.36 152.40935031960228 750.473832064 152.40935031960228 745.6800000000001 Z"/></g><g transform="translate(-103,-118) scale(1,1)"><path fill="none" stroke="#000000" d="M 152.40935031960228 745.6800000000001 C 152.40935031960228 740.8861679360001 156.29519264454774 737 161.088623046875 737 C 165.88205344920226 737 169.76789577414772 740.8861679360001 169.76789577414772 745.6800000000001 C 169.76789577414772 750.473832064 165.88205344920226 754.36 161.088623046875 754.36 C 156.29519264454774 754.36 152.40935031960228 750.473832064 152.40935031960228 745.6800000000001 Z" stroke-miterlimit="10"/></g><g transform="translate(-103,-118) scale(1,1)"><path fill="none" stroke="#000000" d="M 161.088623046875 754.36 L 161.088623046875 771.64" stroke-miterlimit="10"/></g><g transform="translate(-103,-118) scale(1,1)"><path fill="none" stroke="#000000" d="M 151.89880486505683 760.84 L 170.27844122869317 760.84" stroke-miterlimit="10"/></g><g transform="translate(-103,-118) scale(1,1)"><path fill="none" stroke="#000000" d="M 161.088623046875 771.64 L 148.32498668323865 789" stroke-miterlimit="10"/></g><g transform="translate(-103,-118) scale(1,1)"><path fill="none" stroke="#000000" d="M 161.088623046875 771.64 L 173.85225941051135 789" stroke-miterlimit="10"/></g><g transform="translate(-103,-118) scale(1,1)"><g><path fill="none" stroke="none"/><text fill="#000000" stroke="none" font-family="Arial" font-size="13px" font-style="normal" font-weight="bold" text-decoration="none" x="142.66455078125" y="809.5">Admin</text></g></g><g transform="translate(-103,-118) scale(1,1)"><path fill="#ffffff" stroke="none" d="M 225.12028781960228 625.6800000000001 C 225.12028781960228 620.8861679360001 229.00613014454774 617 233.799560546875 617 C 238.59299094920226 617 242.47883327414772 620.8861679360001 242.47883327414772 625.6800000000001 C 242.47883327414772 630.473832064 238.59299094920226 634.36 233.799560546875 634.36 C 229.00613014454774 634.36 225.12028781960228 630.473832064 225.12028781960228 625.6800000000001 Z"/></g><g transform="translate(-103,-118) scale(1,1)"><path fill="none" stroke="#000000" d="M 225.12028781960228 625.6800000000001 C 225.12028781960228 620.8861679360001 229.00613014454774 617 233.799560546875 617 C 238.59299094920226 617 242.47883327414772 620.8861679360001 242.47883327414772 625.6800000000001 C 242.47883327414772 630.473832064 238.59299094920226 634.36 233.799560546875 634.36 C 229.00613014454774 634.36 225.12028781960228 630.473832064 225.12028781960228 625.6800000000001 Z" stroke-miterlimit="10"/></g><g transform="translate(-103,-118) scale(1,1)"><path fill="none" stroke="#000000" d="M 233.799560546875 634.36 L 233.799560546875 651.64" stroke-miterlimit="10"/></g><g transform="translate(-103,-118) scale(1,1)"><path fill="none" stroke="#000000" d="M 224.60974236505683 640.84 L 242.98937872869317 640.84" stroke-miterlimit="10"/></g><g transform="translate(-103,-118) scale(1,1)"><path fill="none" stroke="#000000" d="M 233.799560546875 651.64 L 221.03592418323865 669" stroke-miterlimit="10"/></g><g transform="translate(-103,-118) scale(1,1)"><path fill="none" stroke="#000000" d="M 233.799560546875 651.64 L 246.56319691051135 669" stroke-miterlimit="10"/></g><g transform="translate(-103,-118) scale(1,1)"><g><path fill="none" stroke="none"/><text fill="#000000" stroke="none" font-family="Arial" font-size="13px" font-style="normal" font-weight="bold" text-decoration="none" x="214.648681640625" y="689.5">Author</text></g></g><g transform="translate(-103,-118) scale(1,1)"><path fill="#C0C0C0" stroke="none" d="M 343 792 C 343 782.6111584 413.7390016 775 501 775 C 588.2609984000001 775 659 782.6111584 659 792 C 659 801.3888416 588.2609984000001 809 501 809 C 413.7390016 809 343 801.3888416 343 792 Z" opacity="0.2"/></g><g transform="translate(-103,-118) scale(1,1)"><path fill="#ffffff" stroke="none" d="M 336 785 C 336 775.6111584 406.7390016 768 494 768 C 581.2609984000001 768 652 775.6111584 652 785 C 652 794.3888416 581.2609984000001 802 494 802 C 406.7390016 802 336 794.3888416 336 785 Z"/></g><g transform="translate(-103,-118) scale(1,1)"><path fill="none" stroke="#000000" d="M 336 785 C 336 775.6111584 406.7390016 768 494 768 C 581.2609984000001 768 652 775.6111584 652 785 C 652 794.3888416 581.2609984000001 802 494 802 C 406.7390016 802 336 794.3888416 336 785 Z" stroke-miterlimit="10"/></g><g transform="translate(-103,-118) scale(1,1)"><g><path fill="none" stroke="none"/><text fill="#000000" stroke="none" font-family="Arial" font-size="13px" font-style="normal" font-weight="bold" text-decoration="none" x="393.40234375" y="792">Промяна на ранк на потребители</text></g></g><g transform="translate(-103,-118) scale(1,1)"><path fill="#C0C0C0" stroke="none" d="M 384 661 C 384 651.6111584 453.1719984 644 538.5 644 C 623.8280016 644 693 651.6111584 693 661 C 693 670.3888416 623.8280016 678 538.5 678 C 453.1719984 678 384 670.3888416 384 661 Z" opacity="0.2"/></g><g transform="translate(-103,-118) scale(1,1)"><path fill="#ffffff" stroke="none" d="M 377 654 C 377 644.6111584 446.1719984 637 531.5 637 C 616.8280016 637 686 644.6111584 686 654 C 686 663.3888416 616.8280016 671 531.5 671 C 446.1719984 671 377 663.3888416 377 654 Z"/></g><g transform="translate(-103,-118) scale(1,1)"><path fill="none" stroke="#000000" d="M 377 654 C 377 644.6111584 446.1719984 637 531.5 637 C 616.8280016 637 686 644.6111584 686 654 C 686 663.3888416 616.8280016 671 531.5 671 C 446.1719984 671 377 663.3888416 377 654 Z" stroke-miterlimit="10"/></g><g transform="translate(-103,-118) scale(1,1)"><g><path fill="none" stroke="none"/><text fill="#000000" stroke="none" font-family="Arial" font-size="13px" font-style="normal" font-weight="bold" text-decoration="none" x="434.104736328125" y="661">Добавяне на книга към каталога</text></g></g><g transform="translate(-103,-118) scale(1,1)"><path fill="#C0C0C0" stroke="none" d="M 344 429 C 344 419.6111584 405.7846976 412 482 412 C 558.2153024 412 620 419.6111584 620 429 C 620 438.3888416 558.2153024 446 482 446 C 405.7846976 446 344 438.3888416 344 429 Z" opacity="0.2"/></g><g transform="translate(-103,-118) scale(1,1)"><path fill="#ffffff" stroke="none" d="M 337 422 C 337 412.6111584 398.7846976 405 475 405 C 551.2153024 405 613 412.6111584 613 422 C 613 431.3888416 551.2153024 439 475 439 C 398.7846976 439 337 431.3888416 337 422 Z"/></g><g transform="translate(-103,-118) scale(1,1)"><path fill="none" stroke="#000000" d="M 337 422 C 337 412.6111584 398.7846976 405 475 405 C 551.2153024 405 613 412.6111584 613 422 C 613 431.3888416 551.2153024 439 475 439 C 398.7846976 439 337 431.3888416 337 422 Z" stroke-miterlimit="10"/></g><g transform="translate(-103,-118) scale(1,1)"><g><path fill="none" stroke="none"/><text fill="#000000" stroke="none" font-family="Arial" font-size="13px" font-style="normal" font-weight="bold" text-decoration="none" x="387.538818359375" y="429">Управление на предложения</text></g></g><g transform="translate(-103,-118) scale(1,1)"><path fill="#C0C0C0" stroke="none" d="M 680 493 C 680 483.6111584 760.1410208 476 859 476 C 957.8589792 476 1038 483.6111584 1038 493 C 1038 502.3888416 957.8589792 510 859 510 C 760.1410208 510 680 502.3888416 680 493 Z" opacity="0.2"/></g><g transform="translate(-103,-118) scale(1,1)"><path fill="#ffffff" stroke="none" d="M 673 486 C 673 476.6111584 753.1410208 469 852 469 C 950.8589792 469 1031 476.6111584 1031 486 C 1031 495.3888416 950.8589792 503 852 503 C 753.1410208 503 673 495.3888416 673 486 Z"/></g><g transform="translate(-103,-118) scale(1,1)"><path fill="none" stroke="#000000" d="M 673 486 C 673 476.6111584 753.1410208 469 852 469 C 950.8589792 469 1031 476.6111584 1031 486 C 1031 495.3888416 950.8589792 503 852 503 C 753.1410208 503 673 495.3888416 673 486 Z" stroke-miterlimit="10"/></g><g transform="translate(-103,-118) scale(1,1)"><g><path fill="none" stroke="none"/><text fill="#000000" stroke="none" font-family="Arial" font-size="13px" font-style="normal" font-weight="bold" text-decoration="none" x="737.158203125" y="493">Одобряване на предложение за книга</text></g></g><g transform="translate(-103,-118) scale(1,1)"><path fill="#C0C0C0" stroke="none" d="M 680 365 C 680 355.6111584 760.8125936 348 860.5 348 C 960.1874064 348 1041 355.6111584 1041 365 C 1041 374.3888416 960.1874064 382 860.5 382 C 760.8125936 382 680 374.3888416 680 365 Z" opacity="0.2"/></g><g transform="translate(-103,-118) scale(1,1)"><path fill="#ffffff" stroke="none" d="M 673 358 C 673 348.6111584 753.8125936 341 853.5 341 C 953.1874064 341 1034 348.6111584 1034 358 C 1034 367.3888416 953.1874064 375 853.5 375 C 753.8125936 375 673 367.3888416 673 358 Z"/></g><g transform="translate(-103,-118) scale(1,1)"><path fill="none" stroke="#000000" d="M 673 358 C 673 348.6111584 753.8125936 341 853.5 341 C 953.1874064 341 1034 348.6111584 1034 358 C 1034 367.3888416 953.1874064 375 853.5 375 C 753.8125936 375 673 367.3888416 673 358 Z" stroke-miterlimit="10"/></g><g transform="translate(-103,-118) scale(1,1)"><g><path fill="none" stroke="none"/><text fill="#000000" stroke="none" font-family="Arial" font-size="13px" font-style="normal" font-weight="bold" text-decoration="none" x="737.506103515625" y="365">Одобряване на предложение за автор</text></g></g><g transform="translate(-103,-118) scale(1,1)"><path fill="#C0C0C0" stroke="none" d="M 680 413 C 680 403.6111584 760.1410208 396 859 396 C 957.8589792 396 1038 403.6111584 1038 413 C 1038 422.3888416 957.8589792 430 859 430 C 760.1410208 430 680 422.3888416 680 413 Z" opacity="0.2"/></g><g transform="translate(-103,-118) scale(1,1)"><path fill="#ffffff" stroke="none" d="M 673 406 C 673 396.6111584 753.1410208 389 852 389 C 950.8589792 389 1031 396.6111584 1031 406 C 1031 415.3888416 950.8589792 423 852 423 C 753.1410208 423 673 415.3888416 673 406 Z"/></g><g transform="translate(-103,-118) scale(1,1)"><path fill="none" stroke="#000000" d="M 673 406 C 673 396.6111584 753.1410208 389 852 389 C 950.8589792 389 1031 396.6111584 1031 406 C 1031 415.3888416 950.8589792 423 852 423 C 753.1410208 423 673 415.3888416 673 406 Z" stroke-miterlimit="10"/></g><g transform="translate(-103,-118) scale(1,1)"><g><path fill="none" stroke="none"/><text fill="#000000" stroke="none" font-family="Arial" font-size="13px" font-style="normal" font-weight="bold" text-decoration="none" x="737.970703125" y="413">Отхвърляне на предложение за книга</text></g></g><g transform="translate(-103,-118) scale(1,1)"><path fill="#C0C0C0" stroke="none" d="M 680 453 C 680 443.6111584 760.8125936 436 860.5 436 C 960.1874064 436 1041 443.6111584 1041 453 C 1041 462.3888416 960.1874064 470 860.5 470 C 760.8125936 470 680 462.3888416 680 453 Z" opacity="0.2"/></g><g transform="translate(-103,-118) scale(1,1)"><path fill="#ffffff" stroke="none" d="M 673 446 C 673 436.6111584 753.8125936 429 853.5 429 C 953.1874064 429 1034 436.6111584 1034 446 C 1034 455.3888416 953.1874064 463 853.5 463 C 753.8125936 463 673 455.3888416 673 446 Z"/></g><g transform="translate(-103,-118) scale(1,1)"><path fill="none" stroke="#000000" d="M 673 446 C 673 436.6111584 753.8125936 429 853.5 429 C 953.1874064 429 1034 436.6111584 1034 446 C 1034 455.3888416 953.1874064 463 853.5 463 C 753.8125936 463 673 455.3888416 673 446 Z" stroke-miterlimit="10"/></g><g transform="translate(-103,-118) scale(1,1)"><g><path fill="none" stroke="none"/><text fill="#000000" stroke="none" font-family="Arial" font-size="13px" font-style="normal" font-weight="bold" text-decoration="none" x="738.318603515625" y="453">Отхвърляне на предложение за автор</text></g></g><g transform="translate(-103,-118) scale(1,1)"><path fill="#C0C0C0" stroke="none" d="M 352 189 C 352 179.6111584 465.49580319999995 172 605.5 172 C 745.5041968 172 859 179.6111584 859 189 C 859 198.3888416 745.5041968 206 605.5 206 C 465.49580319999995 206 352 198.3888416 352 189 Z" opacity="0.2"/></g><g transform="translate(-103,-118) scale(1,1)"><path fill="#ffffff" stroke="none" d="M 345 182 C 345 172.6111584 458.49580319999995 165 598.5 165 C 738.5041968 165 852 172.6111584 852 182 C 852 191.3888416 738.5041968 199 598.5 199 C 458.49580319999995 199 345 191.3888416 345 182 Z"/></g><g transform="translate(-103,-118) scale(1,1)"><path fill="none" stroke="#000000" d="M 345 182 C 345 172.6111584 458.49580319999995 165 598.5 165 C 738.5041968 165 852 172.6111584 852 182 C 852 191.3888416 738.5041968 199 598.5 199 C 458.49580319999995 199 345 191.3888416 345 182 Z" stroke-miterlimit="10"/></g><g transform="translate(-103,-118) scale(1,1)"><g><path fill="none" stroke="none"/><text fill="#000000" stroke="none" font-family="Arial" font-size="13px" font-style="normal" font-weight="bold" text-decoration="none" x="434.759033203125" y="189">Предлагане на нова книга за добавяне към системата</text></g></g><g transform="translate(-103,-118) scale(1,1)"><path fill="#C0C0C0" stroke="none" d="M 352 261 C 352 251.6111584 463.9288 244 602 244 C 740.0712 244 852 251.6111584 852 261 C 852 270.3888416 740.0712 278 602 278 C 463.9288 278 352 270.3888416 352 261 Z" opacity="0.2"/></g><g transform="translate(-103,-118) scale(1,1)"><path fill="#ffffff" stroke="none" d="M 345 254 C 345 244.6111584 456.9288 237 595 237 C 733.0712 237 845 244.6111584 845 254 C 845 263.3888416 733.0712 271 595 271 C 456.9288 271 345 263.3888416 345 254 Z"/></g><g transform="translate(-103,-118) scale(1,1)"><path fill="none" stroke="#000000" d="M 345 254 C 345 244.6111584 456.9288 237 595 237 C 733.0712 237 845 244.6111584 845 254 C 845 263.3888416 733.0712 271 595 271 C 456.9288 271 345 263.3888416 345 254 Z" stroke-miterlimit="10"/></g><g transform="translate(-103,-118) scale(1,1)"><g><path fill="none" stroke="none"/><text fill="#000000" stroke="none" font-family="Arial" font-size="13px" font-style="normal" font-weight="bold" text-decoration="none" x="433.64892578125" y="261">Предлагане на нов автор за добавяне към системата</text></g></g><g transform="translate(-103,-118) scale(1,1)"><path fill="none" stroke="#000000" d="M 202 321 L 320 224 L 479 200" stroke-miterlimit="10"/></g><g transform="translate(-103,-118) scale(1,1)"><path fill="none" stroke="#000000" d="M 202 348 L 520 272" stroke-miterlimit="10"/></g><g transform="translate(-103,-118) scale(1,1)"><path fill="none" stroke="#000000" d="M 195 505 L 414 440" stroke-miterlimit="10"/></g><g transform="translate(-103,-118) scale(1,1)"><path fill="#C0C0C0" stroke="none" d="M 320 533 C 320 523.6111584 416.9303408 516 536.5 516 C 656.0696592 516 753 523.6111584 753 533 C 753 542.3888416 656.0696592 550 536.5 550 C 416.9303408 550 320 542.3888416 320 533 Z" opacity="0.2"/></g><g transform="translate(-103,-118) scale(1,1)"><path fill="#ffffff" stroke="none" d="M 313 526 C 313 516.6111584 409.9303408 509 529.5 509 C 649.0696592 509 746 516.6111584 746 526 C 746 535.3888416 649.0696592 543 529.5 543 C 409.9303408 543 313 535.3888416 313 526 Z"/></g><g transform="translate(-103,-118) scale(1,1)"><path fill="none" stroke="#000000" d="M 313 526 C 313 516.6111584 409.9303408 509 529.5 509 C 649.0696592 509 746 516.6111584 746 526 C 746 535.3888416 649.0696592 543 529.5 543 C 409.9303408 543 313 535.3888416 313 526 Z" stroke-miterlimit="10"/></g><g transform="translate(-103,-118) scale(1,1)"><g><path fill="none" stroke="none"/><text fill="#000000" stroke="none" font-family="Arial" font-size="13px" font-style="normal" font-weight="bold" text-decoration="none" x="390.445068359375" y="533">Редактиране на ревюта на други потребители</text></g></g><g transform="translate(-103,-118) scale(1,1)"><path fill="none" stroke="#000000" d="M 195 517 L 312 520" stroke-miterlimit="10"/></g><g transform="translate(-103,-118) scale(1,1)"><path fill="none" stroke="#000000" d="M 187 776 L 335 780" stroke-miterlimit="10"/></g><g transform="translate(-103,-118) scale(1,1)"><path fill="#C0C0C0" stroke="none" d="M 400 725 C 400 715.6111584 461.7846976 708 538 708 C 614.2153024 708 676 715.6111584 676 725 C 676 734.3888416 614.2153024 742 538 742 C 461.7846976 742 400 734.3888416 400 725 Z" opacity="0.2"/></g><g transform="translate(-103,-118) scale(1,1)"><path fill="#ffffff" stroke="none" d="M 393 718 C 393 708.6111584 454.7846976 701 531 701 C 607.2153024 701 669 708.6111584 669 718 C 669 727.3888416 607.2153024 735 531 735 C 454.7846976 735 393 727.3888416 393 718 Z"/></g><g transform="translate(-103,-118) scale(1,1)"><path fill="none" stroke="#000000" d="M 393 718 C 393 708.6111584 454.7846976 701 531 701 C 607.2153024 701 669 708.6111584 669 718 C 669 727.3888416 607.2153024 735 531 735 C 454.7846976 735 393 727.3888416 393 718 Z" stroke-miterlimit="10"/></g><g transform="translate(-103,-118) scale(1,1)"><g><path fill="none" stroke="none"/><text fill="#000000" stroke="none" font-family="Arial" font-size="13px" font-style="normal" font-weight="bold" text-decoration="none" x="443.538818359375" y="725">Редактиране на негова книга</text></g></g><g transform="translate(-103,-118) scale(1,1)"><path fill="none" stroke="#000000" d="M 261 660 L 408 688 L 457 700" stroke-miterlimit="10"/></g><g transform="translate(-103,-118) scale(1,1)"><path fill="none" stroke="#000000" d="M 261 655 L 376 655" stroke-miterlimit="10"/></g><g transform="translate(-103,-118) scale(1,1)"><path fill="none" stroke="#000000" d="M 157 476 L 156 400" stroke-miterlimit="10"/></g><g transform="translate(-103,-118) scale(1,1)"><path fill="#FFFFFF" stroke="none" d="M 164.68572247620693 420.2128232829141 L 156 400 L 147.84910885215646 420.4343576727042"/></g><g transform="translate(-103,-118) scale(1,1)"><path fill="none" stroke="#000000" d="M 164.68572247620693 420.2128232829141 L 156 400 L 147.84910885215646 420.4343576727042 L 164.68572247620693 420.2128232829141" stroke-miterlimit="10"/></g><g transform="translate(-103,-118) scale(1,1)"><path fill="none" stroke="#000000" d="M 160 735 L 158 557" stroke-miterlimit="10"/></g><g transform="translate(-103,-118) scale(1,1)"><path fill="#FFFFFF" stroke="none" d="M 166.64686442617037 577.2294768987097 L 158 557 L 149.80985617681154 577.41865676668"/></g><g transform="translate(-103,-118) scale(1,1)"><path fill="none" stroke="#000000" d="M 166.64686442617037 577.2294768987097 L 158 557 L 149.80985617681154 577.41865676668 L 166.64686442617037 577.2294768987097" stroke-miterlimit="10"/></g><g transform="translate(-103,-118) scale(1,1)"><path fill="none" stroke="#000000" d="M 211 615 L 179 557" stroke-miterlimit="10"/></g><g transform="translate(-103,-118) scale(1,1)"><path fill="#FFFFFF" stroke="none" d="M 196.1902355495501 570.7293773256832 L 179 557 L 181.4471963188215 578.8634679357403"/></g><g transform="translate(-103,-118) scale(1,1)"><path fill="none" stroke="#000000" d="M 196.1902355495501 570.7293773256832 L 179 557 L 181.4471963188215 578.8634679357403 L 196.1902355495501 570.7293773256832" stroke-miterlimit="10"/></g><g transform="translate(-103,-118) scale(1,1)"><path fill="none" stroke="#000000" d="M 747 376 L 581 404" stroke-miterlimit="10" stroke-dasharray="3"/></g><g transform="translate(-103,-118) scale(1,1)"><path fill="none" stroke="#000000" d="M 590.3209694946133 398.158807683316 L 581 404 L 591.721267434216 406.46057403953205" stroke-miterlimit="10"/></g><g transform="translate(-103,-118) scale(1,1)"><g><path fill="none" stroke="none"/><text fill="#000000" stroke="none" font-family="Arial" font-size="13px" font-style="normal" font-weight="normal" text-decoration="none" x="608.5" y="384.5">«extend»</text></g></g><g transform="translate(-103,-118) scale(1,1)"><path fill="none" stroke="#000000" d="M 672 414 L 614 416" stroke-miterlimit="10" stroke-dasharray="3"/></g><g transform="translate(-103,-118) scale(1,1)"><path fill="none" stroke="#000000" d="M 624.0115686601292 411.44275379603874 L 614 416 L 624.3017077842497 419.8567883955344" stroke-miterlimit="10"/></g><g transform="translate(-103,-118) scale(1,1)"><g><path fill="none" stroke="none"/><text fill="#000000" stroke="none" font-family="Arial" font-size="13px" font-style="normal" font-weight="normal" text-decoration="none" x="617.5" y="409.5">«extend»</text></g></g><g transform="translate(-103,-118) scale(1,1)"><path fill="none" stroke="#000000" d="M 672 435 L 614 431" stroke-miterlimit="10" stroke-dasharray="3"/></g><g transform="translate(-103,-118) scale(1,1)"><path fill="none" stroke="#000000" d="M 624.4282162821736 427.49967070517494 L 614 431 L 623.8489690295617 435.89875586804817" stroke-miterlimit="10"/></g><g transform="translate(-103,-118) scale(1,1)"><g><path fill="none" stroke="none"/><text fill="#000000" stroke="none" font-family="Arial" font-size="13px" font-style="normal" font-weight="normal" text-decoration="none" x="632.5" y="433.5">«extend»</text></g></g><g transform="translate(-103,-118) scale(1,1)"><path fill="none" stroke="#000000" d="M 746 468 L 581 440" stroke-miterlimit="10" stroke-dasharray="3"/></g><g transform="translate(-103,-118) scale(1,1)"><path fill="none" stroke="#000000" d="M 591.7237075161511 437.5500822242279 L 581 440 L 590.3151597767295 445.8504528315337" stroke-miterlimit="10"/></g><g transform="translate(-103,-118) scale(1,1)"><g><path fill="none" stroke="none"/><text fill="#000000" stroke="none" font-family="Arial" font-size="13px" font-style="normal" font-weight="normal" text-decoration="none" x="608.5" y="465.5">«extend»</text></g></g><g transform="translate(-103,-118) scale(1,1)"><path fill="#ffffff" stroke="none" d="M 146.93571750710228 137.68 C 146.93571750710228 132.886167936 150.82155983204774 129 155.614990234375 129 C 160.40842063670226 129 164.29426296164772 132.886167936 164.29426296164772 137.68 C 164.29426296164772 142.47383206400002 160.40842063670226 146.36 155.614990234375 146.36 C 150.82155983204774 146.36 146.93571750710228 142.47383206400002 146.93571750710228 137.68 Z"/></g><g transform="translate(-103,-118) scale(1,1)"><path fill="none" stroke="#000000" d="M 146.93571750710228 137.68 C 146.93571750710228 132.886167936 150.82155983204774 129 155.614990234375 129 C 160.40842063670226 129 164.29426296164772 132.886167936 164.29426296164772 137.68 C 164.29426296164772 142.47383206400002 160.40842063670226 146.36 155.614990234375 146.36 C 150.82155983204774 146.36 146.93571750710228 142.47383206400002 146.93571750710228 137.68 Z" stroke-miterlimit="10"/></g><g transform="translate(-103,-118) scale(1,1)"><path fill="none" stroke="#000000" d="M 155.614990234375 146.36 L 155.614990234375 163.64" stroke-miterlimit="10"/></g><g transform="translate(-103,-118) scale(1,1)"><path fill="none" stroke="#000000" d="M 146.42517205255683 152.84 L 164.80480841619317 152.84" stroke-miterlimit="10"/></g><g transform="translate(-103,-118) scale(1,1)"><path fill="none" stroke="#000000" d="M 155.614990234375 163.64 L 142.85135387073865 181" stroke-miterlimit="10"/></g><g transform="translate(-103,-118) scale(1,1)"><path fill="none" stroke="#000000" d="M 155.614990234375 163.64 L 168.37862659801135 181" stroke-miterlimit="10"/></g><g transform="translate(-103,-118) scale(1,1)"><g><path fill="none" stroke="none"/><text fill="#000000" stroke="none" font-family="Arial" font-size="13px" font-style="normal" font-weight="bold" text-decoration="none" x="134.29638671875" y="201.5">Reader</text></g></g><g transform="translate(-103,-118) scale(1,1)"><path fill="none" stroke="#000000" d="M 156 319 L 155 208" stroke-miterlimit="10"/></g><g transform="translate(-103,-118) scale(1,1)"><path fill="#FFFFFF" stroke="none" d="M 163.60179770721118 228.2486808509645 L 155 208 L 146.76440994936473 228.40036902896313"/></g><g transform="translate(-103,-118) scale(1,1)"><path fill="none" stroke="#000000" d="M 163.60179770721118 228.2486808509645 L 155 208 L 146.76440994936473 228.40036902896313 L 163.60179770721118 228.2486808509645" stroke-miterlimit="10"/></g></g></svg>