<svg version="1.1" xmlns="http://www.w3.org/2000/svg" xmlns:xlink="http://www.w3.org/1999/xlink" width="800" height="341"><defs/><g><g transform="translate(-63,-86) scale(1,1)"><path fill="#C0C0C0" stroke="none" d="M 192 239 C 192 224.6405952 245.725824 213 312 213 C 378.274176 213 432 224.6405952 432 239 C 432 253.3594048 378.274176 265 312 265 C 245.725824 265 192 253.3594048 192 239 Z" opacity="0.2"/></g><g transform="translate(-63,-86) scale(1,1)"><path fill="#ffffff" stroke="none" d="M 185 232 C 185 217.6405952 238.725824 206 305 206 C 371.274176 206 425 217.6405952 425 232 C 425 246.3594048 371.274176 258 305 258 C 238.725824 258 185 246.3594048 185 232 Z"/></g><g transform="translate(-63,-86) scale(1,1)"><path fill="none" stroke="#000000" d="M 185 232 C 185 217.6405952 238.725824 206 305 206 C 371.274176 206 425 217.6405952 425 232 C 425 246.3594048 371.274176 258 305 258 C 238.725824 258 185 246.3594048 185 232 Z" stroke-miterlimit="10"/></g><g transform="translate(-63,-86) scale(1,1)"><g><path fill="none" stroke="none"/><text fill="#000000" stroke="none" font-family="Arial" font-size="13px" font-style="normal" font-weight="bold" text-decoration="none" x="256.824462890625" y="232.5">Разглеждане на</text><text fill="#000000" stroke="none" font-family="Arial" font-size="13px" font-style="normal" font-weight="bold" text-decoration="none" x="255.770751953125" y="245.5">каталога с книги</text></g></g><g transform="translate(-63,-86) scale(1,1)"><path fill="#C0C0C0" stroke="none" d="M 200 161 C 200 145.5360256 253.725824 133 320 133 C 386.274176 133 440 145.5360256 440 161 C 440 176.4639744 386.274176 189 320 189 C 253.725824 189 200 176.4639744 200 161 Z" opacity="0.2"/></g><g transform="translate(-63,-86) scale(1,1)"><path fill="#ffffff" stroke="none" d="M 193 154 C 193 138.5360256 246.725824 126 313 126 C 379.274176 126 433 138.5360256 433 154 C 433 169.4639744 379.274176 182 313 182 C 246.725824 182 193 169.4639744 193 154 Z"/></g><g transform="translate(-63,-86) scale(1,1)"><path fill="none" stroke="#000000" d="M 193 154 C 193 138.5360256 246.725824 126 313 126 C 379.274176 126 433 138.5360256 433 154 C 433 169.4639744 379.274176 182 313 182 C 246.725824 182 193 169.4639744 193 154 Z" stroke-miterlimit="10"/></g><g transform="translate(-63,-86) scale(1,1)"><g><path fill="none" stroke="none"/><text fill="#000000" stroke="none" font-family="Arial" font-size="13px" font-style="normal" font-weight="bold" text-decoration="none" x="260.558837890625" y="161">Търсене на книга</text></g></g><g transform="translate(-63,-86) scale(1,1)"><path fill="#C0C0C0" stroke="none" d="M 192 296.5 C 192 281.312168 247.5166848 269 316 269 C 384.4833152 269 440 281.312168 440 296.5 C 440 311.687832 384.4833152 324 316 324 C 247.5166848 324 192 311.687832 192 296.5 Z" opacity="0.2"/></g><g transform="translate(-63,-86) scale(1,1)"><path fill="#ffffff" stroke="none" d="M 185 289.5 C 185 274.312168 240.5166848 262 309 262 C 377.4833152 262 433 274.312168 433 289.5 C 433 304.687832 377.4833152 317 309 317 C 240.5166848 317 185 304.687832 185 289.5 Z"/></g><g transform="translate(-63,-86) scale(1,1)"><path fill="none" stroke="#000000" d="M 185 289.5 C 185 274.312168 240.5166848 262 309 262 C 377.4833152 262 433 274.312168 433 289.5 C 433 304.687832 377.4833152 317 309 317 C 240.5166848 317 185 304.687832 185 289.5 Z" stroke-miterlimit="10"/></g><g transform="translate(-63,-86) scale(1,1)"><g><path fill="none" stroke="none"/><text fill="#000000" stroke="none" font-family="Arial" font-size="13px" font-style="normal" font-weight="bold" text-decoration="none" x="260.824462890625" y="290">Разглеждане на</text><text fill="#000000" stroke="none" font-family="Arial" font-size="13px" font-style="normal" font-weight="bold" text-decoration="none" x="244.130126953125" y="303">информация за книга</text></g></g><g transform="translate(-63,-86) scale(1,1)"><path fill="#C0C0C0" stroke="none" d="M 192 353 C 192 341.954304 245.50196640000001 333 311.5 333 C 377.4980336 333 431 341.954304 431 353 C 431 364.045696 377.4980336 373 311.5 373 C 245.50196640000001 373 192 364.045696 192 353 Z" opacity="0.2"/></g><g transform="translate(-63,-86) scale(1,1)"><path fill="#ffffff" stroke="none" d="M 185 346 C 185 334.954304 238.50196640000001 326 304.5 326 C 370.4980336 326 424 334.954304 424 346 C 424 357.045696 370.4980336 366 304.5 366 C 238.50196640000001 366 185 357.045696 185 346 Z"/></g><g transform="translate(-63,-86) scale(1,1)"><path fill="none" stroke="#000000" d="M 185 346 C 185 334.954304 238.50196640000001 326 304.5 326 C 370.4980336 326 424 334.954304 424 346 C 424 357.045696 370.4980336 366 304.5 366 C 238.50196640000001 366 185 357.045696 185 346 Z" stroke-miterlimit="10"/></g><g transform="translate(-63,-86) scale(1,1)"><g><path fill="none" stroke="none"/><text fill="#000000" stroke="none" font-family="Arial" font-size="13px" font-style="normal" font-weight="bold" text-decoration="none" x="266.5029296875" y="353">Регистрация</text></g></g><g transform="translate(-63,-86) scale(1,1)"><path fill="#ffffff" stroke="none" d="M 96.32072727272727 199.68 C 96.32072727272727 194.886167936 100.20656959767273 191 105 191 C 109.79343040232727 191 113.67927272727273 194.886167936 113.67927272727273 199.68 C 113.67927272727273 204.47383206400002 109.79343040232727 208.36 105 208.36 C 100.20656959767273 208.36 96.32072727272727 204.47383206400002 96.32072727272727 199.68 Z"/></g><g transform="translate(-63,-86) scale(1,1)"><path fill="none" stroke="#000000" d="M 96.32072727272727 199.68 C 96.32072727272727 194.886167936 100.20656959767273 191 105 191 C 109.79343040232727 191 113.67927272727273 194.886167936 113.67927272727273 199.68 C 113.67927272727273 204.47383206400002 109.79343040232727 208.36 105 208.36 C 100.20656959767273 208.36 96.32072727272727 204.47383206400002 96.32072727272727 199.68 Z" stroke-miterlimit="10"/></g><g transform="translate(-63,-86) scale(1,1)"><path fill="none" stroke="#000000" d="M 105 208.36 L 105 225.64" stroke-miterlimit="10"/></g><g transform="translate(-63,-86) scale(1,1)"><path fill="none" stroke="#000000" d="M 95.81018181818182 214.84 L 114.18981818181818 214.84" stroke-miterlimit="10"/></g><g transform="translate(-63,-86) scale(1,1)"><path fill="none" stroke="#000000" d="M 105 225.64 L 92.23636363636363 243" stroke-miterlimit="10"/></g><g transform="translate(-63,-86) scale(1,1)"><path fill="none" stroke="#000000" d="M 105 225.64 L 117.76363636363637 243" stroke-miterlimit="10"/></g><g transform="translate(-63,-86) scale(1,1)"><g><path fill="none" stroke="none"/><text fill="#000000" stroke="none" font-family="Arial" font-size="13px" font-style="normal" font-weight="bold" text-decoration="none" x="87.658203125" y="263.5">Guest</text></g></g><g transform="translate(-63,-86) scale(1,1)"><path fill="none" stroke="#000000" d="M 138 217 L 233 183" stroke-miterlimit="10"/></g><g transform="translate(-63,-86) scale(1,1)"><path fill="none" stroke="#000000" d="M 138 229 L 184 230" stroke-miterlimit="10"/></g><g transform="translate(-63,-86) scale(1,1)"><path fill="none" stroke="#000000" d="M 138 262 L 177 302 L 243 325" stroke-miterlimit="10"/></g><g transform="translate(-63,-86) scale(1,1)"><path fill="#C0C0C0" stroke="none" d="M 535 120 C 535 110.6111584 570.3695008 103 614 103 C 657.6304992 103 693 110.6111584 693 120 C 693 129.3888416 657.6304992 137 614 137 C 570.3695008 137 535 129.3888416 535 120 Z" opacity="0.2"/></g><g transform="translate(-63,-86) scale(1,1)"><path fill="#ffffff" stroke="none" d="M 528 113 C 528 103.6111584 563.3695008 96 607 96 C 650.6304992 96 686 103.6111584 686 113 C 686 122.3888416 650.6304992 130 607 130 C 563.3695008 130 528 122.3888416 528 113 Z"/></g><g transform="translate(-63,-86) scale(1,1)"><path fill="none" stroke="#000000" d="M 528 113 C 528 103.6111584 563.3695008 96 607 96 C 650.6304992 96 686 103.6111584 686 113 C 686 122.3888416 650.6304992 130 607 130 C 563.3695008 130 528 122.3888416 528 113 Z" stroke-miterlimit="10"/></g><g transform="translate(-63,-86) scale(1,1)"><g><path fill="none" stroke="none"/><text fill="#000000" stroke="none" font-family="Arial" font-size="13px" font-style="normal" font-weight="bold" text-decoration="none" x="558.8212890625" y="120">Търсене по име</text></g></g><g transform="translate(-63,-86) scale(1,1)"><path fill="#C0C0C0" stroke="none" d="M 535 166 C 535 156.6111584 574.17508 149 622.5 149 C 670.82492 149 710 156.6111584 710 166 C 710 175.3888416 670.82492 183 622.5 183 C 574.17508 183 535 175.3888416 535 166 Z" opacity="0.2"/></g><g transform="translate(-63,-86) scale(1,1)"><path fill="#ffffff" stroke="none" d="M 528 159 C 528 149.6111584 567.17508 142 615.5 142 C 663.82492 142 703 149.6111584 703 159 C 703 168.3888416 663.82492 176 615.5 176 C 567.17508 176 528 168.3888416 528 159 Z"/></g><g transform="translate(-63,-86) scale(1,1)"><path fill="none" stroke="#000000" d="M 528 159 C 528 149.6111584 567.17508 142 615.5 142 C 663.82492 142 703 149.6111584 703 159 C 703 168.3888416 663.82492 176 615.5 176 C 567.17508 176 528 168.3888416 528 159 Z" stroke-miterlimit="10"/></g><g transform="translate(-63,-86) scale(1,1)"><g><path fill="none" stroke="none"/><text fill="#000000" stroke="none" font-family="Arial" font-size="13px" font-style="normal" font-weight="bold" text-decoration="none" x="561.9765625" y="166">Търсене по автор</text></g></g><g transform="translate(-63,-86) scale(1,1)"><path fill="#C0C0C0" stroke="none" d="M 512 246 C 512 236.6111584 559.2339536 229 617.5 229 C 675.7660464 229 723 236.6111584 723 246 C 723 255.3888416 675.7660464 263 617.5 263 C 559.2339536 263 512 255.3888416 512 246 Z" opacity="0.2"/></g><g transform="translate(-63,-86) scale(1,1)"><path fill="#ffffff" stroke="none" d="M 505 239 C 505 229.6111584 552.2339536 222 610.5 222 C 668.7660464 222 716 229.6111584 716 239 C 716 248.3888416 668.7660464 256 610.5 256 C 552.2339536 256 505 248.3888416 505 239 Z"/></g><g transform="translate(-63,-86) scale(1,1)"><path fill="none" stroke="#000000" d="M 505 239 C 505 229.6111584 552.2339536 222 610.5 222 C 668.7660464 222 716 229.6111584 716 239 C 716 248.3888416 668.7660464 256 610.5 256 C 552.2339536 256 505 248.3888416 505 239 Z" stroke-miterlimit="10"/></g><g transform="translate(-63,-86) scale(1,1)"><g><path fill="none" stroke="none"/><text fill="#000000" stroke="none" font-family="Arial" font-size="13px" font-style="normal" font-weight="bold" text-decoration="none" x="545.052490234375" y="246">Търсене по поредица</text></g></g><g transform="translate(-63,-86) scale(1,1)"><path fill="#C0C0C0" stroke="none" d="M 528 206 C 528 196.6111584 568.7420832 189 619 189 C 669.2579168 189 710 196.6111584 710 206 C 710 215.3888416 669.2579168 223 619 223 C 568.7420832 223 528 215.3888416 528 206 Z" opacity="0.2"/></g><g transform="translate(-63,-86) scale(1,1)"><path fill="#ffffff" stroke="none" d="M 521 199 C 521 189.6111584 561.7420832 182 612 182 C 662.2579168 182 703 189.6111584 703 199 C 703 208.3888416 662.2579168 216 612 216 C 561.7420832 216 521 208.3888416 521 199 Z"/></g><g transform="translate(-63,-86) scale(1,1)"><path fill="none" stroke="#000000" d="M 521 199 C 521 189.6111584 561.7420832 182 612 182 C 662.2579168 182 703 189.6111584 703 199 C 703 208.3888416 662.2579168 216 612 216 C 561.7420832 216 521 208.3888416 521 199 Z" stroke-miterlimit="10"/></g><g transform="translate(-63,-86) scale(1,1)"><g><path fill="none" stroke="none"/><text fill="#000000" stroke="none" font-family="Arial" font-size="13px" font-style="normal" font-weight="bold" text-decoration="none" x="556.1787109375" y="206">Търсене по тагове</text></g></g><g transform="translate(-63,-86) scale(1,1)"><path fill="none" stroke="#000000" d="M 527 124 L 434 137" stroke-miterlimit="10" stroke-dasharray="3"/></g><g transform="translate(-63,-86) scale(1,1)"><path fill="none" stroke="#000000" d="M 443.4820569177568 131.42410575706276 L 434 137 L 444.64757937650256 139.7620741157827" stroke-miterlimit="10"/></g><g transform="translate(-63,-86) scale(1,1)"><g><path fill="none" stroke="none"/><text fill="#000000" stroke="none" font-family="Arial" font-size="13px" font-style="normal" font-weight="normal" text-decoration="none" x="446.5" y="124.5">«extend»</text></g></g><g transform="translate(-63,-86) scale(1,1)"><path fill="none" stroke="#000000" d="M 527 158 L 434 156" stroke-miterlimit="10" stroke-dasharray="3"/></g><g transform="translate(-63,-86) scale(1,1)"><path fill="none" stroke="#000000" d="M 444.25083198659934 152.0099569447797 L 434 156 L 444.06981931210095 160.4270463089558" stroke-miterlimit="10"/></g><g transform="translate(-63,-86) scale(1,1)"><g><path fill="none" stroke="none"/><text fill="#000000" stroke="none" font-family="Arial" font-size="13px" font-style="normal" font-weight="normal" text-decoration="none" x="467.5" y="153.5">«extend»</text></g></g><g transform="translate(-63,-86) scale(1,1)"><path fill="none" stroke="#000000" d="M 547 221 L 414 183" stroke-miterlimit="10" stroke-dasharray="3"/></g><g transform="translate(-63,-86) scale(1,1)"><path fill="none" stroke="#000000" d="M 424.92809871352966 181.7443493689122 L 414 183 L 422.61521178185615 189.83945362976948" stroke-miterlimit="10"/></g><g transform="translate(-63,-86) scale(1,1)"><g><path fill="none" stroke="none"/><text fill="#000000" stroke="none" font-family="Arial" font-size="13px" font-style="normal" font-weight="normal" text-decoration="none" x="443.5" y="218.5">«extend»</text></g></g><g transform="translate(-63,-86) scale(1,1)"><path fill="none" stroke="#000000" d="M 520 185 L 434 172" stroke-miterlimit="10" stroke-dasharray="3"/></g><g transform="translate(-63,-86) scale(1,1)"><path fill="none" stroke="#000000" d="M 444.6776927037097 169.35672957774946 L 434 172 L 443.41934335830246 177.6811944781361" stroke-miterlimit="10"/></g><g transform="translate(-63,-86) scale(1,1)"><g><path fill="none" stroke="none"/><text fill="#000000" stroke="none" font-family="Arial" font-size="13px" font-style="normal" font-weight="normal" text-decoration="none" x="461.5" y="172.5">«extend»</text></g></g><g transform="translate(-63,-86) scale(1,1)"><path fill="none" stroke="#000000" d="M 214 261 L 138 239" stroke-miterlimit="10"/></g><g transform="translate(-63,-86) scale(1,1)"><path fill="#C0C0C0" stroke="none" d="M 480 342 C 480 332.6111584 544.9187039999999 325 625 325 C 705.0812960000001 325 770 332.6111584 770 342 C 770 351.3888416 705.0812960000001 359 625 359 C 544.9187039999999 359 480 351.3888416 480 342 Z" opacity="0.2"/></g><g transform="translate(-63,-86) scale(1,1)"><path fill="#ffffff" stroke="none" d="M 473 335 C 473 325.6111584 537.9187039999999 318 618 318 C 698.0812960000001 318 763 325.6111584 763 335 C 763 344.3888416 698.0812960000001 352 618 352 C 537.9187039999999 352 473 344.3888416 473 335 Z"/></g><g transform="translate(-63,-86) scale(1,1)"><path fill="none" stroke="#000000" d="M 473 335 C 473 325.6111584 537.9187039999999 318 618 318 C 698.0812960000001 318 763 325.6111584 763 335 C 763 344.3888416 698.0812960000001 352 618 352 C 537.9187039999999 352 473 344.3888416 473 335 Z" stroke-miterlimit="10"/></g><g transform="translate(-63,-86) scale(1,1)"><g><path fill="none" stroke="none"/><text fill="#000000" stroke="none" font-family="Arial" font-size="13px" font-style="normal" font-weight="bold" text-decoration="none" x="525.54638671875" y="342">Избиране на книга от каталога</text></g></g><g transform="translate(-63,-86) scale(1,1)"><path fill="#C0C0C0" stroke="none" d="M 192 406 C 192 396.6111584 261.6197136 389 347.5 389 C 433.3802864 389 503 396.6111584 503 406 C 503 415.3888416 433.3802864 423 347.5 423 C 261.6197136 423 192 415.3888416 192 406 Z" opacity="0.2"/></g><g transform="translate(-63,-86) scale(1,1)"><path fill="#ffffff" stroke="none" d="M 185 399 C 185 389.6111584 254.6197136 382 340.5 382 C 426.3802864 382 496 389.6111584 496 399 C 496 408.3888416 426.3802864 416 340.5 416 C 254.6197136 416 185 408.3888416 185 399 Z"/></g><g transform="translate(-63,-86) scale(1,1)"><path fill="none" stroke="#000000" d="M 185 399 C 185 389.6111584 254.6197136 382 340.5 382 C 426.3802864 382 496 389.6111584 496 399 C 496 408.3888416 426.3802864 416 340.5 416 C 254.6197136 416 185 408.3888416 185 399 Z" stroke-miterlimit="10"/></g><g transform="translate(-63,-86) scale(1,1)"><g><path fill="none" stroke="none"/><text fill="#000000" stroke="none" font-family="Arial" font-size="13px" font-style="normal" font-weight="bold" text-decoration="none" x="242.1875" y="406">Промяна на предпочитания език</text></g></g><g transform="translate(-63,-86) scale(1,1)"><path fill="none" stroke="#000000" d="M 123 270 L 169 374 L 217 381" stroke-miterlimit="10"/></g><g transform="translate(-63,-86) scale(1,1)"><path fill="none" stroke="#000000" d="M 434 308 L 497 317" stroke-miterlimit="10" stroke-dasharray="3"/></g><g transform="translate(-63,-86) scale(1,1)"><path fill="none" stroke="#000000" d="M 486.3441494602911 319.7299907097617 L 497 317 L 487.53478088061274 311.39557076751026" stroke-miterlimit="10"/></g><g transform="translate(-63,-86) scale(1,1)"><g><path fill="none" stroke="none"/><text fill="#000000" stroke="none" font-family="Arial" font-size="13px" font-style="normal" font-weight="normal" text-decoration="none" x="434.5" y="329.5">«include»</text></g></g><g transform="translate(-63,-86) scale(1,1)"><path fill="none" stroke="#000000" d="M 308 205 L 310 183" stroke-miterlimit="10" stroke-dasharray="3"/></g><g transform="translate(-63,-86) scale(1,1)"><path fill="none" stroke="#000000" d="M 313.27214478569897 193.50205068076818 L 310 183 L 304.88768451425597 192.7398270197279" stroke-miterlimit="10"/></g><g transform="translate(-63,-86) scale(1,1)"><g><path fill="none" stroke="none"/><text fill="#000000" stroke="none" font-family="Arial" font-size="13px" font-style="normal" font-weight="normal" text-decoration="none" x="251.5" y="197.5">«include»</text></g></g><g transform="translate(-63,-86) scale(1,1)"><path fill="#C0C0C0" stroke="none" d="M 480 286 C 480 276.6111584 544.0232736 269 623 269 C 701.9767264 269 766 276.6111584 766 286 C 766 295.3888416 701.9767264 303 623 303 C 544.0232736 303 480 295.3888416 480 286 Z" opacity="0.2"/></g><g transform="translate(-63,-86) scale(1,1)"><path fill="#ffffff" stroke="none" d="M 473 279 C 473 269.6111584 537.0232736 262 616 262 C 694.9767264 262 759 269.6111584 759 279 C 759 288.3888416 694.9767264 296 616 296 C 537.0232736 296 473 288.3888416 473 279 Z"/></g><g transform="translate(-63,-86) scale(1,1)"><path fill="none" stroke="#000000" d="M 473 279 C 473 269.6111584 537.0232736 262 616 262 C 694.9767264 262 759 269.6111584 759 279 C 759 288.3888416 694.9767264 296 616 296 C 537.0232736 296 473 288.3888416 473 279 Z" stroke-miterlimit="10"/></g><g transform="translate(-63,-86) scale(1,1)"><g><path fill="none" stroke="none"/><text fill="#000000" stroke="none" font-family="Arial" font-size="13px" font-style="normal" font-weight="bold" text-decoration="none" x="526.532958984375" y="286">Търсене по няколко критерия</text></g></g><g transform="translate(-63,-86) scale(1,1)"><path fill="none" stroke="#000000" d="M 534 261 L 465 246 L 361 183" stroke-miterlimit="10" stroke-dasharray="3"/></g><g transform="translate(-63,-86) scale(1,1)"><path fill="none" stroke="#000000" d="M 371.8732528935538 184.66504399726378 L 361 183 L 367.511186953149 191.8659147560273" stroke-miterlimit="10"/></g><g transform="translate(-63,-86) scale(1,1)"><g><path fill="none" stroke="none"/><text fill="#000000" stroke="none" font-family="Arial" font-size="13px" font-style="normal" font-weight="normal" text-decoration="none" x="432.5" y="266.5">«extend»</text></g></g><g transform="translate(-63,-86) scale(1,1)"><path fill="#C0C0C0" stroke="none" d="M 568 406 C 568 396.6111584 633.3664192 389 714 389 C 794.6335808 389 860 396.6111584 860 406 C 860 415.3888416 794.6335808 423 714 423 C 633.3664192 423 568 415.3888416 568 406 Z" opacity="0.2"/></g><g transform="translate(-63,-86) scale(1,1)"><path fill="#ffffff" stroke="none" d="M 561 399 C 561 389.6111584 626.3664192 382 707 382 C 787.6335808 382 853 389.6111584 853 399 C 853 408.3888416 787.6335808 416 707 416 C 626.3664192 416 561 408.3888416 561 399 Z"/></g><g transform="translate(-63,-86) scale(1,1)"><path fill="none" stroke="#000000" d="M 561 399 C 561 389.6111584 626.3664192 382 707 382 C 787.6335808 382 853 389.6111584 853 399 C 853 408.3888416 787.6335808 416 707 416 C 626.3664192 416 561 408.3888416 561 399 Z" stroke-miterlimit="10"/></g><g transform="translate(-63,-86) scale(1,1)"><g><path fill="none" stroke="none"/><text fill="#000000" stroke="none" font-family="Arial" font-size="13px" font-style="normal" font-weight="bold" text-decoration="none" x="614.45751953125" y="406">Избор между наличните езици</text></g></g><g transform="translate(-63,-86) scale(1,1)"><path fill="none" stroke="#000000" d="M 497 399 L 560 399" stroke-miterlimit="10" stroke-dasharray="3"/></g><g transform="translate(-63,-86) scale(1,1)"><path fill="none" stroke="#000000" d="M 549.8373251423759 403.209517756016 L 560 399 L 549.8373251423758 394.790482243984" stroke-miterlimit="10"/></g><g transform="translate(-63,-86) scale(1,1)"><g><path fill="none" stroke="none"/><text fill="#000000" stroke="none" font-family="Arial" font-size="13px" font-style="normal" font-weight="normal" text-decoration="none" x="500.5" y="417.5">«include»</text></g></g></g></svg>