<svg version="1.1" xmlns="http://www.w3.org/2000/svg" xmlns:xlink="http://www.w3.org/1999/xlink" width="1161.68359375" height="1230"><defs/><g><g transform="translate(-67,-158) scale(1,1)"><path fill="#ffffff" stroke="none" d="M 94.49162571022727 561.6800000000001 C 94.49162571022727 556.8861679360001 98.37746803517273 553 103.1708984375 553 C 107.96432883982727 553 111.85017116477273 556.8861679360001 111.85017116477273 561.6800000000001 C 111.85017116477273 566.473832064 107.96432883982727 570.36 103.1708984375 570.36 C 98.37746803517273 570.36 94.49162571022727 566.473832064 94.49162571022727 561.6800000000001 Z"/></g><g transform="translate(-67,-158) scale(1,1)"><path fill="none" stroke="#000000" d="M 94.49162571022727 561.6800000000001 C 94.49162571022727 556.8861679360001 98.37746803517273 553 103.1708984375 553 C 107.96432883982727 553 111.85017116477273 556.8861679360001 111.85017116477273 561.6800000000001 C 111.85017116477273 566.473832064 107.96432883982727 570.36 103.1708984375 570.36 C 98.37746803517273 570.36 94.49162571022727 566.473832064 94.49162571022727 561.6800000000001 Z" stroke-miterlimit="10"/></g><g transform="translate(-67,-158) scale(1,1)"><path fill="none" stroke="#000000" d="M 103.1708984375 570.36 L 103.1708984375 587.64" stroke-miterlimit="10"/></g><g transform="translate(-67,-158) scale(1,1)"><path fill="none" stroke="#000000" d="M 93.98108025568182 576.84 L 112.36071661931818 576.84" stroke-miterlimit="10"/></g><g transform="translate(-67,-158) scale(1,1)"><path fill="none" stroke="#000000" d="M 103.1708984375 587.64 L 90.40726207386363 605" stroke-miterlimit="10"/></g><g transform="translate(-67,-158) scale(1,1)"><path fill="none" stroke="#000000" d="M 103.1708984375 587.64 L 115.93453480113637 605" stroke-miterlimit="10"/></g><g transform="translate(-67,-158) scale(1,1)"><g><path fill="none" stroke="none"/><text fill="#000000" stroke="none" font-family="Arial" font-size="13px" font-style="normal" font-weight="bold" text-decoration="none" x="82.937744140625" y="625.5">Rookie</text></g></g><g transform="translate(-67,-158) scale(1,1)"><path fill="#C0C0C0" stroke="none" d="M 500 290.5 C 500 270.8938896 553.725824 255 620 255 C 686.274176 255 740 270.8938896 740 290.5 C 740 310.1061104 686.274176 326 620 326 C 553.725824 326 500 310.1061104 500 290.5 Z" opacity="0.2"/></g><g transform="translate(-67,-158) scale(1,1)"><path fill="#ffffff" stroke="none" d="M 493 283.5 C 493 263.8938896 546.725824 248 613 248 C 679.274176 248 733 263.8938896 733 283.5 C 733 303.1061104 679.274176 319 613 319 C 546.725824 319 493 303.1061104 493 283.5 Z"/></g><g transform="translate(-67,-158) scale(1,1)"><path fill="none" stroke="#000000" d="M 493 283.5 C 493 263.8938896 546.725824 248 613 248 C 679.274176 248 733 263.8938896 733 283.5 C 733 303.1061104 679.274176 319 613 319 C 546.725824 319 493 303.1061104 493 283.5 Z" stroke-miterlimit="10"/></g><g transform="translate(-67,-158) scale(1,1)"><g><path fill="none" stroke="none"/><text fill="#000000" stroke="none" font-family="Arial" font-size="13px" font-style="normal" font-weight="bold" text-decoration="none" x="541.65869140625" y="284">Управление на личната</text><text fill="#000000" stroke="none" font-family="Arial" font-size="13px" font-style="normal" font-weight="bold" text-decoration="none" x="574.244384765625" y="297">информация</text></g></g><g transform="translate(-67,-158) scale(1,1)"><path fill="#C0C0C0" stroke="none" d="M 780 296 C 780 286.6111584 808.8776304 279 844.5 279 C 880.1223696 279 909 286.6111584 909 296 C 909 305.3888416 880.1223696 313 844.5 313 C 808.8776304 313 780 305.3888416 780 296 Z" opacity="0.2"/></g><g transform="translate(-67,-158) scale(1,1)"><path fill="#ffffff" stroke="none" d="M 773 289 C 773 279.6111584 801.8776304 272 837.5 272 C 873.1223696 272 902 279.6111584 902 289 C 902 298.3888416 873.1223696 306 837.5 306 C 801.8776304 306 773 298.3888416 773 289 Z"/></g><g transform="translate(-67,-158) scale(1,1)"><path fill="none" stroke="#000000" d="M 773 289 C 773 279.6111584 801.8776304 272 837.5 272 C 873.1223696 272 902 279.6111584 902 289 C 902 298.3888416 873.1223696 306 837.5 306 C 801.8776304 306 773 298.3888416 773 289 Z" stroke-miterlimit="10"/></g><g transform="translate(-67,-158) scale(1,1)"><g><path fill="none" stroke="none"/><text fill="#000000" stroke="none" font-family="Arial" font-size="13px" font-style="normal" font-weight="bold" text-decoration="none" x="798.611083984375" y="296">Редактиране</text></g></g><g transform="translate(-67,-158) scale(1,1)"><path fill="#C0C0C0" stroke="none" d="M 772 216 C 772 206.6111584 801.101488 199 837 199 C 872.898512 199 902 206.6111584 902 216 C 902 225.3888416 872.898512 233 837 233 C 801.101488 233 772 225.3888416 772 216 Z" opacity="0.2"/></g><g transform="translate(-67,-158) scale(1,1)"><path fill="#ffffff" stroke="none" d="M 765 209 C 765 199.6111584 794.101488 192 830 192 C 865.898512 192 895 199.6111584 895 209 C 895 218.3888416 865.898512 226 830 226 C 794.101488 226 765 218.3888416 765 209 Z"/></g><g transform="translate(-67,-158) scale(1,1)"><path fill="none" stroke="#000000" d="M 765 209 C 765 199.6111584 794.101488 192 830 192 C 865.898512 192 895 199.6111584 895 209 C 895 218.3888416 865.898512 226 830 226 C 794.101488 226 765 218.3888416 765 209 Z" stroke-miterlimit="10"/></g><g transform="translate(-67,-158) scale(1,1)"><g><path fill="none" stroke="none"/><text fill="#000000" stroke="none" font-family="Arial" font-size="13px" font-style="normal" font-weight="bold" text-decoration="none" x="791.7998046875" y="216">Въвъеждане</text></g></g><g transform="translate(-67,-158) scale(1,1)"><path fill="#C0C0C0" stroke="none" d="M 788 256 C 788 246.6111584 817.5492032 239 854 239 C 890.4507968 239 920 246.6111584 920 256 C 920 265.3888416 890.4507968 273 854 273 C 817.5492032 273 788 265.3888416 788 256 Z" opacity="0.2"/></g><g transform="translate(-67,-158) scale(1,1)"><path fill="#ffffff" stroke="none" d="M 781 249 C 781 239.6111584 810.5492032 232 847 232 C 883.4507968 232 913 239.6111584 913 249 C 913 258.3888416 883.4507968 266 847 266 C 810.5492032 266 781 258.3888416 781 249 Z"/></g><g transform="translate(-67,-158) scale(1,1)"><path fill="none" stroke="#000000" d="M 781 249 C 781 239.6111584 810.5492032 232 847 232 C 883.4507968 232 913 239.6111584 913 249 C 913 258.3888416 883.4507968 266 847 266 C 810.5492032 266 781 258.3888416 781 249 Z" stroke-miterlimit="10"/></g><g transform="translate(-67,-158) scale(1,1)"><g><path fill="none" stroke="none"/><text fill="#000000" stroke="none" font-family="Arial" font-size="13px" font-style="normal" font-weight="bold" text-decoration="none" x="806.574951171875" y="256">Преглеждане</text></g></g><g transform="translate(-67,-158) scale(1,1)"><path fill="none" stroke="#000000" d="M 777 227 L 719 247" stroke-miterlimit="10" stroke-dasharray="3"/></g><g transform="translate(-67,-158) scale(1,1)"><path fill="none" stroke="#000000" d="M 727.2352546617217 239.7074983265966 L 719 247 L 729.9797818011793 247.66662703102375" stroke-miterlimit="10"/></g><g transform="translate(-67,-158) scale(1,1)"><g><path fill="none" stroke="none"/><text fill="#000000" stroke="none" font-family="Arial" font-size="13px" font-style="normal" font-weight="normal" text-decoration="none" x="732.5" y="252.5">«extend»</text></g></g><g transform="translate(-67,-158) scale(1,1)"><path fill="none" stroke="#000000" d="M 780 259 L 734 265" stroke-miterlimit="10" stroke-dasharray="3"/></g><g transform="translate(-67,-158) scale(1,1)"><path fill="none" stroke="#000000" d="M 743.5328569756902 259.5114083882077 L 734 265 L 744.6217681594538 267.85972746373005" stroke-miterlimit="10"/></g><g transform="translate(-67,-158) scale(1,1)"><g><path fill="none" stroke="none"/><text fill="#000000" stroke="none" font-family="Arial" font-size="13px" font-style="normal" font-weight="normal" text-decoration="none" x="748.5" y="278.5">«extend»</text></g></g><g transform="translate(-67,-158) scale(1,1)"><path fill="none" stroke="#000000" d="M 772 287 L 734 286" stroke-miterlimit="10" stroke-dasharray="3"/></g><g transform="translate(-67,-158) scale(1,1)"><path fill="none" stroke="#000000" d="M 744.2698961978849 282.0592853332588 L 734 286 L 744.0484193071803 290.4754071800324" stroke-miterlimit="10"/></g><g transform="translate(-67,-158) scale(1,1)"><g><path fill="none" stroke="none"/><text fill="#000000" stroke="none" font-family="Arial" font-size="13px" font-style="normal" font-weight="normal" text-decoration="none" x="732.5" y="302.5">«extend»</text></g></g><g transform="translate(-67,-158) scale(1,1)"><path fill="none" stroke="#000000" d="M 130 574 L 552 320" stroke-miterlimit="10"/></g><g transform="translate(-67,-158) scale(1,1)"><path fill="none" stroke="#000000" d="M 103 551 L 105 248" stroke-miterlimit="10"/></g><g transform="translate(-67,-158) scale(1,1)"><path fill="#FFFFFF" stroke="none" d="M 113.28469431306898 268.3804769360043 L 105 248 L 96.44699008356405 268.26933697409333"/></g><g transform="translate(-67,-158) scale(1,1)"><path fill="none" stroke="#000000" d="M 113.28469431306898 268.3804769360043 L 105 248 L 96.44699008356405 268.26933697409333 L 113.28469431306898 268.3804769360043" stroke-miterlimit="10"/></g><g transform="translate(-67,-158) scale(1,1)"><path fill="#C0C0C0" stroke="none" d="M 738 352 C 738 342.6111584 787.2486719999999 335 848 335 C 908.7513280000001 335 958 342.6111584 958 352 C 958 361.3888416 908.7513280000001 369 848 369 C 787.2486719999999 369 738 361.3888416 738 352 Z" opacity="0.2"/></g><g transform="translate(-67,-158) scale(1,1)"><path fill="#ffffff" stroke="none" d="M 731 345 C 731 335.6111584 780.2486719999999 328 841 328 C 901.7513280000001 328 951 335.6111584 951 345 C 951 354.3888416 901.7513280000001 362 841 362 C 780.2486719999999 362 731 354.3888416 731 345 Z"/></g><g transform="translate(-67,-158) scale(1,1)"><path fill="none" stroke="#000000" d="M 731 345 C 731 335.6111584 780.2486719999999 328 841 328 C 901.7513280000001 328 951 335.6111584 951 345 C 951 354.3888416 901.7513280000001 362 841 362 C 780.2486719999999 362 731 354.3888416 731 345 Z" stroke-miterlimit="10"/></g><g transform="translate(-67,-158) scale(1,1)"><g><path fill="none" stroke="none"/><text fill="#000000" stroke="none" font-family="Arial" font-size="13px" font-style="normal" font-weight="bold" text-decoration="none" x="772.321533203125" y="352">Промяна на настройки</text></g></g><g transform="translate(-67,-158) scale(1,1)"><path fill="none" stroke="#000000" d="M 775 327 L 734 316" stroke-miterlimit="10" stroke-dasharray="3"/></g><g transform="translate(-67,-158) scale(1,1)"><path fill="none" stroke="#000000" d="M 744.9063530184168 314.56770679060793 L 734 316 L 742.7247404183455 322.6991719363283" stroke-miterlimit="10"/></g><g transform="translate(-67,-158) scale(1,1)"><g><path fill="none" stroke="none"/><text fill="#000000" stroke="none" font-family="Arial" font-size="13px" font-style="normal" font-weight="normal" text-decoration="none" x="687.5" y="340.5">«extend»</text></g></g><g transform="translate(-67,-158) scale(1,1)"><path fill="#C0C0C0" stroke="none" d="M 458 376 C 458 366.6111584 524.037992 359 605.5 359 C 686.962008 359 753 366.6111584 753 376 C 753 385.3888416 686.962008 393 605.5 393 C 524.037992 393 458 385.3888416 458 376 Z" opacity="0.2"/></g><g transform="translate(-67,-158) scale(1,1)"><path fill="#ffffff" stroke="none" d="M 451 369 C 451 359.6111584 517.037992 352 598.5 352 C 679.962008 352 746 359.6111584 746 369 C 746 378.3888416 679.962008 386 598.5 386 C 517.037992 386 451 378.3888416 451 369 Z"/></g><g transform="translate(-67,-158) scale(1,1)"><path fill="none" stroke="#000000" d="M 451 369 C 451 359.6111584 517.037992 352 598.5 352 C 679.962008 352 746 359.6111584 746 369 C 746 378.3888416 679.962008 386 598.5 386 C 517.037992 386 451 378.3888416 451 369 Z" stroke-miterlimit="10"/></g><g transform="translate(-67,-158) scale(1,1)"><g><path fill="none" stroke="none"/><text fill="#000000" stroke="none" font-family="Arial" font-size="13px" font-style="normal" font-weight="bold" text-decoration="none" x="504.92919921875" y="376">Търсене на потребител по име</text></g></g><g transform="translate(-67,-158) scale(1,1)"><path fill="#C0C0C0" stroke="none" d="M 450 425 C 450 410.6405952 525.2161536 399 618 399 C 710.7838464 399 786 410.6405952 786 425 C 786 439.3594048 710.7838464 451 618 451 C 525.2161536 451 450 439.3594048 450 425 Z" opacity="0.2"/></g><g transform="translate(-67,-158) scale(1,1)"><path fill="#ffffff" stroke="none" d="M 443 418 C 443 403.6405952 518.2161536 392 611 392 C 703.7838464 392 779 403.6405952 779 418 C 779 432.3594048 703.7838464 444 611 444 C 518.2161536 444 443 432.3594048 443 418 Z"/></g><g transform="translate(-67,-158) scale(1,1)"><path fill="none" stroke="#000000" d="M 443 418 C 443 403.6405952 518.2161536 392 611 392 C 703.7838464 392 779 403.6405952 779 418 C 779 432.3594048 703.7838464 444 611 444 C 518.2161536 444 443 432.3594048 443 418 Z" stroke-miterlimit="10"/></g><g transform="translate(-67,-158) scale(1,1)"><g><path fill="none" stroke="none"/><text fill="#000000" stroke="none" font-family="Arial" font-size="13px" font-style="normal" font-weight="bold" text-decoration="none" x="522.1201171875" y="418.5">Изпращане на съобщения до</text><text fill="#000000" stroke="none" font-family="Arial" font-size="13px" font-style="normal" font-weight="bold" text-decoration="none" x="554.674072265625" y="431.5">администраторите</text></g></g><g transform="translate(-67,-158) scale(1,1)"><path fill="#C0C0C0" stroke="none" d="M 466 489 C 466 474.6405952 534.0527104 463 618 463 C 701.9472896 463 770 474.6405952 770 489 C 770 503.3594048 701.9472896 515 618 515 C 534.0527104 515 466 503.3594048 466 489 Z" opacity="0.2"/></g><g transform="translate(-67,-158) scale(1,1)"><path fill="#ffffff" stroke="none" d="M 459 482 C 459 467.6405952 527.0527104 456 611 456 C 694.9472896 456 763 467.6405952 763 482 C 763 496.3594048 694.9472896 508 611 508 C 527.0527104 508 459 496.3594048 459 482 Z"/></g><g transform="translate(-67,-158) scale(1,1)"><path fill="none" stroke="#000000" d="M 459 482 C 459 467.6405952 527.0527104 456 611 456 C 694.9472896 456 763 467.6405952 763 482 C 763 496.3594048 694.9472896 508 611 508 C 527.0527104 508 459 496.3594048 459 482 Z" stroke-miterlimit="10"/></g><g transform="translate(-67,-158) scale(1,1)"><g><path fill="none" stroke="none"/><text fill="#000000" stroke="none" font-family="Arial" font-size="13px" font-style="normal" font-weight="bold" text-decoration="none" x="521.463134765625" y="482.5">Добавяне на друг потребител</text><text fill="#000000" stroke="none" font-family="Arial" font-size="13px" font-style="normal" font-weight="bold" text-decoration="none" x="571.8349609375" y="495.5">като приятел</text></g></g><g transform="translate(-67,-158) scale(1,1)"><path fill="#C0C0C0" stroke="none" d="M 850 499 C 850 483.5360256 900.1441024 471 962 471 C 1023.8558976 471 1074 483.5360256 1074 499 C 1074 514.4639744 1023.8558976 527 962 527 C 900.1441024 527 850 514.4639744 850 499 Z" opacity="0.2"/></g><g transform="translate(-67,-158) scale(1,1)"><path fill="#ffffff" stroke="none" d="M 843 492 C 843 476.5360256 893.1441024 464 955 464 C 1016.8558976 464 1067 476.5360256 1067 492 C 1067 507.4639744 1016.8558976 520 955 520 C 893.1441024 520 843 507.4639744 843 492 Z"/></g><g transform="translate(-67,-158) scale(1,1)"><path fill="none" stroke="#000000" d="M 843 492 C 843 476.5360256 893.1441024 464 955 464 C 1016.8558976 464 1067 476.5360256 1067 492 C 1067 507.4639744 1016.8558976 520 955 520 C 893.1441024 520 843 507.4639744 843 492 Z" stroke-miterlimit="10"/></g><g transform="translate(-67,-158) scale(1,1)"><g><path fill="none" stroke="none"/><text fill="#000000" stroke="none" font-family="Arial" font-size="13px" font-style="normal" font-weight="bold" text-decoration="none" x="888.67333984375" y="492.5">Изпращане на покана</text><text fill="#000000" stroke="none" font-family="Arial" font-size="13px" font-style="normal" font-weight="bold" text-decoration="none" x="908.995361328125" y="505.5">за приятелство</text></g></g><g transform="translate(-67,-158) scale(1,1)"><path fill="none" stroke="#000000" d="M 764 486 L 842 489" stroke-miterlimit="10" stroke-dasharray="3"/></g><g transform="translate(-67,-158) scale(1,1)"><path fill="none" stroke="#000000" d="M 831.6830486744702 492.81582433383 L 842 489 L 832.0066184942785 484.4030090188142" stroke-miterlimit="10"/></g><g transform="translate(-67,-158) scale(1,1)"><g><path fill="none" stroke="none"/><text fill="#000000" stroke="none" font-family="Arial" font-size="13px" font-style="normal" font-weight="normal" text-decoration="none" x="777.5" y="509.5">«include»</text></g></g><g transform="translate(-67,-158) scale(1,1)"><path fill="#C0C0C0" stroke="none" d="M 466 569 C 466 554.6405952 534.0527104 543 618 543 C 701.9472896 543 770 554.6405952 770 569 C 770 583.3594048 701.9472896 595 618 595 C 534.0527104 595 466 583.3594048 466 569 Z" opacity="0.2"/></g><g transform="translate(-67,-158) scale(1,1)"><path fill="#ffffff" stroke="none" d="M 459 562 C 459 547.6405952 527.0527104 536 611 536 C 694.9472896 536 763 547.6405952 763 562 C 763 576.3594048 694.9472896 588 611 588 C 527.0527104 588 459 576.3594048 459 562 Z"/></g><g transform="translate(-67,-158) scale(1,1)"><path fill="none" stroke="#000000" d="M 459 562 C 459 547.6405952 527.0527104 536 611 536 C 694.9472896 536 763 547.6405952 763 562 C 763 576.3594048 694.9472896 588 611 588 C 527.0527104 588 459 576.3594048 459 562 Z" stroke-miterlimit="10"/></g><g transform="translate(-67,-158) scale(1,1)"><g><path fill="none" stroke="none"/><text fill="#000000" stroke="none" font-family="Arial" font-size="13px" font-style="normal" font-weight="bold" text-decoration="none" x="549.792724609375" y="562.5">Премахване на друг</text><text fill="#000000" stroke="none" font-family="Arial" font-size="13px" font-style="normal" font-weight="bold" text-decoration="none" x="535.453369140625" y="575.5">потребител като приятел</text></g></g><g transform="translate(-67,-158) scale(1,1)"><path fill="#C0C0C0" stroke="none" d="M 466 641 C 466 626.6405952 530.4709888 615 610 615 C 689.5290112 615 754 626.6405952 754 641 C 754 655.3594048 689.5290112 667 610 667 C 530.4709888 667 466 655.3594048 466 641 Z" opacity="0.2"/></g><g transform="translate(-67,-158) scale(1,1)"><path fill="#ffffff" stroke="none" d="M 459 634 C 459 619.6405952 523.4709888 608 603 608 C 682.5290112 608 747 619.6405952 747 634 C 747 648.3594048 682.5290112 660 603 660 C 523.4709888 660 459 648.3594048 459 634 Z"/></g><g transform="translate(-67,-158) scale(1,1)"><path fill="none" stroke="#000000" d="M 459 634 C 459 619.6405952 523.4709888 608 603 608 C 682.5290112 608 747 619.6405952 747 634 C 747 648.3594048 682.5290112 660 603 660 C 523.4709888 660 459 648.3594048 459 634 Z" stroke-miterlimit="10"/></g><g transform="translate(-67,-158) scale(1,1)"><g><path fill="none" stroke="none"/><text fill="#000000" stroke="none" font-family="Arial" font-size="13px" font-style="normal" font-weight="bold" text-decoration="none" x="515.894287109375" y="634.5">Получаване предложения за</text><text fill="#000000" stroke="none" font-family="Arial" font-size="13px" font-style="normal" font-weight="bold" text-decoration="none" x="570.839599609375" y="647.5">нови книги</text></g></g><g transform="translate(-67,-158) scale(1,1)"><path fill="#C0C0C0" stroke="none" d="M 458 720 C 458 710.6111584 531.2014352 703 621.5 703 C 711.7985648 703 785 710.6111584 785 720 C 785 729.3888416 711.7985648 737 621.5 737 C 531.2014352 737 458 729.3888416 458 720 Z" opacity="0.2"/></g><g transform="translate(-67,-158) scale(1,1)"><path fill="#ffffff" stroke="none" d="M 451 713 C 451 703.6111584 524.2014352 696 614.5 696 C 704.7985648 696 778 703.6111584 778 713 C 778 722.3888416 704.7985648 730 614.5 730 C 524.2014352 730 451 722.3888416 451 713 Z"/></g><g transform="translate(-67,-158) scale(1,1)"><path fill="none" stroke="#000000" d="M 451 713 C 451 703.6111584 524.2014352 696 614.5 696 C 704.7985648 696 778 703.6111584 778 713 C 778 722.3888416 704.7985648 730 614.5 730 C 524.2014352 730 451 722.3888416 451 713 Z" stroke-miterlimit="10"/></g><g transform="translate(-67,-158) scale(1,1)"><g><path fill="none" stroke="none"/><text fill="#000000" stroke="none" font-family="Arial" font-size="13px" font-style="normal" font-weight="bold" text-decoration="none" x="511.01416015625" y="720">Придобиване на нови постижения</text></g></g><g transform="translate(-67,-158) scale(1,1)"><path fill="none" stroke="#000000" d="M 130 579 L 558 387" stroke-miterlimit="10"/></g><g transform="translate(-67,-158) scale(1,1)"><path fill="none" stroke="#000000" d="M 130 585 L 485 509" stroke-miterlimit="10"/></g><g transform="translate(-67,-158) scale(1,1)"><path fill="none" stroke="#000000" d="M 130 589 L 458 571" stroke-miterlimit="10"/></g><g transform="translate(-67,-158) scale(1,1)"><path fill="none" stroke="#000000" d="M 130 593 L 458 622" stroke-miterlimit="10"/></g><g transform="translate(-67,-158) scale(1,1)"><path fill="none" stroke="#000000" d="M 130 598 L 539 695" stroke-miterlimit="10"/></g><g transform="translate(-67,-158) scale(1,1)"><path fill="none" stroke="#000000" d="M 130 582 L 532 445" stroke-miterlimit="10"/></g><g transform="translate(-67,-158) scale(1,1)"><path fill="#C0C0C0" stroke="none" d="M 262 856 C 262 846.6111584 307.890808 839 364.5 839 C 421.109192 839 467 846.6111584 467 856 C 467 865.3888416 421.109192 873 364.5 873 C 307.890808 873 262 865.3888416 262 856 Z" opacity="0.2"/></g><g transform="translate(-67,-158) scale(1,1)"><path fill="#ffffff" stroke="none" d="M 255 849 C 255 839.6111584 300.890808 832 357.5 832 C 414.109192 832 460 839.6111584 460 849 C 460 858.3888416 414.109192 866 357.5 866 C 300.890808 866 255 858.3888416 255 849 Z"/></g><g transform="translate(-67,-158) scale(1,1)"><path fill="none" stroke="#000000" d="M 255 849 C 255 839.6111584 300.890808 832 357.5 832 C 414.109192 832 460 839.6111584 460 849 C 460 858.3888416 414.109192 866 357.5 866 C 300.890808 866 255 858.3888416 255 849 Z" stroke-miterlimit="10"/></g><g transform="translate(-67,-158) scale(1,1)"><g><path fill="none" stroke="none"/><text fill="#000000" stroke="none" font-family="Arial" font-size="13px" font-style="normal" font-weight="bold" text-decoration="none" x="323.8701171875" y="856">Оценяване</text></g></g><g transform="translate(-67,-158) scale(1,1)"><path fill="#C0C0C0" stroke="none" d="M 454 808 C 454 798.6111584 521.8288528 791 605.5 791 C 689.1711472 791 757 798.6111584 757 808 C 757 817.3888416 689.1711472 825 605.5 825 C 521.8288528 825 454 817.3888416 454 808 Z" opacity="0.2"/></g><g transform="translate(-67,-158) scale(1,1)"><path fill="#ffffff" stroke="none" d="M 447 801 C 447 791.6111584 514.8288528 784 598.5 784 C 682.1711472 784 750 791.6111584 750 801 C 750 810.3888416 682.1711472 818 598.5 818 C 514.8288528 818 447 810.3888416 447 801 Z"/></g><g transform="translate(-67,-158) scale(1,1)"><path fill="none" stroke="#000000" d="M 447 801 C 447 791.6111584 514.8288528 784 598.5 784 C 682.1711472 784 750 791.6111584 750 801 C 750 810.3888416 682.1711472 818 598.5 818 C 514.8288528 818 447 810.3888416 447 801 Z" stroke-miterlimit="10"/></g><g transform="translate(-67,-158) scale(1,1)"><g><path fill="none" stroke="none"/><text fill="#000000" stroke="none" font-family="Arial" font-size="13px" font-style="normal" font-weight="bold" text-decoration="none" x="538.146484375" y="808">Оценяване на книга</text></g></g><g transform="translate(-67,-158) scale(1,1)"><path fill="#C0C0C0" stroke="none" d="M 454 904 C 454 894.6111584 522.5004256 887 607 887 C 691.4995744 887 760 894.6111584 760 904 C 760 913.3888416 691.4995744 921 607 921 C 522.5004256 921 454 913.3888416 454 904 Z" opacity="0.2"/></g><g transform="translate(-67,-158) scale(1,1)"><path fill="#ffffff" stroke="none" d="M 447 897 C 447 887.6111584 515.5004256 880 600 880 C 684.4995744 880 753 887.6111584 753 897 C 753 906.3888416 684.4995744 914 600 914 C 515.5004256 914 447 906.3888416 447 897 Z"/></g><g transform="translate(-67,-158) scale(1,1)"><path fill="none" stroke="#000000" d="M 447 897 C 447 887.6111584 515.5004256 880 600 880 C 684.4995744 880 753 887.6111584 753 897 C 753 906.3888416 684.4995744 914 600 914 C 515.5004256 914 447 906.3888416 447 897 Z" stroke-miterlimit="10"/></g><g transform="translate(-67,-158) scale(1,1)"><g><path fill="none" stroke="none"/><text fill="#000000" stroke="none" font-family="Arial" font-size="13px" font-style="normal" font-weight="bold" text-decoration="none" x="538.494384765625" y="904">Оценяване на автор</text></g></g><g transform="translate(-67,-158) scale(1,1)"><path fill="#C0C0C0" stroke="none" d="M 846 800 C 846 790.6111584 891.6669504 783 948 783 C 1004.3330496 783 1050 790.6111584 1050 800 C 1050 809.3888416 1004.3330496 817 948 817 C 891.6669504 817 846 809.3888416 846 800 Z" opacity="0.2"/></g><g transform="translate(-67,-158) scale(1,1)"><path fill="#ffffff" stroke="none" d="M 839 793 C 839 783.6111584 884.6669504 776 941 776 C 997.3330496 776 1043 783.6111584 1043 793 C 1043 802.3888416 997.3330496 810 941 810 C 884.6669504 810 839 802.3888416 839 793 Z"/></g><g transform="translate(-67,-158) scale(1,1)"><path fill="none" stroke="#000000" d="M 839 793 C 839 783.6111584 884.6669504 776 941 776 C 997.3330496 776 1043 783.6111584 1043 793 C 1043 802.3888416 997.3330496 810 941 810 C 884.6669504 810 839 802.3888416 839 793 Z" stroke-miterlimit="10"/></g><g transform="translate(-67,-158) scale(1,1)"><g><path fill="none" stroke="none"/><text fill="#000000" stroke="none" font-family="Arial" font-size="13px" font-style="normal" font-weight="bold" text-decoration="none" x="876.9521484375" y="800">Поставяне на оценка</text></g></g><g transform="translate(-67,-158) scale(1,1)"><path fill="#C0C0C0" stroke="none" d="M 846 848 C 846 838.6111584 888.3090864 831 940.5 831 C 992.6909136 831 1035 838.6111584 1035 848 C 1035 857.3888416 992.6909136 865 940.5 865 C 888.3090864 865 846 857.3888416 846 848 Z" opacity="0.2"/></g><g transform="translate(-67,-158) scale(1,1)"><path fill="#ffffff" stroke="none" d="M 839 841 C 839 831.6111584 881.3090864 824 933.5 824 C 985.6909136 824 1028 831.6111584 1028 841 C 1028 850.3888416 985.6909136 858 933.5 858 C 881.3090864 858 839 850.3888416 839 841 Z"/></g><g transform="translate(-67,-158) scale(1,1)"><path fill="none" stroke="#000000" d="M 839 841 C 839 831.6111584 881.3090864 824 933.5 824 C 985.6909136 824 1028 831.6111584 1028 841 C 1028 850.3888416 985.6909136 858 933.5 858 C 881.3090864 858 839 850.3888416 839 841 Z" stroke-miterlimit="10"/></g><g transform="translate(-67,-158) scale(1,1)"><g><path fill="none" stroke="none"/><text fill="#000000" stroke="none" font-family="Arial" font-size="13px" font-style="normal" font-weight="bold" text-decoration="none" x="874.517578125" y="848">Промяна на оценка</text></g></g><g transform="translate(-67,-158) scale(1,1)"><path fill="#C0C0C0" stroke="none" d="M 838 896 C 838 886.6111584 886.8009568 879 947 879 C 1007.1990432 879 1056 886.6111584 1056 896 C 1056 905.3888416 1007.1990432 913 947 913 C 886.8009568 913 838 905.3888416 838 896 Z" opacity="0.2"/></g><g transform="translate(-67,-158) scale(1,1)"><path fill="#ffffff" stroke="none" d="M 831 889 C 831 879.6111584 879.8009568 872 940 872 C 1000.1990432 872 1049 879.6111584 1049 889 C 1049 898.3888416 1000.1990432 906 940 906 C 879.8009568 906 831 898.3888416 831 889 Z"/></g><g transform="translate(-67,-158) scale(1,1)"><path fill="none" stroke="#000000" d="M 831 889 C 831 879.6111584 879.8009568 872 940 872 C 1000.1990432 872 1049 879.6111584 1049 889 C 1049 898.3888416 1000.1990432 906 940 906 C 879.8009568 906 831 898.3888416 831 889 Z" stroke-miterlimit="10"/></g><g transform="translate(-67,-158) scale(1,1)"><g><path fill="none" stroke="none"/><text fill="#000000" stroke="none" font-family="Arial" font-size="13px" font-style="normal" font-weight="bold" text-decoration="none" x="870.67724609375" y="896">Премахване на оценка</text></g></g><g transform="translate(-67,-158) scale(1,1)"><path fill="none" stroke="#000000" d="M 130 619 L 339 831" stroke-miterlimit="10"/></g><g transform="translate(-67,-158) scale(1,1)"><path fill="#C0C0C0" stroke="none" d="M 262 1056 C 262 1046.6111584 315.2781088 1039 381 1039 C 446.7218912 1039 500 1046.6111584 500 1056 C 500 1065.3888416 446.7218912 1073 381 1073 C 315.2781088 1073 262 1065.3888416 262 1056 Z" opacity="0.2"/></g><g transform="translate(-67,-158) scale(1,1)"><path fill="#ffffff" stroke="none" d="M 255 1049 C 255 1039.6111584 308.2781088 1032 374 1032 C 439.7218912 1032 493 1039.6111584 493 1049 C 493 1058.3888416 439.7218912 1066 374 1066 C 308.2781088 1066 255 1058.3888416 255 1049 Z"/></g><g transform="translate(-67,-158) scale(1,1)"><path fill="none" stroke="#000000" d="M 255 1049 C 255 1039.6111584 308.2781088 1032 374 1032 C 439.7218912 1032 493 1039.6111584 493 1049 C 493 1058.3888416 439.7218912 1066 374 1066 C 308.2781088 1066 255 1058.3888416 255 1049 Z" stroke-miterlimit="10"/></g><g transform="translate(-67,-158) scale(1,1)"><g><path fill="none" stroke="none"/><text fill="#000000" stroke="none" font-family="Arial" font-size="13px" font-style="normal" font-weight="bold" text-decoration="none" x="299.488037109375" y="1056">Отбелязване на любими</text></g></g><g transform="translate(-67,-158) scale(1,1)"><path fill="#C0C0C0" stroke="none" d="M 798 1048 C 798 1038.6111584 865.6049952 1031 949 1031 C 1032.3950048 1031 1100 1038.6111584 1100 1048 C 1100 1057.3888416 1032.3950048 1065 949 1065 C 865.6049952 1065 798 1057.3888416 798 1048 Z" opacity="0.2"/></g><g transform="translate(-67,-158) scale(1,1)"><path fill="#ffffff" stroke="none" d="M 791 1041 C 791 1031.6111584 858.6049952 1024 942 1024 C 1025.3950048 1024 1093 1031.6111584 1093 1041 C 1093 1050.3888416 1025.3950048 1058 942 1058 C 858.6049952 1058 791 1050.3888416 791 1041 Z"/></g><g transform="translate(-67,-158) scale(1,1)"><path fill="none" stroke="#000000" d="M 791 1041 C 791 1031.6111584 858.6049952 1024 942 1024 C 1025.3950048 1024 1093 1031.6111584 1093 1041 C 1093 1050.3888416 1025.3950048 1058 942 1058 C 858.6049952 1058 791 1050.3888416 791 1041 Z" stroke-miterlimit="10"/></g><g transform="translate(-67,-158) scale(1,1)"><g><path fill="none" stroke="none"/><text fill="#000000" stroke="none" font-family="Arial" font-size="13px" font-style="normal" font-weight="bold" text-decoration="none" x="846.324951171875" y="1048">Отбелязване на любими тагове</text></g></g><g transform="translate(-67,-158) scale(1,1)"><path fill="#C0C0C0" stroke="none" d="M 806 968 C 806 958.6111584 871.8141344000001 951 953 951 C 1034.1858656 951 1100 958.6111584 1100 968 C 1100 977.3888416 1034.1858656 985 953 985 C 871.8141344000001 985 806 977.3888416 806 968 Z" opacity="0.2"/></g><g transform="translate(-67,-158) scale(1,1)"><path fill="#ffffff" stroke="none" d="M 799 961 C 799 951.6111584 864.8141344000001 944 946 944 C 1027.1858656 944 1093 951.6111584 1093 961 C 1093 970.3888416 1027.1858656 978 946 978 C 864.8141344000001 978 799 970.3888416 799 961 Z"/></g><g transform="translate(-67,-158) scale(1,1)"><path fill="none" stroke="#000000" d="M 799 961 C 799 951.6111584 864.8141344000001 944 946 944 C 1027.1858656 944 1093 951.6111584 1093 961 C 1093 970.3888416 1027.1858656 978 946 978 C 864.8141344000001 978 799 970.3888416 799 961 Z" stroke-miterlimit="10"/></g><g transform="translate(-67,-158) scale(1,1)"><g><path fill="none" stroke="none"/><text fill="#000000" stroke="none" font-family="Arial" font-size="13px" font-style="normal" font-weight="bold" text-decoration="none" x="853.6162109375" y="968">Отбелязване на любими книги</text></g></g><g transform="translate(-67,-158) scale(1,1)"><path fill="#C0C0C0" stroke="none" d="M 798 1008 C 798 998.6111584 866.7242832 991 951.5 991 C 1036.2757168 991 1105 998.6111584 1105 1008 C 1105 1017.3888416 1036.2757168 1025 951.5 1025 C 866.7242832 1025 798 1017.3888416 798 1008 Z" opacity="0.2"/></g><g transform="translate(-67,-158) scale(1,1)"><path fill="#ffffff" stroke="none" d="M 791 1001 C 791 991.6111584 859.7242832 984 944.5 984 C 1029.2757168 984 1098 991.6111584 1098 1001 C 1098 1010.3888416 1029.2757168 1018 944.5 1018 C 859.7242832 1018 791 1010.3888416 791 1001 Z"/></g><g transform="translate(-67,-158) scale(1,1)"><path fill="none" stroke="#000000" d="M 791 1001 C 791 991.6111584 859.7242832 984 944.5 984 C 1029.2757168 984 1098 991.6111584 1098 1001 C 1098 1010.3888416 1029.2757168 1018 944.5 1018 C 859.7242832 1018 791 1010.3888416 791 1001 Z" stroke-miterlimit="10"/></g><g transform="translate(-67,-158) scale(1,1)"><g><path fill="none" stroke="none"/><text fill="#000000" stroke="none" font-family="Arial" font-size="13px" font-style="normal" font-weight="bold" text-decoration="none" x="847.491943359375" y="1008">Отбелязване на любими автори</text></g></g><g transform="translate(-67,-158) scale(1,1)"><path fill="#C0C0C0" stroke="none" d="M 790 1088 C 790 1078.6111584 863.4252928 1071 954 1071 C 1044.5747072 1071 1118 1078.6111584 1118 1088 C 1118 1097.3888416 1044.5747072 1105 954 1105 C 863.4252928 1105 790 1097.3888416 790 1088 Z" opacity="0.2"/></g><g transform="translate(-67,-158) scale(1,1)"><path fill="#ffffff" stroke="none" d="M 783 1081 C 783 1071.6111584 856.4252928 1064 947 1064 C 1037.5747072 1064 1111 1071.6111584 1111 1081 C 1111 1090.3888416 1037.5747072 1098 947 1098 C 856.4252928 1098 783 1090.3888416 783 1081 Z"/></g><g transform="translate(-67,-158) scale(1,1)"><path fill="none" stroke="#000000" d="M 783 1081 C 783 1071.6111584 856.4252928 1064 947 1064 C 1037.5747072 1064 1111 1071.6111584 1111 1081 C 1111 1090.3888416 1037.5747072 1098 947 1098 C 856.4252928 1098 783 1090.3888416 783 1081 Z" stroke-miterlimit="10"/></g><g transform="translate(-67,-158) scale(1,1)"><g><path fill="none" stroke="none"/><text fill="#000000" stroke="none" font-family="Arial" font-size="13px" font-style="normal" font-weight="bold" text-decoration="none" x="842.146240234375" y="1088">Премахване на книга като любима</text></g></g><g transform="translate(-67,-158) scale(1,1)"><path fill="#C0C0C0" stroke="none" d="M 798 1128 C 798 1118.6111584 869.8582896 1111 958.5 1111 C 1047.1417104 1111 1119 1118.6111584 1119 1128 C 1119 1137.3888416 1047.1417104 1145 958.5 1145 C 869.8582896 1145 798 1137.3888416 798 1128 Z" opacity="0.2"/></g><g transform="translate(-67,-158) scale(1,1)"><path fill="#ffffff" stroke="none" d="M 791 1121 C 791 1111.6111584 862.8582896 1104 951.5 1104 C 1040.1417104 1104 1112 1111.6111584 1112 1121 C 1112 1130.3888416 1040.1417104 1138 951.5 1138 C 862.8582896 1138 791 1130.3888416 791 1121 Z"/></g><g transform="translate(-67,-158) scale(1,1)"><path fill="none" stroke="#000000" d="M 791 1121 C 791 1111.6111584 862.8582896 1104 951.5 1104 C 1040.1417104 1104 1112 1111.6111584 1112 1121 C 1112 1130.3888416 1040.1417104 1138 951.5 1138 C 862.8582896 1138 791 1130.3888416 791 1121 Z" stroke-miterlimit="10"/></g><g transform="translate(-67,-158) scale(1,1)"><g><path fill="none" stroke="none"/><text fill="#000000" stroke="none" font-family="Arial" font-size="13px" font-style="normal" font-weight="bold" text-decoration="none" x="849.109130859375" y="1128">Премахване на автор като любим</text></g></g><g transform="translate(-67,-158) scale(1,1)"><path fill="#C0C0C0" stroke="none" d="M 806 1168 C 806 1158.6111584 872.037992 1151 953.5 1151 C 1034.962008 1151 1101 1158.6111584 1101 1168 C 1101 1177.3888416 1034.962008 1185 953.5 1185 C 872.037992 1185 806 1177.3888416 806 1168 Z" opacity="0.2"/></g><g transform="translate(-67,-158) scale(1,1)"><path fill="#ffffff" stroke="none" d="M 799 1161 C 799 1151.6111584 865.037992 1144 946.5 1144 C 1027.962008 1144 1094 1151.6111584 1094 1161 C 1094 1170.3888416 1027.962008 1178 946.5 1178 C 865.037992 1178 799 1170.3888416 799 1161 Z"/></g><g transform="translate(-67,-158) scale(1,1)"><path fill="none" stroke="#000000" d="M 799 1161 C 799 1151.6111584 865.037992 1144 946.5 1144 C 1027.962008 1144 1094 1151.6111584 1094 1161 C 1094 1170.3888416 1027.962008 1178 946.5 1178 C 865.037992 1178 799 1170.3888416 799 1161 Z" stroke-miterlimit="10"/></g><g transform="translate(-67,-158) scale(1,1)"><g><path fill="none" stroke="none"/><text fill="#000000" stroke="none" font-family="Arial" font-size="13px" font-style="normal" font-weight="bold" text-decoration="none" x="852.278564453125" y="1168">Премахване на таг като любим</text></g></g><g transform="translate(-67,-158) scale(1,1)"><path fill="none" stroke="#000000" d="M 363 1031 L 127 632" stroke-miterlimit="10"/></g><g transform="translate(-67,-158) scale(1,1)"><path fill="#C0C0C0" stroke="none" d="M 270 1328 C 270 1318.6111584 321.7111056 1311 385.5 1311 C 449.2888944 1311 501 1318.6111584 501 1328 C 501 1337.3888416 449.2888944 1345 385.5 1345 C 321.7111056 1345 270 1337.3888416 270 1328 Z" opacity="0.2"/></g><g transform="translate(-67,-158) scale(1,1)"><path fill="#ffffff" stroke="none" d="M 263 1321 C 263 1311.6111584 314.7111056 1304 378.5 1304 C 442.2888944 1304 494 1311.6111584 494 1321 C 494 1330.3888416 442.2888944 1338 378.5 1338 C 314.7111056 1338 263 1330.3888416 263 1321 Z"/></g><g transform="translate(-67,-158) scale(1,1)"><path fill="none" stroke="#000000" d="M 263 1321 C 263 1311.6111584 314.7111056 1304 378.5 1304 C 442.2888944 1304 494 1311.6111584 494 1321 C 494 1330.3888416 442.2888944 1338 378.5 1338 C 314.7111056 1338 263 1330.3888416 263 1321 Z" stroke-miterlimit="10"/></g><g transform="translate(-67,-158) scale(1,1)"><g><path fill="none" stroke="none"/><text fill="#000000" stroke="none" font-family="Arial" font-size="13px" font-style="normal" font-weight="bold" text-decoration="none" x="306.482666015625" y="1328">Управление на списъци</text></g></g><g transform="translate(-67,-158) scale(1,1)"><path fill="#C0C0C0" stroke="none" d="M 534 1288 C 534 1278.6111584 616.6034544 1271 718.5 1271 C 820.3965456 1271 903 1278.6111584 903 1288 C 903 1297.3888416 820.3965456 1305 718.5 1305 C 616.6034544 1305 534 1297.3888416 534 1288 Z" opacity="0.2"/></g><g transform="translate(-67,-158) scale(1,1)"><path fill="#ffffff" stroke="none" d="M 527 1281 C 527 1271.6111584 609.6034544 1264 711.5 1264 C 813.3965456 1264 896 1271.6111584 896 1281 C 896 1290.3888416 813.3965456 1298 711.5 1298 C 609.6034544 1298 527 1290.3888416 527 1281 Z"/></g><g transform="translate(-67,-158) scale(1,1)"><path fill="none" stroke="#000000" d="M 527 1281 C 527 1271.6111584 609.6034544 1264 711.5 1264 C 813.3965456 1264 896 1271.6111584 896 1281 C 896 1290.3888416 813.3965456 1298 711.5 1298 C 609.6034544 1298 527 1290.3888416 527 1281 Z" stroke-miterlimit="10"/></g><g transform="translate(-67,-158) scale(1,1)"><g><path fill="none" stroke="none"/><text fill="#000000" stroke="none" font-family="Arial" font-size="13px" font-style="normal" font-weight="bold" text-decoration="none" x="593.836669921875" y="1288">Премахване на книга от избран списък</text></g></g><g transform="translate(-67,-158) scale(1,1)"><path fill="#C0C0C0" stroke="none" d="M 534 1368 C 534 1358.6111584 615.4841664 1351 716 1351 C 816.5158336 1351 898 1358.6111584 898 1368 C 898 1377.3888416 816.5158336 1385 716 1385 C 615.4841664 1385 534 1377.3888416 534 1368 Z" opacity="0.2"/></g><g transform="translate(-67,-158) scale(1,1)"><path fill="#ffffff" stroke="none" d="M 527 1361 C 527 1351.6111584 608.4841664 1344 709 1344 C 809.5158336 1344 891 1351.6111584 891 1361 C 891 1370.3888416 809.5158336 1378 709 1378 C 608.4841664 1378 527 1370.3888416 527 1361 Z"/></g><g transform="translate(-67,-158) scale(1,1)"><path fill="none" stroke="#000000" d="M 527 1361 C 527 1351.6111584 608.4841664 1344 709 1344 C 809.5158336 1344 891 1351.6111584 891 1361 C 891 1370.3888416 809.5158336 1378 709 1378 C 608.4841664 1378 527 1370.3888416 527 1361 Z" stroke-miterlimit="10"/></g><g transform="translate(-67,-158) scale(1,1)"><g><path fill="none" stroke="none"/><text fill="#000000" stroke="none" font-family="Arial" font-size="13px" font-style="normal" font-weight="bold" text-decoration="none" x="594.462890625" y="1368">Добавяне на книга към избран списък</text></g></g><g transform="translate(-67,-158) scale(1,1)"><path fill="#C0C0C0" stroke="none" d="M 966 1328 C 966 1318.6111584 1002.936504 1311 1048.5 1311 C 1094.063496 1311 1131 1318.6111584 1131 1328 C 1131 1337.3888416 1094.063496 1345 1048.5 1345 C 1002.936504 1345 966 1337.3888416 966 1328 Z" opacity="0.2"/></g><g transform="translate(-67,-158) scale(1,1)"><path fill="#ffffff" stroke="none" d="M 959 1321 C 959 1311.6111584 995.936504 1304 1041.5 1304 C 1087.063496 1304 1124 1311.6111584 1124 1321 C 1124 1330.3888416 1087.063496 1338 1041.5 1338 C 995.936504 1338 959 1330.3888416 959 1321 Z"/></g><g transform="translate(-67,-158) scale(1,1)"><path fill="none" stroke="#000000" d="M 959 1321 C 959 1311.6111584 995.936504 1304 1041.5 1304 C 1087.063496 1304 1124 1311.6111584 1124 1321 C 1124 1330.3888416 1087.063496 1338 1041.5 1338 C 995.936504 1338 959 1330.3888416 959 1321 Z" stroke-miterlimit="10"/></g><g transform="translate(-67,-158) scale(1,1)"><g><path fill="none" stroke="none"/><text fill="#000000" stroke="none" font-family="Arial" font-size="13px" font-style="normal" font-weight="bold" text-decoration="none" x="991.5947265625" y="1328">Избор на списък</text></g></g><g transform="translate(-67,-158) scale(1,1)"><path fill="none" stroke="#000000" d="M 858 1343 L 958 1331" stroke-miterlimit="10" stroke-dasharray="3"/></g><g transform="translate(-67,-158) scale(1,1)"><path fill="none" stroke="#000000" d="M 948.4112594385293 1336.3903668191326 L 958 1331 L 947.4081715950539 1328.0313014568374" stroke-miterlimit="10"/></g><g transform="translate(-67,-158) scale(1,1)"><g><path fill="none" stroke="none"/><text fill="#000000" stroke="none" font-family="Arial" font-size="13px" font-style="normal" font-weight="normal" text-decoration="none" x="894.5" y="1354.5">«include»</text></g></g><g transform="translate(-67,-158) scale(1,1)"><path fill="none" stroke="#000000" d="M 860 1299 L 958 1311" stroke-miterlimit="10" stroke-dasharray="3"/></g><g transform="translate(-67,-158) scale(1,1)"><path fill="none" stroke="#000000" d="M 947.4010374642882 1313.9431264272157 L 958 1311 L 948.4242970628824 1305.5865063720296" stroke-miterlimit="10"/></g><g transform="translate(-67,-158) scale(1,1)"><g><path fill="none" stroke="none"/><text fill="#000000" stroke="none" font-family="Arial" font-size="13px" font-style="normal" font-weight="normal" text-decoration="none" x="894.5" y="1300.5">«include»</text></g></g><g transform="translate(-67,-158) scale(1,1)"><path fill="none" stroke="#000000" d="M 371 1303 L 118 632" stroke-miterlimit="10"/></g><g transform="translate(-67,-158) scale(1,1)"><path fill="#C0C0C0" stroke="none" d="M 180 320 C 180 310.6111584 202.6096176 303 230.5 303 C 258.3903824 303 281 310.6111584 281 320 C 281 329.3888416 258.3903824 337 230.5 337 C 202.6096176 337 180 329.3888416 180 320 Z" opacity="0.2"/></g><g transform="translate(-67,-158) scale(1,1)"><path fill="#ffffff" stroke="none" d="M 173 313 C 173 303.6111584 195.6096176 296 223.5 296 C 251.3903824 296 274 303.6111584 274 313 C 274 322.3888416 251.3903824 330 223.5 330 C 195.6096176 330 173 322.3888416 173 313 Z"/></g><g transform="translate(-67,-158) scale(1,1)"><path fill="none" stroke="#000000" d="M 173 313 C 173 303.6111584 195.6096176 296 223.5 296 C 251.3903824 296 274 303.6111584 274 313 C 274 322.3888416 251.3903824 330 223.5 330 C 195.6096176 330 173 322.3888416 173 313 Z" stroke-miterlimit="10"/></g><g transform="translate(-67,-158) scale(1,1)"><g><path fill="none" stroke="none"/><text fill="#000000" stroke="none" font-family="Arial" font-size="13px" font-style="normal" font-weight="bold" text-decoration="none" x="197.941162109375" y="320">Влизане</text></g></g><g transform="translate(-67,-158) scale(1,1)"><path fill="none" stroke="#000000" d="M 492 292 L 275 309" stroke-miterlimit="10" stroke-dasharray="3"/></g><g transform="translate(-67,-158) scale(1,1)"><path fill="none" stroke="#000000" d="M 284.8028613615744 304.0096183386687 L 275 309 L 285.4604024572372 312.4029370303645" stroke-miterlimit="10"/></g><g transform="translate(-67,-158) scale(1,1)"><g><path fill="none" stroke="none"/><text fill="#000000" stroke="none" font-family="Arial" font-size="13px" font-style="normal" font-weight="normal" text-decoration="none" x="357.5" y="335.5">«include»</text></g></g><g transform="translate(-67,-158) scale(1,1)"><path fill="none" stroke="#000000" d="M 477 351 L 275 321" stroke-miterlimit="10" stroke-dasharray="3"/></g><g transform="translate(-67,-158) scale(1,1)"><path fill="none" stroke="#000000" d="M 285.67081138127276 318.32908546274894 L 275 321 L 284.43402486972053 326.6567813072006" stroke-miterlimit="10"/></g><g transform="translate(-67,-158) scale(1,1)"><g><path fill="none" stroke="none"/><text fill="#000000" stroke="none" font-family="Arial" font-size="13px" font-style="normal" font-weight="normal" text-decoration="none" x="343.5" y="371.5">«include»</text></g></g><g transform="translate(-67,-158) scale(1,1)"><path fill="none" stroke="#000000" d="M 511 391 L 275 327" stroke-miterlimit="10" stroke-dasharray="3"/></g><g transform="translate(-67,-158) scale(1,1)"><path fill="none" stroke="#000000" d="M 285.91017692867854 325.597131729302 L 275 327 L 283.7066377575356 333.72268242289164" stroke-miterlimit="10"/></g><g transform="translate(-67,-158) scale(1,1)"><g><path fill="none" stroke="none"/><text fill="#000000" stroke="none" font-family="Arial" font-size="13px" font-style="normal" font-weight="normal" text-decoration="none" x="357.5" y="393.5">«include»</text></g></g><g transform="translate(-67,-158) scale(1,1)"><path fill="none" stroke="#000000" d="M 549 455 L 264 331" stroke-miterlimit="10" stroke-dasharray="3"/></g><g transform="translate(-67,-158) scale(1,1)"><path fill="none" stroke="#000000" d="M 274.9982799014711 331.19452302921866 L 264 331 L 271.6394097466605 338.91450685277545" stroke-miterlimit="10"/></g><g transform="translate(-67,-158) scale(1,1)"><g><path fill="none" stroke="none"/><text fill="#000000" stroke="none" font-family="Arial" font-size="13px" font-style="normal" font-weight="normal" text-decoration="none" x="365.5" y="426.5">«include»</text></g></g><g transform="translate(-67,-158) scale(1,1)"><path fill="none" stroke="#000000" d="M 569 535 L 251 331" stroke-miterlimit="10" stroke-dasharray="3"/></g><g transform="translate(-67,-158) scale(1,1)"><path fill="none" stroke="#000000" d="M 261.8268121606836 332.94425781142155 L 251 331 L 257.28091441462124 340.03051018028344" stroke-miterlimit="10"/></g><g transform="translate(-67,-158) scale(1,1)"><g><path fill="none" stroke="none"/><text fill="#000000" stroke="none" font-family="Arial" font-size="13px" font-style="normal" font-weight="normal" text-decoration="none" x="365.5" y="464.5">«include»</text></g></g><g transform="translate(-67,-158) scale(1,1)"><path fill="none" stroke="#000000" d="M 571 607 L 244 331" stroke-miterlimit="10" stroke-dasharray="3"/></g><g transform="translate(-67,-158) scale(1,1)"><path fill="none" stroke="#000000" d="M 254.48128270574617 334.338070227276 L 244 331 L 249.05101398298262 340.7717581705502" stroke-miterlimit="10"/></g><g transform="translate(-67,-158) scale(1,1)"><g><path fill="none" stroke="none"/><text fill="#000000" stroke="none" font-family="Arial" font-size="13px" font-style="normal" font-weight="normal" text-decoration="none" x="359.5" y="497.5">«include»</text></g></g><g transform="translate(-67,-158) scale(1,1)"><path fill="none" stroke="#000000" d="M 596 695 L 241 331" stroke-miterlimit="10" stroke-dasharray="3"/></g><g transform="translate(-67,-158) scale(1,1)"><path fill="none" stroke="#000000" d="M 251.10919075420358 335.3363881624141 L 241 331 L 245.08198785910562 341.2145668101058" stroke-miterlimit="10"/></g><g transform="translate(-67,-158) scale(1,1)"><g><path fill="none" stroke="none"/><text fill="#000000" stroke="none" font-family="Arial" font-size="13px" font-style="normal" font-weight="normal" text-decoration="none" x="368.5" y="539.5">«include»</text></g></g><g transform="translate(-67,-158) scale(1,1)"><path fill="none" stroke="#000000" d="M 353 831 L 228 331" stroke-miterlimit="10" stroke-dasharray="3"/></g><g transform="translate(-67,-158) scale(1,1)"><path fill="none" stroke="#000000" d="M 234.54864277886242 339.8382847744827 L 228 331 L 226.38097861840737 341.8802008145965" stroke-miterlimit="10"/></g><g transform="translate(-67,-158) scale(1,1)"><g><path fill="none" stroke="none"/><text fill="#000000" stroke="none" font-family="Arial" font-size="13px" font-style="normal" font-weight="normal" text-decoration="none" x="232.5" y="594.5">«include»</text></g></g><g transform="translate(-67,-158) scale(1,1)"><path fill="none" stroke="#000000" d="M 370 1031 L 227 331" stroke-miterlimit="10" stroke-dasharray="3"/></g><g transform="translate(-67,-158) scale(1,1)"><path fill="none" stroke="#000000" d="M 233.15841694150714 340.11448850866344 L 227 331 L 224.90974174919103 341.7995750122366" stroke-miterlimit="10"/></g><g transform="translate(-67,-158) scale(1,1)"><g><path fill="none" stroke="none"/><text fill="#000000" stroke="none" font-family="Arial" font-size="13px" font-style="normal" font-weight="normal" text-decoration="none" x="240.5" y="692.5">«include»</text></g></g><g transform="translate(-67,-158) scale(1,1)"><path fill="none" stroke="#000000" d="M 375 1303 L 226 331" stroke-miterlimit="10" stroke-dasharray="3"/></g><g transform="translate(-67,-158) scale(1,1)"><path fill="none" stroke="#000000" d="M 231.70078534437118 340.4074994795324 L 226 331 L 223.37895729910747 341.68317065108005" stroke-miterlimit="10"/></g><g transform="translate(-67,-158) scale(1,1)"><g><path fill="none" stroke="none"/><text fill="#000000" stroke="none" font-family="Arial" font-size="13px" font-style="normal" font-weight="normal" text-decoration="none" x="242.5" y="827.5">«include»</text></g></g><g transform="translate(-67,-158) scale(1,1)"><path fill="none" stroke="#000000" d="M 375 1303 L 226 331" stroke-miterlimit="10" stroke-dasharray="3"/></g><g transform="translate(-67,-158) scale(1,1)"><path fill="none" stroke="#000000" d="M 231.70078534437118 340.4074994795324 L 226 331 L 223.37895729910747 341.68317065108005" stroke-miterlimit="10"/></g><g transform="translate(-67,-158) scale(1,1)"><g><path fill="none" stroke="none"/><text fill="#000000" stroke="none" font-family="Arial" font-size="13px" font-style="normal" font-weight="normal" text-decoration="none" x="242.5" y="827.5">«include»</text></g></g><g transform="translate(-67,-158) scale(1,1)"><path fill="none" stroke="#000000" d="M 829 979 L 491 1031" stroke-miterlimit="10" stroke-dasharray="3"/></g><g transform="translate(-67,-158) scale(1,1)"><path fill="none" stroke="#000000" d="M 500.4044127846545 1025.2941240658574 L 491 1031 L 501.68458761874797 1033.6152604874653" stroke-miterlimit="10"/></g><g transform="translate(-67,-158) scale(1,1)"><g><path fill="none" stroke="none"/><text fill="#000000" stroke="none" font-family="Arial" font-size="13px" font-style="normal" font-weight="normal" text-decoration="none" x="612.5" y="1003.5">«extend»</text></g></g><g transform="translate(-67,-158) scale(1,1)"><path fill="none" stroke="#000000" d="M 790 1014 L 494 1039" stroke-miterlimit="10" stroke-dasharray="3"/></g><g transform="translate(-67,-158) scale(1,1)"><path fill="none" stroke="#000000" d="M 503.7723481657479 1033.950127592958 L 494 1039 L 504.48089267926247 1042.33929463297" stroke-miterlimit="10"/></g><g transform="translate(-67,-158) scale(1,1)"><g><path fill="none" stroke="none"/><text fill="#000000" stroke="none" font-family="Arial" font-size="13px" font-style="normal" font-weight="normal" text-decoration="none" x="628.5" y="1020.5">«extend»</text></g></g><g transform="translate(-67,-158) scale(1,1)"><path fill="none" stroke="#000000" d="M 790 1043 L 494 1047" stroke-miterlimit="10" stroke-dasharray="3"/></g><g transform="translate(-67,-158) scale(1,1)"><path fill="none" stroke="#000000" d="M 504.1048668742895 1042.6535456458296 L 494 1047 L 504.21862723774916 1051.0718125418457" stroke-miterlimit="10"/></g><g transform="translate(-67,-158) scale(1,1)"><g><path fill="none" stroke="none"/><text fill="#000000" stroke="none" font-family="Arial" font-size="13px" font-style="normal" font-weight="normal" text-decoration="none" x="628.5" y="1044.5">«extend»</text></g></g><g transform="translate(-67,-158) scale(1,1)"><path fill="none" stroke="#000000" d="M 782 1072 L 494 1056" stroke-miterlimit="10" stroke-dasharray="3"/></g><g transform="translate(-67,-158) scale(1,1)"><path fill="none" stroke="#000000" d="M 504.3805299603827 1052.3606871882735 L 494 1056 L 503.9135258953276 1060.7667603592658" stroke-miterlimit="10"/></g><g transform="translate(-67,-158) scale(1,1)"><g><path fill="none" stroke="none"/><text fill="#000000" stroke="none" font-family="Arial" font-size="13px" font-style="normal" font-weight="normal" text-decoration="none" x="612.5" y="1075.5">«extend»</text></g></g><g transform="translate(-67,-158) scale(1,1)"><path fill="none" stroke="#000000" d="M 807 1103 L 494 1064" stroke-miterlimit="10" stroke-dasharray="3"/></g><g transform="translate(-67,-158) scale(1,1)"><path fill="none" stroke="#000000" d="M 504.60517615857975 1061.0793427716535 L 494 1064 L 503.5642085090949 1069.4337754457245" stroke-miterlimit="10"/></g><g transform="translate(-67,-158) scale(1,1)"><g><path fill="none" stroke="none"/><text fill="#000000" stroke="none" font-family="Arial" font-size="13px" font-style="normal" font-weight="normal" text-decoration="none" x="620.5" y="1100.5">«extend»</text></g></g><g transform="translate(-67,-158) scale(1,1)"><path fill="none" stroke="#000000" d="M 854 1143 L 466 1067" stroke-miterlimit="10" stroke-dasharray="3"/></g><g transform="translate(-67,-158) scale(1,1)"><path fill="none" stroke="#000000" d="M 476.78232097682337 1064.8224889546193 L 466 1067 L 475.16398510593905 1073.0845194533445" stroke-miterlimit="10"/></g><g transform="translate(-67,-158) scale(1,1)"><g><path fill="none" stroke="none"/><text fill="#000000" stroke="none" font-family="Arial" font-size="13px" font-style="normal" font-weight="normal" text-decoration="none" x="612.5" y="1124.5">«extend»</text></g></g><g transform="translate(-67,-158) scale(1,1)"><path fill="none" stroke="#000000" d="M 561 1299 L 495 1307" stroke-miterlimit="10" stroke-dasharray="3"/></g><g transform="translate(-67,-158) scale(1,1)"><path fill="none" stroke="#000000" d="M 504.5822936188102 1301.598180954261 L 495 1307 L 505.595367675166 1309.9560419191964" stroke-miterlimit="10"/></g><g transform="translate(-67,-158) scale(1,1)"><g><path fill="none" stroke="none"/><text fill="#000000" stroke="none" font-family="Arial" font-size="13px" font-style="normal" font-weight="normal" text-decoration="none" x="524.5" y="1315.5">«extend»</text></g></g><g transform="translate(-67,-158) scale(1,1)"><path fill="none" stroke="#000000" d="M 560 1343 L 495 1335" stroke-miterlimit="10" stroke-dasharray="3"/></g><g transform="translate(-67,-158) scale(1,1)"><path fill="none" stroke="#000000" d="M 505.60078118557107 1332.0634308699364 L 495 1335 L 504.5723522074831 1340.419416316901" stroke-miterlimit="10"/></g><g transform="translate(-67,-158) scale(1,1)"><g><path fill="none" stroke="none"/><text fill="#000000" stroke="none" font-family="Arial" font-size="13px" font-style="normal" font-weight="normal" text-decoration="none" x="532.5" y="1340.5">«extend»</text></g></g><g transform="translate(-67,-158) scale(1,1)"><path fill="none" stroke="#000000" d="M 508 819 L 447 831" stroke-miterlimit="10" stroke-dasharray="3"/></g><g transform="translate(-67,-158) scale(1,1)"><path fill="none" stroke="#000000" d="M 456.1590312852185 824.9080261067213 L 447 831 L 457.7840891816265 833.168737080129" stroke-miterlimit="10"/></g><g transform="translate(-67,-158) scale(1,1)"><g><path fill="none" stroke="none"/><text fill="#000000" stroke="none" font-family="Arial" font-size="13px" font-style="normal" font-weight="normal" text-decoration="none" x="483.5" y="836.5">«extend»</text></g></g><g transform="translate(-67,-158) scale(1,1)"><path fill="none" stroke="#000000" d="M 509 879 L 448 867" stroke-miterlimit="10" stroke-dasharray="3"/></g><g transform="translate(-67,-158) scale(1,1)"><path fill="none" stroke="#000000" d="M 458.7840891816265 864.831262919871 L 448 867 L 457.1590312852185 873.0919738932787" stroke-miterlimit="10"/></g><g transform="translate(-67,-158) scale(1,1)"><g><path fill="none" stroke="none"/><text fill="#000000" stroke="none" font-family="Arial" font-size="13px" font-style="normal" font-weight="normal" text-decoration="none" x="468.5" y="868.5">«extend»</text></g></g><g transform="translate(-67,-158) scale(1,1)"><path fill="none" stroke="#000000" d="M 838 795 L 751 797" stroke-miterlimit="10" stroke-dasharray="3"/></g><g transform="translate(-67,-158) scale(1,1)"><path fill="none" stroke="#000000" d="M 761.0632456169828 792.5580311063362 L 751 797 L 761.2567355430436 800.974842889985" stroke-miterlimit="10"/></g><g transform="translate(-67,-158) scale(1,1)"><g><path fill="none" stroke="none"/><text fill="#000000" stroke="none" font-family="Arial" font-size="13px" font-style="normal" font-weight="normal" text-decoration="none" x="772.5" y="788.5">«extend»</text></g></g><g transform="translate(-67,-158) scale(1,1)"><path fill="none" stroke="#000000" d="M 838 830 L 749 819" stroke-miterlimit="10" stroke-dasharray="3"/></g><g transform="translate(-67,-158) scale(1,1)"><path fill="none" stroke="#000000" d="M 759.602279837662 816.0688462606158 L 749 819 L 758.569582655067 824.4243052834294" stroke-miterlimit="10"/></g><g transform="translate(-67,-158) scale(1,1)"><g><path fill="none" stroke="none"/><text fill="#000000" stroke="none" font-family="Arial" font-size="13px" font-style="normal" font-weight="normal" text-decoration="none" x="772.5" y="820.5">«extend»</text></g></g><g transform="translate(-67,-158) scale(1,1)"><path fill="none" stroke="#000000" d="M 870 871 L 668 819" stroke-miterlimit="10" stroke-dasharray="3"/></g><g transform="translate(-67,-158) scale(1,1)"><path fill="none" stroke="#000000" d="M 678.8912312507133 817.4569245502942 L 668 819 L 676.7923825872198 825.6101443584807" stroke-miterlimit="10"/></g><g transform="translate(-67,-158) scale(1,1)"><g><path fill="none" stroke="none"/><text fill="#000000" stroke="none" font-family="Arial" font-size="13px" font-style="normal" font-weight="normal" text-decoration="none" x="700.5" y="827.5">«extend»</text></g></g><g transform="translate(-67,-158) scale(1,1)"><path fill="none" stroke="#000000" d="M 882 811 L 659 879" stroke-miterlimit="10" stroke-dasharray="3"/></g><g transform="translate(-67,-158) scale(1,1)"><path fill="none" stroke="#000000" d="M 667.4929751597193 872.0093367312973 L 659 879 L 669.9485857301779 880.0622949255951" stroke-miterlimit="10"/></g><g transform="translate(-67,-158) scale(1,1)"><g><path fill="none" stroke="none"/><text fill="#000000" stroke="none" font-family="Arial" font-size="13px" font-style="normal" font-weight="normal" text-decoration="none" x="675.5" y="859.5">«extend»</text></g></g><g transform="translate(-67,-158) scale(1,1)"><path fill="none" stroke="#000000" d="M 838 857 L 707 879" stroke-miterlimit="10" stroke-dasharray="3"/></g><g transform="translate(-67,-158) scale(1,1)"><path fill="none" stroke="#000000" d="M 716.3251464778873 873.1654783258654 L 707 879 L 717.7195041508324 881.4682444693115" stroke-miterlimit="10"/></g><g transform="translate(-67,-158) scale(1,1)"><g><path fill="none" stroke="none"/><text fill="#000000" stroke="none" font-family="Arial" font-size="13px" font-style="normal" font-weight="normal" text-decoration="none" x="740.5" y="867.5">«extend»</text></g></g><g transform="translate(-67,-158) scale(1,1)"><path fill="none" stroke="#000000" d="M 830 892 L 754 893" stroke-miterlimit="10" stroke-dasharray="3"/></g><g transform="translate(-67,-158) scale(1,1)"><path fill="none" stroke="#000000" d="M 764.106411641457 888.6571387618965 L 754 893 L 764.2171788363521 897.0754455739218" stroke-miterlimit="10"/></g><g transform="translate(-67,-158) scale(1,1)"><g><path fill="none" stroke="none"/><text fill="#000000" stroke="none" font-family="Arial" font-size="13px" font-style="normal" font-weight="normal" text-decoration="none" x="772.5" y="907.5">«extend»</text></g></g><g transform="translate(-67,-158) scale(1,1)"><path fill="#ffffff" stroke="none" d="M 1175.1625241477273 537.6800000000001 C 1175.1625241477273 532.8861679360001 1179.0483664726728 529 1183.841796875 529 C 1188.6352272773272 529 1192.5210696022727 532.8861679360001 1192.5210696022727 537.6800000000001 C 1192.5210696022727 542.473832064 1188.6352272773272 546.36 1183.841796875 546.36 C 1179.0483664726728 546.36 1175.1625241477273 542.473832064 1175.1625241477273 537.6800000000001 Z"/></g><g transform="translate(-67,-158) scale(1,1)"><path fill="none" stroke="#000000" d="M 1175.1625241477273 537.6800000000001 C 1175.1625241477273 532.8861679360001 1179.0483664726728 529 1183.841796875 529 C 1188.6352272773272 529 1192.5210696022727 532.8861679360001 1192.5210696022727 537.6800000000001 C 1192.5210696022727 542.473832064 1188.6352272773272 546.36 1183.841796875 546.36 C 1179.0483664726728 546.36 1175.1625241477273 542.473832064 1175.1625241477273 537.6800000000001 Z" stroke-miterlimit="10"/></g><g transform="translate(-67,-158) scale(1,1)"><path fill="none" stroke="#000000" d="M 1183.841796875 546.36 L 1183.841796875 563.64" stroke-miterlimit="10"/></g><g transform="translate(-67,-158) scale(1,1)"><path fill="none" stroke="#000000" d="M 1174.6519786931817 552.84 L 1193.0316150568183 552.84" stroke-miterlimit="10"/></g><g transform="translate(-67,-158) scale(1,1)"><path fill="none" stroke="#000000" d="M 1183.841796875 563.64 L 1171.0781605113636 581" stroke-miterlimit="10"/></g><g transform="translate(-67,-158) scale(1,1)"><path fill="none" stroke="#000000" d="M 1183.841796875 563.64 L 1196.6054332386364 581" stroke-miterlimit="10"/></g><g transform="translate(-67,-158) scale(1,1)"><g><path fill="none" stroke="none"/><text fill="#000000" stroke="none" font-family="Arial" font-size="13px" font-style="normal" font-weight="bold" text-decoration="none" x="1155.29638671875" y="601.5">Facebook</text></g></g><g transform="translate(-67,-158) scale(1,1)"><path fill="#C0C0C0" stroke="none" d="M 244 192 C 244 182.6111584 312.276568 175 396.5 175 C 480.723432 175 549 182.6111584 549 192 C 549 201.3888416 480.723432 209 396.5 209 C 312.276568 209 244 201.3888416 244 192 Z" opacity="0.2"/></g><g transform="translate(-67,-158) scale(1,1)"><path fill="#ffffff" stroke="none" d="M 237 185 C 237 175.6111584 305.276568 168 389.5 168 C 473.723432 168 542 175.6111584 542 185 C 542 194.3888416 473.723432 202 389.5 202 C 305.276568 202 237 194.3888416 237 185 Z"/></g><g transform="translate(-67,-158) scale(1,1)"><path fill="none" stroke="#000000" d="M 237 185 C 237 175.6111584 305.276568 168 389.5 168 C 473.723432 168 542 175.6111584 542 185 C 542 194.3888416 473.723432 202 389.5 202 C 305.276568 202 237 194.3888416 237 185 Z" stroke-miterlimit="10"/></g><g transform="translate(-67,-158) scale(1,1)"><g><path fill="none" stroke="none"/><text fill="#000000" stroke="none" font-family="Arial" font-size="13px" font-style="normal" font-weight="bold" text-decoration="none" x="292.86962890625" y="192">Влизане през Facebook профил</text></g></g><g transform="translate(-67,-158) scale(1,1)"><path fill="none" stroke="#000000" d="M 366 203 L 246 295" stroke-miterlimit="10" stroke-dasharray="3"/></g><g transform="translate(-67,-158) scale(1,1)"><path fill="none" stroke="#000000" d="M 251.50396002840702 285.4760079795446 L 246 295 L 256.6263668010969 292.15740811783576" stroke-miterlimit="10"/></g><g transform="translate(-67,-158) scale(1,1)"><g><path fill="none" stroke="none"/><text fill="#000000" stroke="none" font-family="Arial" font-size="13px" font-style="normal" font-weight="normal" text-decoration="none" x="297.5" y="278.5">«extend»</text></g></g><g transform="translate(-67,-158) scale(1,1)"><path fill="none" stroke="#000000" d="M 1183 527 L 1181 184 L 543 185" stroke-miterlimit="10"/></g><g transform="translate(-67,-158) scale(1,1)"><path fill="#ffffff" stroke="none" d="M 96.40935031960227 177.68 C 96.40935031960227 172.886167936 100.29519264454773 169 105.088623046875 169 C 109.88205344920227 169 113.76789577414773 172.886167936 113.76789577414773 177.68 C 113.76789577414773 182.47383206400002 109.88205344920227 186.36 105.088623046875 186.36 C 100.29519264454773 186.36 96.40935031960227 182.47383206400002 96.40935031960227 177.68 Z"/></g><g transform="translate(-67,-158) scale(1,1)"><path fill="none" stroke="#000000" d="M 96.40935031960227 177.68 C 96.40935031960227 172.886167936 100.29519264454773 169 105.088623046875 169 C 109.88205344920227 169 113.76789577414773 172.886167936 113.76789577414773 177.68 C 113.76789577414773 182.47383206400002 109.88205344920227 186.36 105.088623046875 186.36 C 100.29519264454773 186.36 96.40935031960227 182.47383206400002 96.40935031960227 177.68 Z" stroke-miterlimit="10"/></g><g transform="translate(-67,-158) scale(1,1)"><path fill="none" stroke="#000000" d="M 105.088623046875 186.36 L 105.088623046875 203.64" stroke-miterlimit="10"/></g><g transform="translate(-67,-158) scale(1,1)"><path fill="none" stroke="#000000" d="M 95.89880486505682 192.84 L 114.27844122869318 192.84" stroke-miterlimit="10"/></g><g transform="translate(-67,-158) scale(1,1)"><path fill="none" stroke="#000000" d="M 105.088623046875 203.64 L 92.32498668323863 221" stroke-miterlimit="10"/></g><g transform="translate(-67,-158) scale(1,1)"><path fill="none" stroke="#000000" d="M 105.088623046875 203.64 L 117.85225941051137 221" stroke-miterlimit="10"/></g><g transform="translate(-67,-158) scale(1,1)"><g><path fill="none" stroke="none"/><text fill="#000000" stroke="none" font-family="Arial" font-size="13px" font-style="normal" font-weight="bold" text-decoration="none" x="87.746826171875" y="241.5">Guest</text></g></g></g></svg>