<svg version="1.1" xmlns="http://www.w3.org/2000/svg" xmlns:xlink="http://www.w3.org/1999/xlink" width="960" height="422"><defs/><g><g transform="translate(-78,-109) scale(1,1)"><path fill="#ffffff" stroke="none" d="M 106.93571750710228 313.68 C 106.93571750710228 308.886167936 110.82155983204774 305 115.614990234375 305 C 120.40842063670226 305 124.29426296164772 308.886167936 124.29426296164772 313.68 C 124.29426296164772 318.473832064 120.40842063670226 322.36 115.614990234375 322.36 C 110.82155983204774 322.36 106.93571750710228 318.473832064 106.93571750710228 313.68 Z"/></g><g transform="translate(-78,-109) scale(1,1)"><path fill="none" stroke="#000000" d="M 106.93571750710228 313.68 C 106.93571750710228 308.886167936 110.82155983204774 305 115.614990234375 305 C 120.40842063670226 305 124.29426296164772 308.886167936 124.29426296164772 313.68 C 124.29426296164772 318.473832064 120.40842063670226 322.36 115.614990234375 322.36 C 110.82155983204774 322.36 106.93571750710228 318.473832064 106.93571750710228 313.68 Z" stroke-miterlimit="10"/></g><g transform="translate(-78,-109) scale(1,1)"><path fill="none" stroke="#000000" d="M 115.614990234375 322.36 L 115.614990234375 339.64" stroke-miterlimit="10"/></g><g transform="translate(-78,-109) scale(1,1)"><path fill="none" stroke="#000000" d="M 106.42517205255683 328.84 L 124.80480841619317 328.84" stroke-miterlimit="10"/></g><g transform="translate(-78,-109) scale(1,1)"><path fill="none" stroke="#000000" d="M 115.614990234375 339.64 L 102.85135387073865 357" stroke-miterlimit="10"/></g><g transform="translate(-78,-109) scale(1,1)"><path fill="none" stroke="#000000" d="M 115.614990234375 339.64 L 128.37862659801135 357" stroke-miterlimit="10"/></g><g transform="translate(-78,-109) scale(1,1)"><g><path fill="none" stroke="none"/><text fill="#000000" stroke="none" font-family="Arial" font-size="13px" font-style="normal" font-weight="bold" text-decoration="none" x="94.29638671875" y="377.5">Reader</text></g></g><g transform="translate(-78,-109) scale(1,1)"><path fill="#C0C0C0" stroke="none" d="M 262 221.5 C 262 208.5213072 324.68012799999997 198 402 198 C 479.31987200000003 198 542 208.5213072 542 221.5 C 542 234.4786928 479.31987200000003 245 402 245 C 324.68012799999997 245 262 234.4786928 262 221.5 Z" opacity="0.2"/></g><g transform="translate(-78,-109) scale(1,1)"><path fill="#ffffff" stroke="none" d="M 255 214.5 C 255 201.5213072 317.68012799999997 191 395 191 C 472.31987200000003 191 535 201.5213072 535 214.5 C 535 227.4786928 472.31987200000003 238 395 238 C 317.68012799999997 238 255 227.4786928 255 214.5 Z"/></g><g transform="translate(-78,-109) scale(1,1)"><path fill="none" stroke="#000000" d="M 255 214.5 C 255 201.5213072 317.68012799999997 191 395 191 C 472.31987200000003 191 535 201.5213072 535 214.5 C 535 227.4786928 472.31987200000003 238 395 238 C 317.68012799999997 238 255 227.4786928 255 214.5 Z" stroke-miterlimit="10"/></g><g transform="translate(-78,-109) scale(1,1)"><g><path fill="none" stroke="none"/><text fill="#000000" stroke="none" font-family="Arial" font-size="13px" font-style="normal" font-weight="bold" text-decoration="none" x="360.941650390625" y="221.5">Ревюиране</text></g></g><g transform="translate(-78,-109) scale(1,1)"><path fill="#C0C0C0" stroke="none" d="M 886 223 C 886 213.6111584 919.3547824 206 960.5 206 C 1001.6452176 206 1035 213.6111584 1035 223 C 1035 232.3888416 1001.6452176 240 960.5 240 C 919.3547824 240 886 232.3888416 886 223 Z" opacity="0.2"/></g><g transform="translate(-78,-109) scale(1,1)"><path fill="#ffffff" stroke="none" d="M 879 216 C 879 206.6111584 912.3547824 199 953.5 199 C 994.6452176 199 1028 206.6111584 1028 216 C 1028 225.3888416 994.6452176 233 953.5 233 C 912.3547824 233 879 225.3888416 879 216 Z"/></g><g transform="translate(-78,-109) scale(1,1)"><path fill="none" stroke="#000000" d="M 879 216 C 879 206.6111584 912.3547824 199 953.5 199 C 994.6452176 199 1028 206.6111584 1028 216 C 1028 225.3888416 994.6452176 233 953.5 233 C 912.3547824 233 879 225.3888416 879 216 Z" stroke-miterlimit="10"/></g><g transform="translate(-78,-109) scale(1,1)"><g><path fill="none" stroke="none"/><text fill="#000000" stroke="none" font-family="Arial" font-size="13px" font-style="normal" font-weight="bold" text-decoration="none" x="908.244384765625" y="223">Избор на книга</text></g></g><g transform="translate(-78,-109) scale(1,1)"><path fill="#C0C0C0" stroke="none" d="M 606 223 C 606 213.6111584 653.4578112 206 712 206 C 770.5421888 206 818 213.6111584 818 223 C 818 232.3888416 770.5421888 240 712 240 C 653.4578112 240 606 232.3888416 606 223 Z" opacity="0.2"/></g><g transform="translate(-78,-109) scale(1,1)"><path fill="#ffffff" stroke="none" d="M 599 216 C 599 206.6111584 646.4578112 199 705 199 C 763.5421888 199 811 206.6111584 811 216 C 811 225.3888416 763.5421888 233 705 233 C 646.4578112 233 599 225.3888416 599 216 Z"/></g><g transform="translate(-78,-109) scale(1,1)"><path fill="none" stroke="#000000" d="M 599 216 C 599 206.6111584 646.4578112 199 705 199 C 763.5421888 199 811 206.6111584 811 216 C 811 225.3888416 763.5421888 233 705 233 C 646.4578112 233 599 225.3888416 599 216 Z" stroke-miterlimit="10"/></g><g transform="translate(-78,-109) scale(1,1)"><g><path fill="none" stroke="none"/><text fill="#000000" stroke="none" font-family="Arial" font-size="13px" font-style="normal" font-weight="bold" text-decoration="none" x="639.40966796875" y="223">Публикуване на ревю</text></g></g><g transform="translate(-78,-109) scale(1,1)"><path fill="#C0C0C0" stroke="none" d="M 606 143 C 606 133.6111584 652.7862384 126 710.5 126 C 768.2137616 126 815 133.6111584 815 143 C 815 152.3888416 768.2137616 160 710.5 160 C 652.7862384 160 606 152.3888416 606 143 Z" opacity="0.2"/></g><g transform="translate(-78,-109) scale(1,1)"><path fill="#ffffff" stroke="none" d="M 599 136 C 599 126.6111584 645.7862384 119 703.5 119 C 761.2137616 119 808 126.6111584 808 136 C 808 145.3888416 761.2137616 153 703.5 153 C 645.7862384 153 599 145.3888416 599 136 Z"/></g><g transform="translate(-78,-109) scale(1,1)"><path fill="none" stroke="#000000" d="M 599 136 C 599 126.6111584 645.7862384 119 703.5 119 C 761.2137616 119 808 126.6111584 808 136 C 808 145.3888416 761.2137616 153 703.5 153 C 645.7862384 153 599 145.3888416 599 136 Z" stroke-miterlimit="10"/></g><g transform="translate(-78,-109) scale(1,1)"><g><path fill="none" stroke="none"/><text fill="#000000" stroke="none" font-family="Arial" font-size="13px" font-style="normal" font-weight="bold" text-decoration="none" x="638.236572265625" y="143">Редактиране на ревю</text></g></g><g transform="translate(-78,-109) scale(1,1)"><path fill="#C0C0C0" stroke="none" d="M 614 311 C 614 301.6111584 656.3090864 294 708.5 294 C 760.6909136 294 803 301.6111584 803 311 C 803 320.3888416 760.6909136 328 708.5 328 C 656.3090864 328 614 320.3888416 614 311 Z" opacity="0.2"/></g><g transform="translate(-78,-109) scale(1,1)"><path fill="#ffffff" stroke="none" d="M 607 304 C 607 294.6111584 649.3090864 287 701.5 287 C 753.6909136 287 796 294.6111584 796 304 C 796 313.3888416 753.6909136 321 701.5 321 C 649.3090864 321 607 313.3888416 607 304 Z"/></g><g transform="translate(-78,-109) scale(1,1)"><path fill="none" stroke="#000000" d="M 607 304 C 607 294.6111584 649.3090864 287 701.5 287 C 753.6909136 287 796 294.6111584 796 304 C 796 313.3888416 753.6909136 321 701.5 321 C 649.3090864 321 607 313.3888416 607 304 Z" stroke-miterlimit="10"/></g><g transform="translate(-78,-109) scale(1,1)"><g><path fill="none" stroke="none"/><text fill="#000000" stroke="none" font-family="Arial" font-size="13px" font-style="normal" font-weight="bold" text-decoration="none" x="643.05078125" y="311">Изтриване на ревю</text></g></g><g transform="translate(-78,-109) scale(1,1)"><path fill="none" stroke="#000000" d="M 144 330 L 341 239" stroke-miterlimit="10"/></g><g transform="translate(-78,-109) scale(1,1)"><path fill="none" stroke="#000000" d="M 702 286 L 704 234" stroke-miterlimit="10" stroke-dasharray="3"/></g><g transform="translate(-78,-109) scale(1,1)"><path fill="none" stroke="#000000" d="M 707.81582433383 244.3169513255298 L 704 234 L 699.4030090188141 243.9933815057215" stroke-miterlimit="10"/></g><g transform="translate(-78,-109) scale(1,1)"><g><path fill="none" stroke="none"/><text fill="#000000" stroke="none" font-family="Arial" font-size="13px" font-style="normal" font-weight="normal" text-decoration="none" x="645.5" y="264.5">«include»</text></g></g><g transform="translate(-78,-109) scale(1,1)"><path fill="none" stroke="#000000" d="M 703 154 L 705 198" stroke-miterlimit="10" stroke-dasharray="3"/></g><g transform="translate(-78,-109) scale(1,1)"><path fill="none" stroke="#000000" d="M 700.3333608983219 188.0389518877435 L 705 198 L 708.7437125137551 187.6566631779511" stroke-miterlimit="10"/></g><g transform="translate(-78,-109) scale(1,1)"><g><path fill="none" stroke="none"/><text fill="#000000" stroke="none" font-family="Arial" font-size="13px" font-style="normal" font-weight="normal" text-decoration="none" x="705.5" y="180.5">«include»</text></g></g><g transform="translate(-78,-109) scale(1,1)"><path fill="none" stroke="#000000" d="M 759 154 L 897 198" stroke-miterlimit="10" stroke-dasharray="3"/></g><g transform="translate(-78,-109) scale(1,1)"><path fill="none" stroke="#000000" d="M 886.0388296969408 198.923442249051 L 897 198 L 888.5963098726281 190.9022544253043" stroke-miterlimit="10"/></g><g transform="translate(-78,-109) scale(1,1)"><g><path fill="none" stroke="none"/><text fill="#000000" stroke="none" font-family="Arial" font-size="13px" font-style="normal" font-weight="normal" text-decoration="none" x="809.5" y="171.5">«include»</text></g></g><g transform="translate(-78,-109) scale(1,1)"><path fill="none" stroke="#000000" d="M 812 216 L 878 216" stroke-miterlimit="10" stroke-dasharray="3"/></g><g transform="translate(-78,-109) scale(1,1)"><path fill="none" stroke="#000000" d="M 867.8373251423759 220.209517756016 L 878 216 L 867.8373251423758 211.790482243984" stroke-miterlimit="10"/></g><g transform="translate(-78,-109) scale(1,1)"><g><path fill="none" stroke="none"/><text fill="#000000" stroke="none" font-family="Arial" font-size="13px" font-style="normal" font-weight="normal" text-decoration="none" x="814.5" y="210.5">«include»</text></g></g><g transform="translate(-78,-109) scale(1,1)"><path fill="none" stroke="#000000" d="M 753 286 L 901 234" stroke-miterlimit="10" stroke-dasharray="3"/></g><g transform="translate(-78,-109) scale(1,1)"><path fill="none" stroke="#000000" d="M 892.8073175414729 241.34029659712343 L 901 234 L 890.0165251777208 233.3972721772139" stroke-miterlimit="10"/></g><g transform="translate(-78,-109) scale(1,1)"><g><path fill="none" stroke="none"/><text fill="#000000" stroke="none" font-family="Arial" font-size="13px" font-style="normal" font-weight="normal" text-decoration="none" x="814.5" y="274.5">«include»</text></g></g><g transform="translate(-78,-109) scale(1,1)"><path fill="#C0C0C0" stroke="none" d="M 302 447 C 302 437.6111584 345.2045168 430 398.5 430 C 451.7954832 430 495 437.6111584 495 447 C 495 456.3888416 451.7954832 464 398.5 464 C 345.2045168 464 302 456.3888416 302 447 Z" opacity="0.2"/></g><g transform="translate(-78,-109) scale(1,1)"><path fill="#ffffff" stroke="none" d="M 295 440 C 295 430.6111584 338.2045168 423 391.5 423 C 444.7954832 423 488 430.6111584 488 440 C 488 449.3888416 444.7954832 457 391.5 457 C 338.2045168 457 295 449.3888416 295 440 Z"/></g><g transform="translate(-78,-109) scale(1,1)"><path fill="none" stroke="#000000" d="M 295 440 C 295 430.6111584 338.2045168 423 391.5 423 C 444.7954832 423 488 430.6111584 488 440 C 488 449.3888416 444.7954832 457 391.5 457 C 338.2045168 457 295 449.3888416 295 440 Z" stroke-miterlimit="10"/></g><g transform="translate(-78,-109) scale(1,1)"><g><path fill="none" stroke="none"/><text fill="#000000" stroke="none" font-family="Arial" font-size="13px" font-style="normal" font-weight="bold" text-decoration="none" x="331.49560546875" y="447">Оценяване на ревю</text></g></g><g transform="translate(-78,-109) scale(1,1)"><path fill="#C0C0C0" stroke="none" d="M 574 447 C 574 437.6111584 619.6669504 430 676 430 C 732.3330496 430 778 437.6111584 778 447 C 778 456.3888416 732.3330496 464 676 464 C 619.6669504 464 574 456.3888416 574 447 Z" opacity="0.2"/></g><g transform="translate(-78,-109) scale(1,1)"><path fill="#ffffff" stroke="none" d="M 567 440 C 567 430.6111584 612.6669504 423 669 423 C 725.3330496 423 771 430.6111584 771 440 C 771 449.3888416 725.3330496 457 669 457 C 612.6669504 457 567 449.3888416 567 440 Z"/></g><g transform="translate(-78,-109) scale(1,1)"><path fill="none" stroke="#000000" d="M 567 440 C 567 430.6111584 612.6669504 423 669 423 C 725.3330496 423 771 430.6111584 771 440 C 771 449.3888416 725.3330496 457 669 457 C 612.6669504 457 567 449.3888416 567 440 Z" stroke-miterlimit="10"/></g><g transform="translate(-78,-109) scale(1,1)"><g><path fill="none" stroke="none"/><text fill="#000000" stroke="none" font-family="Arial" font-size="13px" font-style="normal" font-weight="bold" text-decoration="none" x="604.9521484375" y="447">Поставяне на оценка</text></g></g><g transform="translate(-78,-109) scale(1,1)"><path fill="#C0C0C0" stroke="none" d="M 574 511 C 574 501.6111584 622.8009568 494 683 494 C 743.1990432 494 792 501.6111584 792 511 C 792 520.3888416 743.1990432 528 683 528 C 622.8009568 528 574 520.3888416 574 511 Z" opacity="0.2"/></g><g transform="translate(-78,-109) scale(1,1)"><path fill="#ffffff" stroke="none" d="M 567 504 C 567 494.6111584 615.8009568 487 676 487 C 736.1990432 487 785 494.6111584 785 504 C 785 513.3888416 736.1990432 521 676 521 C 615.8009568 521 567 513.3888416 567 504 Z"/></g><g transform="translate(-78,-109) scale(1,1)"><path fill="none" stroke="#000000" d="M 567 504 C 567 494.6111584 615.8009568 487 676 487 C 736.1990432 487 785 494.6111584 785 504 C 785 513.3888416 736.1990432 521 676 521 C 615.8009568 521 567 513.3888416 567 504 Z" stroke-miterlimit="10"/></g><g transform="translate(-78,-109) scale(1,1)"><g><path fill="none" stroke="none"/><text fill="#000000" stroke="none" font-family="Arial" font-size="13px" font-style="normal" font-weight="bold" text-decoration="none" x="606.67724609375" y="511">Премахване на оценка</text></g></g><g transform="translate(-78,-109) scale(1,1)"><path fill="#C0C0C0" stroke="none" d="M 574 383 C 574 373.6111584 616.3090864 366 668.5 366 C 720.6909136 366 763 373.6111584 763 383 C 763 392.3888416 720.6909136 400 668.5 400 C 616.3090864 400 574 392.3888416 574 383 Z" opacity="0.2"/></g><g transform="translate(-78,-109) scale(1,1)"><path fill="#ffffff" stroke="none" d="M 567 376 C 567 366.6111584 609.3090864 359 661.5 359 C 713.6909136 359 756 366.6111584 756 376 C 756 385.3888416 713.6909136 393 661.5 393 C 609.3090864 393 567 385.3888416 567 376 Z"/></g><g transform="translate(-78,-109) scale(1,1)"><path fill="none" stroke="#000000" d="M 567 376 C 567 366.6111584 609.3090864 359 661.5 359 C 713.6909136 359 756 366.6111584 756 376 C 756 385.3888416 713.6909136 393 661.5 393 C 609.3090864 393 567 385.3888416 567 376 Z" stroke-miterlimit="10"/></g><g transform="translate(-78,-109) scale(1,1)"><g><path fill="none" stroke="none"/><text fill="#000000" stroke="none" font-family="Arial" font-size="13px" font-style="normal" font-weight="bold" text-decoration="none" x="602.517578125" y="383">Промяна на оценка</text></g></g><g transform="translate(-78,-109) scale(1,1)"><path fill="none" stroke="#000000" d="M 144 353 L 340 422" stroke-miterlimit="10"/></g><g transform="translate(-78,-109) scale(1,1)"><path fill="none" stroke="#000000" d="M 585 394 L 467 422" stroke-miterlimit="10" stroke-dasharray="3"/></g><g transform="translate(-78,-109) scale(1,1)"><path fill="none" stroke="#000000" d="M 475.9162265426272 415.5578804543419 L 467 422 L 477.85999066683644 423.7494578349379" stroke-miterlimit="10"/></g><g transform="translate(-78,-109) scale(1,1)"><g><path fill="none" stroke="none"/><text fill="#000000" stroke="none" font-family="Arial" font-size="13px" font-style="normal" font-weight="normal" text-decoration="none" x="486.5" y="402.5">«extend»</text></g></g><g transform="translate(-78,-109) scale(1,1)"><path fill="none" stroke="#000000" d="M 596 486 L 471 458" stroke-miterlimit="10" stroke-dasharray="3"/></g><g transform="translate(-78,-109) scale(1,1)"><path fill="none" stroke="#000000" d="M 481.8370543100822 456.113666551129 L 471 458 L 479.99679376402173 464.3291154174703" stroke-miterlimit="10"/></g><g transform="translate(-78,-109) scale(1,1)"><g><path fill="none" stroke="none"/><text fill="#000000" stroke="none" font-family="Arial" font-size="13px" font-style="normal" font-weight="normal" text-decoration="none" x="494.5" y="491.5">«extend»</text></g></g><g transform="translate(-78,-109) scale(1,1)"><path fill="none" stroke="#000000" d="M 566 440 L 489 440" stroke-miterlimit="10" stroke-dasharray="3"/></g><g transform="translate(-78,-109) scale(1,1)"><path fill="none" stroke="#000000" d="M 499.16267485762415 435.790482243984 L 489 440 L 499.16267485762415 444.209517756016" stroke-miterlimit="10"/></g><g transform="translate(-78,-109) scale(1,1)"><g><path fill="none" stroke="none"/><text fill="#000000" stroke="none" font-family="Arial" font-size="13px" font-style="normal" font-weight="normal" text-decoration="none" x="510.5" y="435.5">«extend»</text></g></g><g transform="translate(-78,-109) scale(1,1)"><path fill="none" stroke="#000000" d="M 632 154 L 490 190" stroke-miterlimit="10" stroke-dasharray="3"/></g><g transform="translate(-78,-109) scale(1,1)"><path fill="none" stroke="#000000" d="M 498.8165521927623 183.4221274387308 L 490 190 L 500.88550213604174 191.58298554833297" stroke-miterlimit="10"/></g><g transform="translate(-78,-109) scale(1,1)"><g><path fill="none" stroke="none"/><text fill="#000000" stroke="none" font-family="Arial" font-size="13px" font-style="normal" font-weight="normal" text-decoration="none" x="518.5" y="162.5">«extend»</text></g></g><g transform="translate(-78,-109) scale(1,1)"><path fill="none" stroke="#000000" d="M 598 215 L 536 215" stroke-miterlimit="10" stroke-dasharray="3"/></g><g transform="translate(-78,-109) scale(1,1)"><path fill="none" stroke="#000000" d="M 546.1626748576241 210.790482243984 L 536 215 L 546.1626748576241 219.209517756016" stroke-miterlimit="10"/></g><g transform="translate(-78,-109) scale(1,1)"><g><path fill="none" stroke="none"/><text fill="#000000" stroke="none" font-family="Arial" font-size="13px" font-style="normal" font-weight="normal" text-decoration="none" x="542.5" y="211.5">«extend»</text></g></g><g transform="translate(-78,-109) scale(1,1)"><path fill="none" stroke="#000000" d="M 640 286 L 480 239" stroke-miterlimit="10" stroke-dasharray="3"/></g><g transform="translate(-78,-109) scale(1,1)"><path fill="none" stroke="#000000" d="M 490.9371069426537 237.82539720545375 L 480 239 L 488.56427208693725 245.9031328844886" stroke-miterlimit="10"/></g><g transform="translate(-78,-109) scale(1,1)"><g><path fill="none" stroke="none"/><text fill="#000000" stroke="none" font-family="Arial" font-size="13px" font-style="normal" font-weight="normal" text-decoration="none" x="518.5" y="275.5">«extend»</text></g></g><g transform="translate(-78,-109) scale(1,1)"><path fill="#ffffff" stroke="none" d="M 105.49162571022727 137.68 C 105.49162571022727 132.886167936 109.37746803517273 129 114.1708984375 129 C 118.96432883982727 129 122.85017116477273 132.886167936 122.85017116477273 137.68 C 122.85017116477273 142.47383206400002 118.96432883982727 146.36 114.1708984375 146.36 C 109.37746803517273 146.36 105.49162571022727 142.47383206400002 105.49162571022727 137.68 Z"/></g><g transform="translate(-78,-109) scale(1,1)"><path fill="none" stroke="#000000" d="M 105.49162571022727 137.68 C 105.49162571022727 132.886167936 109.37746803517273 129 114.1708984375 129 C 118.96432883982727 129 122.85017116477273 132.886167936 122.85017116477273 137.68 C 122.85017116477273 142.47383206400002 118.96432883982727 146.36 114.1708984375 146.36 C 109.37746803517273 146.36 105.49162571022727 142.47383206400002 105.49162571022727 137.68 Z" stroke-miterlimit="10"/></g><g transform="translate(-78,-109) scale(1,1)"><path fill="none" stroke="#000000" d="M 114.1708984375 146.36 L 114.1708984375 163.64" stroke-miterlimit="10"/></g><g transform="translate(-78,-109) scale(1,1)"><path fill="none" stroke="#000000" d="M 104.98108025568182 152.84 L 123.36071661931818 152.84" stroke-miterlimit="10"/></g><g transform="translate(-78,-109) scale(1,1)"><path fill="none" stroke="#000000" d="M 114.1708984375 163.64 L 101.40726207386363 181" stroke-miterlimit="10"/></g><g transform="translate(-78,-109) scale(1,1)"><path fill="none" stroke="#000000" d="M 114.1708984375 163.64 L 126.93453480113637 181" stroke-miterlimit="10"/></g><g transform="translate(-78,-109) scale(1,1)"><g><path fill="none" stroke="none"/><text fill="#000000" stroke="none" font-family="Arial" font-size="13px" font-style="normal" font-weight="bold" text-decoration="none" x="93.937744140625" y="201.5">Rookie</text></g></g><g transform="translate(-78,-109) scale(1,1)"><path fill="none" stroke="#000000" d="M 115 303 L 114 208" stroke-miterlimit="10"/></g><g transform="translate(-78,-109) scale(1,1)"><path fill="#FFFFFF" stroke="none" d="M 122.63250831960494 228.23560723358582 L 114 208 L 105.79537007514584 228.41284026773803"/></g><g transform="translate(-78,-109) scale(1,1)"><path fill="none" stroke="#000000" d="M 122.63250831960494 228.23560723358582 L 114 208 L 105.79537007514584 228.41284026773803 L 122.63250831960494 228.23560723358582" stroke-miterlimit="10"/></g></g></svg>